<?xml version="1.0" encoding="utf-8"?>
<!-- Generator: Adobe Illustrator 18.1.1, SVG Export Plug-In . SVG Version: 6.00 Build 0)  -->
<svg version="1.1" id="Layer_1" xmlns="http://www.w3.org/2000/svg" xmlns:xlink="http://www.w3.org/1999/xlink" x="0px" y="0px"
	 viewBox="30 220 552 90" enable-background="new 30 220 552 90" xml:space="preserve">
<g>
	<path fill="#FFFFFF" d="M167.7715,248.9189c-0.7339,0.7774-0.8638,1.6407-0.8638,5.7417v6.8204
		c0,4.4462-0.1723,6.561-0.2158,7.0361c-0.5176,3.7124-2.3306,7.727-10.5757,7.727c-6.8203,0-9.2808-2.6767-10.2305-5.6552
		c-0.4751-1.5537-0.518-3.7984-0.518-6.2159v-2.1152v-9.022c0-2.0288,0-3.3671-0.6045-4.1005
		c-0.4317-0.5616-1.252-0.9932-2.8057-1.252v-0.5615c1.7696,0.1299,3.7124,0.1728,5.2661,0.1728c1.5542,0,3.4966,0,5.396-0.1728
		v0.5615c-0.6045,0.1294-2.0717,0.4746-2.6333,1.0356c-0.7339,0.8204-0.8633,1.7271-0.8633,5.7847v10.0581
		c0,5.7842,0.3887,9.7988,7.4249,9.7988c7.0795,0,7.3813-4.0576,7.3813-9.8422v-11.5254v-0.7339c0-1.5972-0.043-2.6763-0.561-3.3672
		c-0.4317-0.5181-1.295-0.9497-2.8492-1.2085v-0.5615c1.7701,0.1299,3.3243,0.1728,4.878,0.1728c1.5542,0,3.1079,0,5.0073-0.1728
		v0.5615C169.8433,248.0127,168.3325,248.3579,167.7715,248.9189z"/>
	<path fill="#FFFFFF" d="M187.7119,275.769c-0.8633,0-2.7627,0.0435-4.5757,0.1294v-0.561c0.8203-0.1294,1.4248-0.3887,1.813-0.7339
		c0.7774-0.7768,0.8633-2.1582,0.9068-4.2305c0.0429-0.9497,0.0429-2.5034,0.0429-4.1005c0-1.9859-0.0864-2.5039-0.1723-3.1079
		c-0.3457-2.6334-2.0723-3.7559-4.5328-3.7559c-1.4677,0-2.5898,0.1728-3.6694,0.8203v9.7559c0,3.5825,0.2163,3.6689,0.4321,4.1005
		c0.3453,0.7339,1.6402,1.0796,2.3306,1.252v0.561c-1.5107-0.0859-3.1509-0.1294-4.7915-0.1294
		c-0.8633,0-2.8486,0.0435-4.5322,0.1294v-0.561c1.2085-0.2158,1.9424-0.561,2.4175-1.1221
		c0.6904-0.7773,0.7768-2.1152,0.7768-6.6479v-3.6695v-1.0791c0-2.2446-0.1728-3.7124-3.1079-4.187v-0.4316
		c1.2949-0.0435,2.9351-0.1729,4.4458-0.3887c0.6045-0.0864,1.2954-0.3022,1.813-0.561l0.2593,0.1728l-0.1294,2.3741
		c1.6401-1.6836,3.7553-2.3741,5.8276-2.3741c2.9351,0,4.9639,1.2515,5.6978,3.8848c0.1728,0.6909,0.3022,2.1582,0.3022,3.1943
		v5.5254c0,2.8921,0.0864,3.4102,0.5181,4.0147c0.518,0.7339,1.5107,1.0361,2.8921,1.2949v0.561
		C191.5107,275.8125,189.3525,275.769,187.7119,275.769z"/>
	<path fill="#FFFFFF" d="M198.8472,275.769c-0.8633,0-3.1079,0.0435-4.7915,0.1294v-0.561c1.2519-0.2158,1.9853-0.561,2.417-1.1221
		c0.5615-0.6909,0.7773-1.1225,0.7773-6.9502v-3.3672v-1.0791c0-2.2446-0.1729-3.7124-3.1079-4.187v-0.4316
		c1.6401-0.1294,3.2803-0.1294,4.9639-0.4751c0.518-0.1294,1.0791-0.3452,1.5542-0.561l0.2587,0.1728
		c-0.2587,2.8491-0.3017,8.1582-0.3017,10.3599v0.9931v1.5108v0.9497c0,1.1655,0.043,2.2876,0.561,2.935
		c0.4746,0.6045,1.3379,0.9932,2.8491,1.252v0.561C202.8618,275.8125,200.4873,275.769,198.8472,275.769z M198.7178,251.6816
		c-1.2954,0-2.1587-0.8198-2.1587-2.1147c0-1.3384,0.9497-2.1152,2.2446-2.1152c1.252,0,2.1587,0.7768,2.1587,2.0717
		C200.9624,250.9048,200.0557,251.6816,198.7178,251.6816z"/>
	<path fill="#FFFFFF" d="M220.7754,260.8765l-6.2593,15.1084h-2.331l-5.6983-15.1084c-0.4746-1.2085-0.8203-2.2876-2.1152-2.5899
		v-0.5615c0.8203,0.0864,2.8921,0.1299,3.8418,0.1299c1.2519,0,2.9355,0,3.8423-0.1299v0.5615
		c-1.5542,0.4317-1.8994,0.9063-1.8994,1.5972c0,0.5181,0.2158,1.2515,0.518,2.0718l2.374,6.7773
		c0.5611,1.5972,0.9497,2.8491,1.295,4.187c0.0864-0.2158,0.7768-2.374,1.0791-3.2803l2.6333-7.8134
		c0.2588-0.7769,0.4746-1.5542,0.4746-2.0723c0-0.9492-0.8633-1.165-1.899-1.4673v-0.5615c0.6475,0.0864,2.3741,0.1299,3.108,0.1299
		c1.0791,0,2.4174-0.0435,3.1513-0.1299v0.5615C221.5952,258.5889,221.3364,259.5381,220.7754,260.8765z"/>
	<path fill="#FFFFFF" d="M227.2485,265.0635c0,0-0.0429,0.6479-0.0429,0.9497c0,5.0073,1.9853,8.0293,7.2949,8.0293
		c1.4248,0,2.6767-0.2593,3.8852-0.7769l0.2159,0.3882c-1.295,1.5542-3.583,2.4605-6.3887,2.4605
		c-5.3525,0-8.5474-3.3667-8.5474-9.065c0-5.6977,3.4107-9.4966,8.5039-9.4966c2.7198,0,4.792,0.9497,5.9141,2.7193
		c0.7339,1.1225,0.9927,2.331,0.9927,4.4033v0.3882H227.2485z M235.2778,263.1211c0-3.0215-1.0361-4.3164-3.4101-4.3164
		c-2.6768,0-4.1441,1.7265-4.5327,5.3096l7.9428-0.7774V263.1211z"/>
	<path fill="#FFFFFF" d="M253.3203,261.5674c-0.9067,0-1.6836-0.4751-1.6836-1.4678c0-0.3457,0.1724-0.7773,0.1724-0.7773
		c-1.4678,0-2.9351,0.4316-4.0142,1.2089v9.626c0,2.7627,0.3018,3.065,0.5176,3.4536c0.3457,0.6045,1.1655,1.3379,3.6694,1.7266
		v0.561c-1.6836-0.0859-2.9355-0.1294-5.6118-0.1294c-1.6836,0-3.4101,0.0435-5.1367,0.1294v-0.561
		c1.6836-0.3022,2.417-0.8633,2.8057-1.77c0.3452-0.9063,0.3886-2.2446,0.3886-3.9712v-2.0288v-3.6695v-1.0791
		c0-2.2446-0.1728-3.7124-3.1079-4.187v-0.4316c1.3814-0.1294,2.417-0.0435,4.5757-0.4316c0.604-0.0865,1.1655-0.2593,1.6831-0.5181
		l0.2593,0.2158l-0.1729,2.5469c1.3384-1.4243,2.7198-2.4605,4.7915-2.4605c1.3814,0,2.7198,0.604,2.7198,2.1582
		C255.1763,260.9629,254.3994,261.5674,253.3203,261.5674z"/>
	<path fill="#FFFFFF" d="M262.5132,276.1143c-1.7266,0-3.4102-0.2159-5.0508-0.7769v-0.561v-0.8203c0-0.6905,0-1.3814-0.1724-2.8492
		h0.5611c0.9927,1.9429,1.8994,3.7559,4.3598,3.7559c3.4102,0,3.9712-1.8994,3.9712-3.0649c0-2.0723-1.5971-2.8062-2.6762-3.3672
		l-2.1153-1.1221c-1.4677-0.7774-3.626-1.9858-3.626-4.8779c0-2.2881,1.209-3.5401,2.504-4.1875
		c1.1655-0.5611,2.374-0.6475,2.9785-0.6475h0.3452c1.6836,0,2.4604,0.3022,3.6694,0.3022c0.3018,0,0.5611-0.0864,0.8198-0.2587
		l0.2593,0.1294c-0.0434,0.3022-0.0864,1.4243-0.0864,1.9423c0,1.5972,0.0864,1.813,0.0864,2.2447h-0.5615
		c-0.7339-1.5108-1.2515-3.1944-3.5396-3.1944c-0.8632,0-3.6689,0-3.6689,2.7627c0,1.5108,1.3379,2.2881,2.1582,2.6763
		l2.5898,1.2949c1.5972,0.8203,3.8418,1.9429,3.8418,5.0938C269.1606,274.6035,265.8369,276.1143,262.5132,276.1143z"/>
	<path fill="#FFFFFF" d="M276.7998,275.769c-0.8633,0-3.1079,0.0435-4.7915,0.1294v-0.561c1.252-0.2158,1.9854-0.561,2.4175-1.1221
		c0.561-0.6909,0.7768-1.1225,0.7768-6.9502v-3.3672v-1.0791c0-2.2446-0.1728-3.7124-3.1079-4.187v-0.4316
		c1.6402-0.1294,3.2803-0.1294,4.9639-0.4751c0.5181-0.1294,1.0791-0.3452,1.5542-0.561l0.2588,0.1728
		c-0.2588,2.8491-0.3023,8.1582-0.3023,10.3599v0.9931v1.5108v0.9497c0,1.1655,0.0435,2.2876,0.5616,2.935
		c0.4746,0.6045,1.3379,0.9932,2.8491,1.252v0.561C280.8145,275.8125,278.4399,275.769,276.7998,275.769z M276.6704,251.6816
		c-1.2954,0-2.1587-0.8198-2.1587-2.1147c0-1.3384,0.9497-2.1152,2.2446-2.1152c1.252,0,2.1587,0.7768,2.1587,2.0717
		C278.915,250.9048,278.0083,251.6816,276.6704,251.6816z"/>
	<path fill="#FFFFFF" d="M291.001,276.2007c-2.8062,0-4.1011-1.1655-4.6621-2.9351c-0.3023-0.9497-0.3023-2.5903-0.3023-3.8423
		c0-0.6474,0.0864-7.2085,0.1294-10.101h-2.5034v-0.5611c1.5972-0.4316,2.5469-1.122,3.1509-2.0288
		c0.6479-1.0361,0.9067-2.4175,1.0796-4.1011h1.7695c-0.1294,1.9429-0.1294,3.5831-0.1724,5.3531l6-0.2158v1.6835l-6-0.1298v9.7129
		v0.518c0,2.6763,0.1294,4.9639,3.7554,4.9639c0.7769,0,1.5542-0.1294,2.2876-0.3452l0.2163,0.518
		C295.2314,275.0786,294.0225,276.2007,291.001,276.2007z"/>
	<path fill="#FFFFFF" d="M313.8779,260.8765l-5.6113,15.6264c-1.252,3.4966-2.1582,6.0435-3.0649,7.4678
		c-1.209,1.9429-2.8492,3.0649-5.6983,3.0649c-1.5107,0-3.5395-0.3881-3.5395-2.2446c0-1.0791,0.7334-1.77,1.813-1.77
		c0.9926,0,1.8129,0.5615,1.8129,1.6406c0,0.7769-0.6044,1.252-0.6044,1.252h0.3886c3.4531,0,4.4893-2.5039,5.439-5.2232
		l1.1221-3.2807l-6.4751-16.5762c-0.3882-0.9932-0.604-2.1587-2.1148-2.5469v-0.5615c0.5611,0.0864,2.9351,0.1299,3.8418,0.1299
		c1.2949,0,2.9351-0.0435,3.8418-0.1299v0.5615c-0.7768,0.2588-1.8994,0.5181-1.8994,1.5537c0,0.5181,0.1728,0.9932,0.3452,1.4678
		l2.8057,7.77c0.2158,0.5615,0.9931,2.8062,1.3388,4.2305l3.3663-11.2236c0.1298-0.4746,0.5615-1.7266,0.5615-2.2876
		c0-1.0791-1.1221-1.295-1.9854-1.5108v-0.5615c0.6475,0.0864,2.46,0.1299,3.1944,0.1299c1.0791,0,2.4599-0.0435,3.1943-0.1299
		v0.5615C314.6553,258.5889,314.2666,259.7974,313.8779,260.8765z"/>
</g>
<g>
	<path fill="#FFFFFF" d="M332.4834,276.1577c-6.1729,0-6.5176-4.9643-6.5176-7.2519c0-6.648,3.7988-11.3531,8.9356-11.3531
		c6.1728,0,6.5175,4.9639,6.5175,7.252C341.4189,271.4526,337.6211,276.1577,332.4834,276.1577z M338.0957,264.5024
		c0-2.4174-0.043-5.6977-3.2373-5.6977c-4.1875,0-5.5693,6.7768-5.5693,10.2305v0.1723c0,2.4175,0.0439,5.6983,3.2382,5.6983
		c4.1866,0,5.5684-6.7774,5.5684-10.2305V264.5024z"/>
	<path fill="#FFFFFF" d="M358.5986,247.9697c-1.5976,0-1.6406-1.1655-1.6406-1.4248v-0.0429c0-0.9932,0.9063-1.4249,0.9063-1.4249
		s-0.5176-0.0859-1.0791-0.0859c-4.3604,0-5.0079,4.0142-5.5254,7.6401c-0.4746,3.4966-0.7774,5.4825-0.7774,5.4825l4.878-0.2159
		l-0.2588,1.6402l-4.7911-0.1294c0,0-0.9931,6.5615-1.6406,10.8784c-1.3379,8.9356-1.8135,11.9141-3.7558,14.4609
		c-0.9493,1.2515-2.6328,2.2447-4.7051,2.2447c-3.4961,0-3.4961-1.9424-3.4961-2.1587c0-1.4673,1.1221-1.7695,1.7695-1.7695
		c0.9932,0,1.5967,0.6044,1.5967,1.3813c0,1.0361-0.8193,1.3813-0.8193,1.3813s0.2158,0.0865,0.6904,0.0865
		c0.7334,0,2.1582-0.3023,3.0215-1.5972c1.1221-1.727,1.4248-4.835,1.8564-7.9429c0.9492-7.0361,2.3311-16.9648,2.3311-16.9648
		h-3.1514l0.1289-0.604c0.8643-0.0435,1.9863-0.2158,2.6768-0.8638c0.5615-0.5176,0.7344-1.7695,0.9062-2.935
		c0.2598-2.1153,0.6045-4.1441,1.0362-5.4825c0.8632-2.6762,2.8925-5.6977,7.7275-5.6977c2.8916,0,3.9707,1.2085,3.9707,2.2876
		C360.4541,247.7969,359.2891,247.9697,358.5986,247.9697z"/>
</g>
<g>
	<path fill="#FFFFFF" d="M391.8369,248.9189c-0.7334,0.7774-0.8633,1.6407-0.8633,5.7417v21.3677h-1.6406l-16.9648-22.1015
		c-0.3877-0.5181-0.7764-0.9932-1.0362-1.5972v17.7417v0.7334c0,1.5976,0.044,2.6767,0.5616,3.3672
		c0.4316,0.518,1.2949,0.9497,2.8496,1.209v0.561c-1.7705-0.1294-3.0225-0.1729-4.5762-0.1729s-2.2881,0-4.5322,0.1729v-0.561
		c0.5605-0.1299,2.0713-0.4751,2.6328-1.0362c0.7344-0.7773,0.8633-1.6836,0.8633-5.7846v-15.3243c0-2.0288,0-3.3671-0.6045-4.1005
		c-0.4317-0.5616-1.252-0.9932-2.8057-1.252v-0.5615c1.5537,0.1299,2.3311,0.1728,3.8848,0.1728
		c0.6914,0,1.6836-0.0429,2.331-0.1294l15.4112,20.0728c0.5605,0.6904,1.165,1.6401,1.4248,2.0718v-16.3169v-0.7339
		c0-1.5972-0.044-2.6763-0.5616-3.3672c-0.4316-0.5181-1.2949-0.9497-2.8496-1.2085v-0.5615
		c1.7705,0.1299,2.9356,0.1728,4.4903,0.1728c1.5537,0,2.7187,0,4.6181-0.1728v0.5615
		C393.9092,248.0127,392.3984,248.3579,391.8369,248.9189z"/>
	<path fill="#FFFFFF" d="M399.7773,265.0635c0,0-0.0439,0.6479-0.0439,0.9497c0,5.0073,1.9863,8.0293,7.2959,8.0293
		c1.4238,0,2.6758-0.2593,3.8848-0.7769l0.2158,0.3882c-1.2949,1.5542-3.583,2.4605-6.3887,2.4605
		c-5.3525,0-8.5469-3.3667-8.5469-9.065c0-5.6977,3.4102-9.4966,8.5039-9.4966c2.7198,0,4.7911,0.9497,5.9141,2.7193
		c0.7334,1.1225,0.9922,2.331,0.9922,4.4033v0.3882H399.7773z M407.8057,263.1211c0-3.0215-1.0362-4.3164-3.4102-4.3164
		c-2.6758,0-4.1435,1.7265-4.5322,5.3096l7.9424-0.7774V263.1211z"/>
	<path fill="#FFFFFF" d="M439.2305,261.2651l-5.5254,14.7198h-2.418l-3.7119-12.8638c-0.043-0.1724-0.3457-1.252-0.4746-1.9858
		c-0.1299,0.6909-0.3457,1.3383-0.5615,1.9858l-4.2735,12.8638h-2.417l-4.9648-15.1084c-0.3447-0.9927-0.6475-2.2876-2.0723-2.5899
		v-0.5615c0.8203,0.0864,2.8496,0.1299,3.7559,0.1299c1.2949,0,2.8926,0,3.7988-0.1299v0.5615
		c-0.5615,0.1294-1.9853,0.4746-1.9853,1.5537c0,0.5616,0.1289,0.9497,0.3017,1.5113l2.0293,6.7768
		c0.3447,1.209,0.9922,3.583,1.0791,4.1875c0.1289-0.6909,0.3447-1.3813,0.5606-2.0722l4.1445-12.4322
		c0.1289,0.0864,0.9062,0.1294,1.4248,0.1294c0.5605,0,1.3809-0.043,1.5107-0.1294l3.5821,12.044
		c0.3886,1.2949,0.4326,1.6401,0.5185,2.1147c0.5176-1.4243,3.2803-10.7051,3.2803-10.7051
		c0.2158-0.7773,0.3027-1.1225,0.3027-1.4677c0-0.9497-0.6904-1.1656-1.8994-1.5108v-0.5615
		c0.6475,0.0864,2.417,0.1299,3.1514,0.1299c1.0791,0,2.374-0.0435,3.1074-0.1299v0.5615
		C439.9209,258.6318,439.7051,260.0132,439.2305,261.2651z"/>
	<path fill="#FFFFFF" d="M477.1709,248.9189c-0.7334,0.7774-0.8633,1.6407-0.8633,5.7417v15.3672c0,2.0288,0,3.3672,0.6045,4.1011
		c0.4317,0.561,1.252,0.9927,2.8057,1.252v0.561c-1.7696-0.1294-3.7119-0.1729-5.2666-0.1729c-1.5537,0-3.4961,0-5.3955,0.1729
		v-0.561c0.6045-0.1299,2.0722-0.4751,2.6328-1.0362c0.7344-0.8203,0.8633-1.7265,0.8633-5.7846v-6.4751h-14.5899v7.9863v0.7334
		c0,1.5976,0.043,2.6767,0.5606,3.3672c0.4316,0.518,1.2959,0.9497,2.8496,1.209v0.561c-1.7705-0.1294-3.7129-0.1729-5.2666-0.1729
		c-1.5537,0-3.4961,0-5.3955,0.1729v-0.561c0.5605-0.1299,2.0713-0.4751,2.6328-1.0362c0.7334-0.7773,0.8633-1.6836,0.8633-5.7846
		v-15.3243c0-2.0288,0-3.3671-0.6045-4.1005c-0.4317-0.5616-1.252-0.9932-2.8057-1.252v-0.5615
		c1.7695,0.1299,3.7129,0.1728,5.2666,0.1728c1.5537,0,3.4961,0,5.3955-0.1728v0.5615c-0.6045,0.1294-2.0723,0.4746-2.6328,1.0356
		c-0.7344,0.8204-0.8633,1.7271-0.8633,5.7847v5.4824h14.5899v-6.9931v-0.7339c0-1.5972-0.043-2.6763-0.5606-3.3672
		c-0.4316-0.5181-1.2949-0.9497-2.8496-1.2085v-0.5615c1.7705,0.1299,3.7129,0.1728,5.2666,0.1728c1.5537,0,3.4971,0,5.3965-0.1728
		v0.5615C479.2432,248.0127,477.7324,248.3579,477.1709,248.9189z"/>
	<path fill="#FFFFFF" d="M494.4785,276.2007c-1.3808,0-2.2441-0.7769-2.2881-2.0288c-1.2949,1.4677-3.2802,2.0288-4.791,2.0288
		c-3.3672,0-5.4824-1.813-5.4824-4.6187c0-2.6333,1.6836-3.9282,3.4531-4.4463c2.1592-0.6474,5.5254-0.6474,6.6914-0.6474v-2.8062
		c0-0.9062-0.0429-1.6401-0.0869-2.2446c-0.1289-1.1655-0.8633-2.6763-3.3232-2.6763c-1.5108,0-2.1153,0.2159-2.1153,0.2159
		s0.5176,0.3452,0.5176,1.2949c0,0.9931-0.6045,1.6406-1.5967,1.6406c-1.0361,0-1.6836-0.5181-1.6836-1.5542
		c0-1.5537,2.2012-2.8491,5.7412-2.8491c4.5752,0,5.3956,2.0722,5.7413,3.4101c0.1728,0.7339,0.2158,1.9429,0.2158,2.8926v1.2085
		c0,1.0361-0.0869,6.1729-0.0869,6.3887c0,1.1225,0.0869,1.813,0.5615,2.2016c0.3457,0.3023,0.9062,0.3887,1.7695,0.3887h0.5186
		l0.1299,0.3452C496.9395,275.6396,495.7305,276.2007,494.4785,276.2007z M492.0615,267.3945
		c-1.3379,0.0865-3.8418,0.3023-5.0078,0.9068c-1.3379,0.7339-1.5537,1.9858-1.5537,2.8921c0,1.9858,1.2949,3.1943,3.4961,3.1943
		c0.9502,0,2.2021-0.2158,3.0654-0.6045V267.3945z"/>
	<path fill="#FFFFFF" d="M514.7227,260.8765l-6.2598,15.1084h-2.3311l-5.6972-15.1084c-0.4756-1.2085-0.8203-2.2876-2.1153-2.5899
		v-0.5615c0.8194,0.0864,2.8916,0.1299,3.8418,0.1299c1.252,0,2.9346,0,3.8418-0.1299v0.5615
		c-1.5547,0.4317-1.8994,0.9063-1.8994,1.5972c0,0.5181,0.2158,1.2515,0.5176,2.0718l2.374,6.7773
		c0.5615,1.5972,0.9502,2.8491,1.2959,4.187c0.086-0.2158,0.7764-2.374,1.0791-3.2803l2.6328-7.8134
		c0.2588-0.7769,0.4746-1.5542,0.4746-2.0723c0-0.9492-0.8632-1.165-1.8994-1.4673v-0.5615
		c0.6475,0.0864,2.374,0.1299,3.1084,0.1299c1.0791,0,2.4171-0.0435,3.1514-0.1299v0.5615
		C515.543,258.5889,515.2832,259.5381,514.7227,260.8765z"/>
	<path fill="#FFFFFF" d="M521.1963,265.0635c0,0-0.044,0.6479-0.044,0.9497c0,5.0073,1.9864,8.0293,7.2959,8.0293
		c1.4239,0,2.6758-0.2593,3.8848-0.7769l0.2158,0.3882c-1.2949,1.5542-3.583,2.4605-6.3886,2.4605
		c-5.3525,0-8.5469-3.3667-8.5469-9.065c0-5.6977,3.4101-9.4966,8.5039-9.4966c2.7197,0,4.791,0.9497,5.9141,2.7193
		c0.7333,1.1225,0.9921,2.331,0.9921,4.4033v0.3882H521.1963z M529.2246,263.1211c0-3.0215-1.0361-4.3164-3.4101-4.3164
		c-2.6758,0-4.1436,1.7265-4.5323,5.3096l7.9424-0.7774V263.1211z"/>
	<path fill="#FFFFFF" d="M551.8428,275.769c-0.8633,0-2.7627,0.0435-4.5762,0.1294v-0.561
		c0.8203-0.1294,1.4248-0.3887,1.8135-0.7339c0.7763-0.7768,0.8633-2.1582,0.9062-4.2305c0.043-0.9497,0.043-2.5034,0.043-4.1005
		c0-1.9859-0.0859-2.5039-0.1729-3.1079c-0.3447-2.6334-2.0712-3.7559-4.5322-3.7559c-1.4678,0-2.5898,0.1728-3.6689,0.8203v9.7559
		c0,3.5825,0.2158,3.6689,0.4316,4.1005c0.3447,0.7339,1.6396,1.0796,2.3311,1.252v0.561
		c-1.5109-0.0859-3.1514-0.1294-4.7921-0.1294c-0.8633,0-2.8487,0.0435-4.5322,0.1294v-0.561
		c1.2089-0.2158,1.9423-0.561,2.4169-1.1221c0.6905-0.7773,0.7774-2.1152,0.7774-6.6479v-3.6695v-1.0791
		c0-2.2446-0.1729-3.7124-3.1084-4.187v-0.4316c1.2949-0.0435,2.9355-0.1729,4.4463-0.3887
		c0.6045-0.0864,1.2949-0.3022,1.8135-0.561l0.2587,0.1728l-0.1298,2.3741c1.6406-1.6836,3.7558-2.3741,5.8281-2.3741
		c2.9355,0,4.9639,1.2515,5.6982,3.8848c0.1719,0.6909,0.3018,2.1582,0.3018,3.1943v5.5254c0,2.8921,0.0859,3.4102,0.5176,4.0147
		c0.5185,0.7339,1.5117,1.0361,2.8925,1.2949v0.561C555.6416,275.8125,553.4824,275.769,551.8428,275.769z"/>
</g>
<line fill="none" stroke="#FFFFFF" stroke-width="0.732" x1="130.5425" y1="275.8682" x2="130.5425" y2="247.251"/>
<g>
	<path fill="#FFFFFF" d="M87.954,255.4388c0.1873,0,0.3185-0.0238,0.386-0.0406c0.0101,0.0018,0.0191,0.0043,0.0269,0.0066
		c-0.055,0.0751-0.1939,0.198-0.3311,0.2881c-0.213,0.1462-0.4254,0.2208-0.6318,0.2208c-0.7315,0-1.2385-0.9157-1.2499-0.9366
		c-0.1974-0.309-0.1139-0.59-0.1109-0.6007l0.0078-0.0323c0.0054-0.0381,0.0106-0.0691,0.0166-0.0942
		c0.0209,0.0286,0.0418,0.0621,0.0579,0.0931l0.0197,0.0304c0.6264,0.7808,1.1638,0.9789,1.2068,0.9927
		C87.5614,255.4143,87.7642,255.4388,87.954,255.4388z M88.526,252.1888c-0.3084,0.4754-1.1817,0.936-1.1907,0.9408l-0.0257,0.0155
		c-0.2469,0.185-0.3657,0.2213-0.4086,0.2279c-0.0209-0.0913,0.0286-0.3508,0.1139-0.5739
		c0.3663-1.0881,0.8232-1.1776,0.8215-1.1776l0.0346-0.0065c0.1521-0.0442,0.2827-0.0668,0.3896-0.0668
		c0.1938,0,0.2457,0.0727,0.2624,0.0966C88.6233,251.7855,88.5624,252.0736,88.526,252.1888z M84.8566,251.5839
		c0.0484-0.1187,0.1957-0.1617,0.1963-0.1622l0.0363-0.0167c0.3908-0.2607,0.6986-0.6974,0.7028-0.7052
		c0.3282-0.3752,0.5078-0.6467,0.5817-0.7677c0.6049,0.0024,5.1059-0.1068,5.1668-0.108c0.2828,0,0.4797,0.0699,0.5835,0.2071
		c0.1497,0.1981,0.071,0.4868,0.0704,0.4892l-0.0048,0.025c-0.133,1.7246-1.5141,2.332-1.588,2.3647
		c-0.4463,0.2673-1.2116,0.3007-1.2409,0.3036c-0.1633,0.0347-0.2649,0.0108-0.2678,0.0108
		c-0.0012-0.0029-0.0012-0.0083-0.0006-0.0149c0.3526-0.1288,0.6342-0.9772,0.7469-1.3679c0.0657-0.3371,0.0066-0.633-0.1753-0.8799
		c-0.4009-0.5441-1.26-0.6425-1.2963-0.6461l-0.0173-0.0018l-0.0173,0.0024c-1.4962,0.2577-2.0975,1.2706-2.1321,1.335
		c-0.2703,0.7803-0.9395,1.5475-0.9461,1.5547l-0.0178,0.0269c-0.0842,0.1682-0.1475,0.2649-0.1903,0.3197
		c0.1115-0.93-0.1026-1.5756-0.1211-1.625C84.8447,251.7861,84.8214,251.671,84.8566,251.5839z M82.5772,253.8573
		c0.1194,0,0.2046,0.0024,0.2523,0.0035c0.1659,0.2536,0.2189,0.5268,0.1581,0.8132c-0.1962,0.9276-1.4991,1.7198-1.5123,1.7275
		c-0.6627,0.4021-1.7461,0.5285-1.7538,0.5298c-0.4194,0.034-0.6204,0.1163-0.6514,0.2673c-0.037,0.1795,0.21,0.321,0.2601,0.3477
		l0.0304,0.0144l0.0316-0.0054c0.0107-0.0018,0.0679-0.0078,0.38-0.0078c0.3985,0,0.9449,0.0095,0.9449,0.0083
		c0.102,0.0155,0.1444,0.0436,0.1498,0.0633c0.0167,0.0662-0.1324,0.2416-0.2768,0.3543l-0.028,0.0347
		c-0.1283,0.2779,0.0662,0.4748,0.1796,0.5351c0.0954,0.0638,0.1437,0.1275,0.1426,0.1896
		c-0.0018,0.0912-0.1074,0.1844-0.1629,0.2237c-0.312,0.0186-0.5787,0.0382-0.8246,0.0561
		c-0.4903,0.0358-0.8781,0.0645-1.3625,0.0645c-0.3125,0-0.6502-0.0126-1.032-0.0383c-0.1289-0.0083-0.2148-0.0387-0.2309-0.0811
		c-0.022-0.0579,0.0519-0.1778,0.1223-0.257c0.5376-0.0525,1.4413-0.0609,1.9394-0.0609c0.1916,0,0.3383,0.0011,0.4099,0.0017
		l0.0017,0.0024h0.0424l0.0465-0.012l0.0489-0.0615c0.055-0.0782,0.182-0.2595,0.1051-0.4307
		c-0.0484-0.1092-0.1622-0.179-0.3472-0.2142l-0.0847-0.0132c-0.0012,0-0.0024,0-0.0037,0c0,0-0.0549,0.0037-0.0966,0.0037
		c-0.334,0-1.4663-0.0251-1.4794-0.0251c-0.2578,0-0.3741-0.0209-0.4254-0.0364c0.0358-0.0281,0.0979-0.0645,0.1593-0.0919
		c0.4259-0.0627,0.6527-0.1825,0.692-0.3663c0.0542-0.2487-0.275-0.4683-0.3125-0.4927l-0.0246-0.0114
		c-2.0133-0.5876-1.9847-2.0718-1.9477-2.4268c0.2976-0.0132,1.0177-0.0788,1.0374-0.0817c0.1921,0.0155,0.324-0.0364,0.4105-0.1498
		c0.099-0.13,0.0984-0.3067,0.0841-0.4205c1.7116-0.1111,3.4612-0.2369,3.7869-0.2607c0.1593,0.2308,0.1968,0.2875,0.1974,0.2887
		l0.0298,0.0447l0.0538-0.0029C82.1023,253.8621,82.3976,253.8573,82.5772,253.8573z M77.7003,246.4165
		c0.2481-0.2899,0.6138-0.4492,1.0297-0.4492c0.099,0,0.2016,0.0089,0.3048,0.0263c0.7767,0.1337,0.9861,0.7558,1.2265,1.4771
		c-0.0018,0.7129-0.3114,1.131-0.9467,1.2795c-0.2434,0.0567-0.4725,0.0859-0.6801,0.0859l0,0c-0.501,0-1.1251-0.1735-1.2539-0.9991
		C77.291,247.266,77.405,246.7619,77.7003,246.4165z M76.9307,252.3326c0.3114-0.9629,0.7063-1.7802,0.7618-1.893
		c0.3348-0.5016,0.7505-0.7564,1.2343-0.7564c0.4122,0,0.7326,0.1867,0.735,0.1885l0.0369,0.0178
		c1.3208,0.5287,2.1984,1.7188,2.2073,1.7306l0.025,0.0299c0.3568,0.3568,0.3299,0.5083,0.3257,0.5244
		c-0.012,0.0453-0.0865,0.0805-0.1152,0.0888l-0.0255,0.0078c-0.8883,0.3257-3.336,0.3603-3.3736,0.3609
		c-0.544,0.034-0.9789,0.0513-1.2927,0.0513c-0.2732,0-0.5703,0.0065-0.5906,0.0065h-0.0012
		C76.8478,252.6225,76.8777,252.4661,76.9307,252.3326z M67.8166,250.6902c0,0-0.0347-0.0029-0.0788-0.0274L67.8166,250.6902z
		 M64.4699,247.3578c0.0567-0.121,0.2613-0.1593,0.4236-0.17l0.0406-0.0096c0.0095-0.0041,0.2308-0.0995,0.609-0.3203l0.0316-0.0269
		c0.0012-0.0011,0.1128-0.1258,0.2738-0.1258c0.1247,0,0.2535,0.0745,0.3884,0.2272c0.0114,0.0114,0.3197,0.3162,0.9902,0.2566
		c0.096,0.0209,0.324,0.096,0.3729,0.2332c0.0412,0.1163-0.0579,0.2673-0.1486,0.3729l-0.0203,0.0238l-0.0071,0.0298
		c-0.1754,0.7696-0.2243,1.022-0.2226,1.1228c-0.0327,0.3806-0.0375,0.7684-0.0626,0.9437v0.0949l-0.0054,0.1163
		c0.0507,0.084,0.0662,0.2446,0.034,0.3019c-0.0352,0.0608-0.2566,0.0524-0.5542-0.0412l-0.0209-0.0066l-0.0215,0.0012
		c-0.3072,0.0119-0.8423,0.0477-0.9676,0.1426c-0.0011,0.0012-0.1449,0.0847-0.3001,0.0847c-0.1664,0-0.2821-0.099-0.3526-0.3024
		c-0.0214-0.6241-0.0375-1.0053-0.0764-1.3387c-0.0238-0.1181-0.0984-0.4737-0.2749-1.1538l-0.0204-0.0429
		C64.5313,247.7062,64.4084,247.4897,64.4699,247.3578z M75.2276,256.098c-0.0203,0.0352-0.1175,0.077-0.3257,0.077
		c-0.1903,0-0.3764-0.0346-0.3824-0.0358c-1.3434-0.2088-2.0176-0.9241-2.0247-0.9312l-0.2148-0.1467
		c-1.7205-1.1383-1.7533-1.1598-3.191-1.909c-0.7027-0.4475-3.0783-0.8167-3.2029-0.8341
		c-0.8687,0.0323-1.2367,0.2607-1.2433,0.2649c-0.5381,0.2828-0.6049,0.1748-0.6144,0.1599
		c-0.0507-0.0811,0.0166-0.3222,0.0882-0.4772c0.8233-0.8275,2.3052-0.9515,3.1183-0.9515c0.4193,0,0.7051,0.0321,0.7069,0.0327
		c2.209,0.2756,5.3177,1.6662,5.3493,1.6805c1.4014,0.6264,1.8088,1.6423,1.8117,1.6507c0.1194,0.3227,0.0811,0.3872,0.0811,0.3872
		s-0.1074,0.0054-0.2684-0.0484c-0.5513-0.1837-0.9324-0.7576-0.9366-0.7636l-0.018-0.0273l-0.0286-0.0149
		c-0.1736-0.0914-0.3156-0.1355-0.4343-0.1355c-0.1341,0-0.2136,0.0585-0.2564,0.1068c-0.1068,0.1211-0.0889,0.2924-0.0865,0.312
		l0.0137,0.0429c0.2481,0.4641,1.2629,1.0386,1.4365,1.1342c0.1563,0.1908,0.4611,0.2702,0.5972,0.2976
		C75.2353,256.0366,75.2378,256.0789,75.2276,256.098z M73.5937,252.2652c-0.1026,0.037-0.4594,0.1568-0.7195,0.1568
		c-0.3084,0-0.4349-0.1653-0.4826-0.2636c-0.0896-0.1838-0.0478-0.3866,0.1229-0.6043l0.0304-0.0388l0.0393-0.0298
		c0.5053-0.3789,0.9688-0.7063,1.4175-1.0237c0.4444-0.3138,0.9037-0.6384,1.4006-1.0111l0.0525-0.0395l0.0621-0.0191
		c0.0263-0.0077,0.1635-0.0476,0.3144-0.0476c0.3979,0,0.5792,0.2755,0.5792,0.5321v0.1039l-0.0536,0.0894
		C75.7531,251.0761,74.7974,251.835,73.5937,252.2652z M74.2606,259.6129c1.0362-0.0005,9.3606-0.093,9.4405-0.0942
		c0.3907,0.0507,0.4946,0.1486,0.5125,0.2213c0.0268,0.1104-0.1223,0.2441-0.182,0.2858l-0.0495,0.0341l0.0167,0.0065
		c-0.1467,0.0269-0.6503,0.0645-2.2115,0.0902l-5.0582,0.028c-1.427-0.0012-2.5384-0.0071-2.6564-0.0077
		c-0.0645-0.0496-0.0955-0.1044-0.0949-0.1689C73.979,259.8324,74.2141,259.6476,74.2606,259.6129z M72.7161,282.0155
		c0.8226,1.2557,1.5558,2.3695,2.1947,3.3348c3.2297,4.8816,3.2679,4.8816,3.6282,4.8816h0.269l0.1486-0.2243
		c1.4055-2.1167,3.2566-4.9062,5.2617-7.9283l-1.1855-0.0257c-1.6351,2.4644-3.191,4.8089-4.532,6.8289
		c-0.7315-1.0249-2.4226-3.5674-4.6049-6.8951L72.7161,282.0155z M65.9534,269.7777c-2.0808-3.2161-4.1609-6.4411-6.0258-9.3404
		c9.471,0.1015,32.4575,0.1134,37.3493,0.1146c-0.9068,1.3799-2.9816,4.5154-5.536,8.3703l0.0155,1.7908
		c3.8066-5.7443,6.833-10.3205,6.892-10.438l0.3621-0.7247h-0.8101c-0.1289,0-5.8284,0-13.0061-0.0114
		c0.0221-0.3388,0.0017-0.7206-0.1742-0.865c0,0-0.1879-0.3133-0.5536-0.167c0,0-0.1963,0.0035-0.6992,0
		c-0.3555-0.0024-0.8644-0.0085-1.5653-0.0209c0,0-0.1564-0.877,0.1879-1.5654c0,0,0.8453,0.1254,2.4106-1.3774
		c0,0,0.0627-0.3448,0.5846-0.5012c0,0,0.3342,1.2522,1.6698,1.461c0,0,2.7967,0.4176,2.3379-1.7114c0,0-1.545,0.4175-1.6704-0.1671
		c0,0-0.083-0.4593,0.877-0.918c0,0,1.628-0.167,2.1285-0.3342c0,0,2.2962-0.4593,2.2962-3.59c0,0-0.0836-1.0017-0.6258-0.7929
		c0,0-4.3417,0.1253-5.4687,0.0836c0,0-0.9181-0.1254-1.294,0.7093c0,0-0.2088,0.9604-1.294,0.5011c0,0-0.4176-0.0835-1.795-0.8346
		c0,0-1.294-0.7098-2.0038-1.0022c0,0,0.9604-2.9637-1.8786-3.0472c0,0-2.2539,0.1252-1.7533,2.9636c0,0-2.212,0.7934-3.1719,1.7115
		c0,0-2.2126,1.7533-3.4648,1.1269c0,0-1.7461-0.3741-2.5414-0.5411c-0.0836-0.0489-0.198-0.1772-0.198-0.5178
		c0,0-0.0943-0.7201,0.2345-1.8314c0,0,0.1252-0.6104,0.4695-1.1586c0,0,0.047-0.3597,0-0.454c0,0,0.0315-0.0625-0.407-0.0311
		c0,0-1.0016,0.4224-1.8159-0.4539c0,0-0.1563-0.3449-0.4224-0.0161c0,0-0.7045,0.955-1.3935,0.7671
		c0,0-0.1062-0.0471-0.2918-0.1461c0,0-0.501-0.0418-0.3758,0.2506c0,0,0.0418,0.2296,0.417,1.085c0,0,0.3346,0.3967,0.3555,2.3797
		c0,0,0.1456,0.6675-0.0209,0.9181c0,0-1.1686,0.856-1.044,1.6489c0,0,0.3133,0.4385,0.9814,0c0,0,1.4819-0.5632,2.8903-0.2189
		c0,0,1.8786,0.6889,3.0991,1.5963c0,0,1.378,0.7827,2.2544,1.409c0,0,1.4717,1.0016,3.1624,1.4086c0,0,0.2506,0.2194,0.1563,0.47
		c0,0,0.4068,1.127-0.4694,0.9391c0,0-2.1291-0.1879-2.317,0.3758c0,0-0.0329,0.1903-0.0436,0.4301
		c-5.5855-0.0185-10.7791-0.046-13.9439-0.0859l-0.9318-0.0112l0.5036,0.7833c0.0406,0.0632,3.5065,5.453,7.4789,11.5893
		L65.9534,269.7777z"/>
	<circle fill="none" stroke="#FFFFFF" stroke-width="0.6662" cx="78.539" cy="264.5596" r="37.039"/>
	<g>
		<path fill="#FFFFFF" d="M49.8774,277.9535c0.5757-0.312,1.1699-0.6437,1.8369-0.4391c0.6502,0.1933,1.1179,0.7439,1.4293,1.3196
			c0.2995,0.5524,0.5602,1.2348,0.4205,1.8571c-0.1699,0.7665-0.7636,1.1185-1.4084,1.468l-3.1845,1.7253l-0.7235-1.3351
			l3.185-1.7258c0.2452-0.1331,0.6026-0.3168,0.7505-0.556c0.189-0.3108,0.087-0.6819-0.0753-0.9813
			c-0.1324-0.2458-0.405-0.5649-0.6955-0.6061c-0.3293-0.0399-0.6849,0.1825-0.961,0.3323l-3.1851,1.7259l-0.5739-1.0595
			L49.8774,277.9535z"/>
		<path fill="#FFFFFF" d="M50.1131,271.0119l0.3317,1.1489l-3.2298,3.3204l0.0097,0.0335l3.8656-1.115l0.3001,1.0397l-5.752,1.6596
			l-0.4182-1.4508l2.8247-2.8951l-0.0048-0.0167l-3.3789,0.9748l-0.3001-1.0398L50.1131,271.0119z"/>
		<path fill="#FFFFFF" d="M49.7176,267.7112l0.1521,1.3882l-5.9513,0.6526l-0.1521-1.3883L49.7176,267.7112z"/>
		<path fill="#FFFFFF" d="M49.6961,262.876l-0.0793,1.5069l-6.0719,1.4808l0.0782-1.4903l4.3328-0.9778l-4.2045-1.4621
			l0.0621-1.1764L49.6961,262.876z"/>
		<path fill="#FFFFFF" d="M45.6921,257.3771l1.1746,0.3007l0.5625-2.1978l1.0905,0.2792l-0.5625,2.1978l1.2849,0.3286l0.7141-2.7895
			l1.1245,0.2876l-1.0601,4.1418l-5.799-1.4837l1.06-4.1419l1.1239,0.2876L45.6921,257.3771z"/>
		<path fill="#FFFFFF" d="M52.1504,253.2894l-0.6156,1.2533l-5.3744-2.6397l1.1119-2.2645
			c0.2351-0.4778,0.4815-0.9593,0.9515-1.2439c0.5053-0.2965,1.1495-0.2816,1.6745-0.0238c0.6109,0.3001,1.0022,0.93,0.9289,1.6137
			l2.8629,0.1711l-0.6855,1.3942l-2.5269-0.2201l-0.4505,0.9168L52.1504,253.2894z M49.1026,251.7921l0.3388-0.6891
			c0.1271-0.2583,0.2887-0.5291,0.2673-0.822c-0.025-0.2649-0.222-0.4982-0.4571-0.6133c-0.2111-0.1039-0.4998-0.09-0.6985,0.0364
			c-0.2369,0.1455-0.3824,0.5213-0.4982,0.7564l-0.3233,0.6586L49.1026,251.7921z"/>
		<path fill="#FFFFFF" d="M52.9431,244.0279c-0.5058-0.1742-0.8632-0.0436-1.1913,0.3758c-0.2308,0.2959-0.4348,0.7123-0.071,0.9975
			c0.3443,0.269,0.7493-0.0793,1.007-0.3096c0.3836-0.3203,0.8836-0.7612,1.3614-0.9188c0.5554-0.1861,1.1299-0.1132,1.5976,0.2518
			c0.4606,0.3603,0.729,0.9246,0.7255,1.5098c0,0.6092-0.3139,1.195-0.6849,1.6693c-0.6938,0.887-1.7079,1.3899-2.7955,0.8822
			l0.562-1.2003c0.6026,0.25,1.0535,0.0269,1.4353-0.4611c0.2475-0.3168,0.4588-0.8275,0.0668-1.1341
			c-0.3919-0.306-0.8865,0.1707-1.1746,0.4116c-0.8275,0.704-1.7205,1.3357-2.752,0.5286
			c-0.4402-0.3437-0.6908-0.8167-0.7087-1.3745c-0.0203-0.5692,0.2011-1.05,0.5393-1.4831
			c0.6456-0.8257,1.4616-1.2731,2.5056-0.9223L52.9431,244.0279z"/>
		<path fill="#FFFFFF" d="M59.4159,243.4909l-1.0272,0.9456l-4.0555-4.4044l1.0272-0.9455L59.4159,243.4909z"/>
		<path fill="#FFFFFF" d="M61.6326,235.9415l-1.2485,0.8329l2.6629,3.9933l-1.162,0.775l-2.663-3.9933l-1.2635,0.8423l-0.658-0.9873
			l3.6737-2.4501L61.6326,235.9415z"/>
		<path fill="#FFFFFF" d="M67.0613,235.9189l0.9712,2.3283l-1.2892,0.5376l-0.9706-2.3284l-3.0819-2.4691l1.498-0.6246l1.9406,1.659
			l0.1706-2.5395l1.1598-0.4838L67.0613,235.9189z"/>
		<path fill="#FFFFFF" d="M74.7366,235.6217c-0.4725-0.5929-0.7098-1.3571-0.7547-2.1064c-0.0936-1.5862,0.6115-3.114,2.3803-3.2191
			c0.7928-0.047,1.4359,0.1773,1.9537,0.8024c0.4617,0.5583,0.729,1.3911,0.7719,2.1141c0.0406,0.6795-0.0936,1.5182-0.4433,2.1071
			c-0.4217,0.7075-1.1078,1.0803-1.9179,1.1281C75.916,236.4963,75.2461,236.256,74.7366,235.6217z M75.5635,232.1713
			c-0.1181,0.3651-0.1396,0.8829-0.1175,1.2575c0.0447,0.7493,0.2285,1.9365,1.2128,1.878
			c0.4795-0.0286,0.7266-0.2792,0.8572-0.7332c0.1181-0.374,0.1318-0.8733,0.1092-1.2652
			c-0.0263-0.4356-0.1003-0.9474-0.2984-1.3376c-0.198-0.3907-0.4617-0.559-0.8971-0.5333
			C75.9507,231.4662,75.7036,231.7257,75.5635,232.1713z"/>
		<path fill="#FFFFFF" d="M82.7657,231.7489l-0.1885,1.3488l2.2568,0.3156l-0.1564,1.1149l-2.2561-0.3156l-0.3234,2.317
			l-1.3828-0.1933l0.828-5.9297l4.2188,0.5888l-0.161,1.1495L82.7657,231.7489z"/>
		<path fill="#FFFFFF" d="M93.5162,240.4229l-1.0672-0.5399l-0.2321-4.6263l-0.031-0.0161l-1.8165,3.5907l-0.9658-0.4886
			l2.703-5.3434l1.3476,0.6819l0.1957,4.0412l0.0155,0.0077l1.588-3.1384l0.9658,0.4886L93.5162,240.4229z"/>
		<path fill="#FFFFFF" d="M99.0046,238.4483l-0.7564,0.948l1.7735,1.415l-0.7015,0.8799l-1.7742-1.415l-0.8268,1.0368l2.2508,1.7962
			l-0.7236,0.9074l-3.3425-2.6666l3.7332-4.68l3.3426,2.6667l-0.7236,0.9073L99.0046,238.4483z"/>
		<path fill="#FFFFFF" d="M102.6394,249.1994l-0.8513-1.0845l2.5128-3.2154l-0.0107-0.0138l-3.6981,1.7051l-0.8406-1.0709
			l3.7548-4.9108l0.8834,1.1251l-2.6051,3.2106l0.0114,0.0131l3.769-1.7276l0.7977,1.0165l-2.5521,3.2787l0.0107,0.0137
			l0.2386-0.1205l3.5036-1.6418l0.7117,0.9062L102.6394,249.1994z"/>
		<path fill="#FFFFFF" d="M106.7777,258.9997l-0.4039-1.3368l2.3642-0.7141l-0.5345-1.7712l-2.3642,0.714l-0.4038-1.3368
			l5.7317-1.73l0.4033,1.3368l-2.239,0.6754l0.5345,1.7718l2.239-0.6766l0.4038,1.337L106.7777,258.9997z"/>
		<path fill="#FFFFFF" d="M107.4662,265.4782l-0.1217-1.5045l1.1967-0.4648l-0.1558-1.9311l-1.2569-0.275l-0.099-1.2265
			l6.1212,1.4312l0.1306,1.6178L107.4662,265.4782z M109.6113,263.0986l2.0451-0.8047l-2.1476-0.4654L109.6113,263.0986z"/>
		<path fill="#FFFFFF" d="M107.1171,268.9156l0.1539-1.5021l6.1398-1.1776l-0.1521,1.4849l-4.3775,0.7618l4.1282,1.6691
			l-0.1205,1.1723L107.1171,268.9156z"/>
		<path fill="#FFFFFF" d="M110.8409,274.6008l-1.1586-0.3591l-0.6717,2.1679l-1.0755-0.3335l0.6717-2.1673l-1.266-0.3925
			l-0.853,2.7502l-1.109-0.3436l1.2658-4.084l5.718,1.7724l-1.2659,4.0845l-1.1085-0.3442L110.8409,274.6008z"/>
		<path fill="#FFFFFF" d="M102.6394,281.1414l0.5798-1.0451l4.6323-0.0555l0.0167-0.0304l-3.5179-1.952l0.5244-0.9461l5.2359,2.9046
			l-0.7326,1.3202l-4.0458,0.0412l-0.0083,0.0149l3.0764,1.7068l-0.5256,0.9467L102.6394,281.1414z"/>
	</g>
	<path fill="none" stroke="#FFFFFF" stroke-width="0.6399" stroke-linecap="round" d="M65.8915,282.2148
		c0.8602,0,11.1764-0.0865,11.1764-0.0865c1.0315,1.131,1.4616,1.4788,1.4616,1.4788c0.0853,0.1748,1.3757-1.3053,1.3757-1.3053
		c3.5244,0,12.0361-0.1735,12.0361-0.1735c0,0.0865,0-17.926,0-17.926c-0.0865-0.0871,1.977-1.7401,1.977-1.7401
		c-3.8693-0.1742-28.0268,0-28.0268,0c-2.0629-0.0871-2.0629,0.0871-2.0629,0.0871c1.6334,1.5659,2.0629,1.653,2.0629,1.653
		C65.8915,264.2894,65.8915,282.2148,65.8915,282.2148z"/>
	<g>
		<g>
			<path fill="#FFFFFF" d="M58.8681,293.3076c-0.3096,0-0.615-0.102-0.9073-0.3024c-1.0268-0.7034-0.8364-1.9669-0.1922-2.9064
				c0.4797-0.6998,1.1276-1.1013,1.7772-1.1013c0.3418,0,0.6748,0.1092,0.9903,0.3257c0.6771,0.4642,0.8685,1.2206,0.5255,2.0743
				l-0.0483,0.1205l-0.6765-0.3l0.0375-0.1086c0.2059-0.5977,0.132-0.9778-0.2397-1.2331
				c-0.1522-0.1043-0.3126-0.1575-0.4767-0.1575c-0.5941,0-1.1001,0.6706-1.2408,0.8757c-0.2059,0.3007-0.3561,0.6396-0.4021,0.9068
				c-0.0329,0.1922-0.0668,0.6669,0.3323,0.9407c0.3943,0.2698,0.8238,0.1891,1.2921-0.2296l0.0907-0.0818l0.5012,0.5315
				l-0.0962,0.0859C59.7189,293.1191,59.2929,293.3076,58.8681,293.3076z"/>
		</g>
		<g>
			<path fill="#FFFFFF" d="M62.796,295.6032c-0.2481,0-0.4958-0.0609-0.7344-0.1807c-0.5238-0.2631-0.8447-0.7003-0.9283-1.2635
				c-0.0704-0.4754,0.0341-1.0219,0.2936-1.5379c0.3418-0.6788,1.0177-1.4043,1.891-1.4043c0.2547,0,0.5101,0.0633,0.7582,0.1885
				c1.1174,0.562,1.1137,1.8368,0.6384,2.7824C64.3852,294.8408,63.686,295.6032,62.796,295.6032z M63.3818,291.9153
				c-0.6622,0-1.1251,0.8167-1.2505,1.0666c-0.1741,0.3455-0.2666,0.7225-0.2547,1.0345c0.0149,0.3801,0.1784,0.6514,0.4869,0.8066
				c0.1246,0.0626,0.2511,0.0942,0.377,0.0942c0.5315,0,1.0076-0.5703,1.2533-1.0583c0.1891-0.377,0.2858-0.7504,0.2715-1.0523
				c-0.0197-0.358-0.1939-0.6454-0.4772-0.7886C63.6525,291.9499,63.5159,291.9153,63.3818,291.9153z"/>
		</g>
		<g>
			<path fill="#FFFFFF" d="M68.2103,297.8123l-0.6645-0.2256l-0.7517-3.6944l-1.0475,3.0829l-0.6467-0.2195l1.4073-4.1412
				l0.8011,0.272l0.6909,3.4248l0.9718-2.8593l0.6467,0.2196L68.2103,297.8123z"/>
		</g>
		<g>
			<path fill="#FFFFFF" d="M73.0591,298.8533l-0.6897-0.1312l-1.2582-3.5549l-0.609,3.1994l-0.6705-0.1277l0.8172-4.2964
				l0.8316,0.1581l1.1603,3.2953l0.5649-2.9673l0.6711,0.1283L73.0591,298.8533z"/>
		</g>
		<g>
			<path fill="#FFFFFF" d="M77.624,299.2142l-2.9136-0.1765l0.2638-4.3657l2.8539,0.1725l-0.0418,0.6937l-2.088-0.1259
				l-0.0638,1.0583l1.656,0.0997l-0.0406,0.6639l-1.6553-0.1002l-0.0764,1.2563l2.1482,0.13L77.624,299.2142z"/>
		</g>
		<g>
			<path fill="#FFFFFF" d="M80.4081,299.1695c-1.1657,0-1.7557-1.0929-1.8231-2.1763c-0.0632-1.0153,0.3448-2.231,1.7037-2.3158
				c0.8287-0.0483,1.4384,0.4331,1.6925,1.3119l0.0358,0.1246l-0.7177,0.1802l-0.0376-0.1092
				c-0.207-0.6013-0.495-0.8549-0.9484-0.8245c-0.936,0.0586-0.9343,1.2582-0.9116,1.6245c0.0226,0.364,0.1128,0.723,0.2415,0.9616
				c0.1933,0.3609,0.4999,0.5554,0.8406,0.5376c0.4784-0.0299,0.7654-0.3491,0.8776-0.9767l0.0215-0.1205l0.7224,0.1109
				l-0.0227,0.1264c-0.1736,0.9558-0.7111,1.4891-1.5558,1.5416C80.4863,299.1682,80.4468,299.1695,80.4081,299.1695z"/>
		</g>
		<g>
			<path fill="#FFFFFF" d="M84.3018,298.6629l-0.6604-3.6121l-1.1532,0.2106l-0.1264-0.6897l3.061-0.5602l0.1264,0.6903
				l-1.1531,0.2105l0.661,3.6122L84.3018,298.6629z"/>
		</g>
		<g>
			<path fill="#FFFFFF" d="M87.222,298.0336l-1.1454-4.2213l0.7403-0.201l1.146,4.2213L87.222,298.0336z"/>
		</g>
		<g>
			<path fill="#FFFFFF" d="M90.3199,297.0314c-0.948,0-1.6131-0.8733-1.8953-1.6203c-0.2076-0.5506-0.2523-1.1078-0.1264-1.569
				c0.1473-0.5399,0.5184-0.9366,1.0744-1.1454c0.7618-0.2869,1.5081-0.0011,2.0033,0.7565l0.071,0.1086l-0.6336,0.3823
				l-0.0674-0.0923c-0.377-0.5173-0.7241-0.67-1.1489-0.5095c-0.9008,0.3394-0.4867,1.5761-0.3944,1.82
				c0.1289,0.3419,0.321,0.6593,0.5137,0.8495c0.2064,0.204,0.451,0.3162,0.6889,0.3162l0,0c0.0925,0,0.1837-0.0167,0.2727-0.0501
				c0.4486-0.1688,0.6287-0.5589,0.5517-1.1919l-0.0149-0.1211l0.723-0.1062l0.0155,0.1277
				c0.1157,0.9646-0.2421,1.6321-1.0345,1.9304C90.7184,296.9926,90.5167,297.0314,90.3199,297.0314z"/>
		</g>
		<g>
			<path fill="#FFFFFF" d="M94.3276,295.2178c-0.139,0-0.2733-0.0232-0.3985-0.0692c-0.4641-0.1689-0.6955-0.5417-0.9109-0.942
				l-1.2952-2.4071l0.6754-0.364l1.2957,2.4077c0.0943,0.1761,0.2535,0.4714,0.4629,0.5775
				c0.1819,0.0942,0.4582,0.0543,0.7379-0.0966c0.2411-0.1295,0.4087-0.3257,0.4486-0.5238
				c0.0542-0.2566-0.0757-0.4999-0.2022-0.735l-1.2958-2.4077l0.602-0.3239l1.2952,2.4071
				c0.2004,0.3734,0.3723,0.7469,0.2767,1.2116c-0.1085,0.5291-0.5095,0.8435-0.8255,1.0142
				C94.883,295.1338,94.5919,295.2178,94.3276,295.2178z"/>
		</g>
		<g>
			<path fill="#FFFFFF" d="M98.5148,292.8674l-2.1153-3.0007l-0.9581,0.6754l-0.4039-0.5728l2.5426-1.7927l0.4038,0.5728
				l-0.9574,0.6747l2.1153,3.0008L98.5148,292.8674z"/>
		</g>
	</g>
	<path fill="none" stroke="#000000" stroke-width="0.1538" d="M79.1028,266.5634"/>
	<path fill="none" stroke="#000000" stroke-width="0.1538" d="M88.7455,279.0237"/>
	<path fill="none" stroke="#000000" stroke-width="0.1538" d="M97.0729,285.2851"/>
	<path fill="#FFFFFF" d="M68.3015,271.4391c-0.1312-1.3936-0.1509-2.9398-0.0834-4.2701c0,0,0.0029-0.3239,0.016-0.4855
		c0.0155-0.1993,0.0478-0.4057-0.0429-0.5148c-0.0418-0.0496-0.1062-0.0746-0.1921-0.0746c-0.2744,0-0.8853,0.4981-1.0684,0.7427
		l-0.0066,0.0085v0.0101c0,0.2481-0.0478,0.5226-0.0931,0.788c-0.0465,0.2678-0.0948,0.5453-0.0948,0.7988
		c0,0.1337-0.0167,0.2887-0.0346,0.4534c-0.0496,0.4563-0.1057,0.9736,0.1437,1.3786l0.0066,0.0107l0.012,0.0029
		c0.2082,0.0544,0.3591,0.0281,0.4509-0.0768c0.1581-0.1802,0.1092-0.5453,0.0662-0.868c-0.0257-0.1927-0.0525-0.3925-0.0072-0.4439
		c0.0155-0.0178,0.043-0.0615,0.0877-0.0393l0.0364,0.0203c0.043,0,0.0525,0.043,0.0728,0.0674
		c0.0685,0.0828,0.0274,0.3071-0.0167,0.544c-0.0776,0.4218-0.1742,0.9455,0.2494,1.1024c0.031,0.2547,0.0376,0.5584,0.0441,0.8788
		c0.0101,0.4814,0.0203,0.9784,0.1218,1.3196c0.028,0.0954,0.0131,0.3226-0.0049,0.5863c-0.0358,0.5405-0.0501,1.2815,0.1026,1.767
		c0,0,0.0406,0.043,0.077,0.043s0.0639-0.0507,0.0639-0.0507C68.5049,274.3705,68.4513,273.0206,68.3015,271.4391z"/>
	<g>
		<path fill="#FFFFFF" d="M88.6698,264.9718c-0.0023,0-0.0054,0-0.0077-0.0006c-1.183-0.1689-20.2329-0.0358-20.425-0.0346
			l-0.0507,0.0006l-0.8674-1.0851l0.1629-0.1307l0.0513,0.0645l-0.0029-0.0335c0.7624-0.0692,22.0476-0.1056,22.9531-0.1074
			l0.2291-0.0006l-0.1504,0.1736C90.4416,263.9577,88.89,264.9718,88.6698,264.9718z"/>
	</g>
	<path fill="none" stroke="#FFFFFF" stroke-width="0.41" d="M68.938,266.271c1.8368,0.3342,5.2599-0.2505,5.2599-0.2505
		c2.2544-0.5846,4.2577,0.7516,4.2577,0.7516c0.334-1.3362,0.167,13.1905,0.167,13.1905c-2.3373-0.417-4.1741-0.5846-4.1741-0.5846
		c-5.0093,0.8352-5.5105-0.25-5.5105-0.25C68.8546,279.1281,68.938,266.271,68.938,266.271z"/>
	<path fill="none" stroke="#FFFFFF" stroke-width="0.41" d="M79.5621,266.3958c0.7063-0.6885,3.2119-0.8137,3.2119-0.8137
		c1.2206-0.0627,3.0837,0.501,3.0837,0.501c1.9274,0.1879,3.2119,0,3.2119,0c0.3214-0.3131,0.3853,12.7735,0.3853,12.7735
		c-2.3123,1.4401-4.047,0.5005-4.047,0.5005c-1.6274-0.3961-3.2119,0.1879-3.2119,0.1879c-1.863,0.8143-2.3982,0.6682-2.3982,0.6682
		C79.6051,280.2133,79.5621,266.3958,79.5621,266.3958z"/>
	<g>
		<g>
			<path fill="none" stroke="#FFFFFF" stroke-width="0.41" stroke-linecap="round" d="M70.2744,277.709
				c1.1686,0.5004,2.1702,0.0828,3.3395-0.0836c1.4186-0.167,2.8384-0.0836,4.0905,0.5012"/>
			<path fill="none" stroke="#FFFFFF" stroke-width="0.41" stroke-linecap="round" d="M70.1908,275.705
				c0.7511,0.2506,1.6536,0.2733,2.3218,0.0227"/>
			<path fill="none" stroke="#FFFFFF" stroke-width="0.41" stroke-linecap="round" d="M73.9891,275.4546
				c1.5916-0.4385,3.1313-0.1671,4.5499,0.751"/>
			<path fill="none" stroke="#FFFFFF" stroke-width="0.41" stroke-linecap="round" d="M70.3578,273.4507
				c1.3357,0.8352,2.6715,0,4.0071-0.167c1.5863-0.167,2.5885-0.0836,3.9235,0.7516"/>
			<path fill="none" stroke="#FFFFFF" stroke-width="0.41" stroke-linecap="round" d="M77.9551,267.8574
				c-1.6948-0.8298-3.1731-0.9438-4.9257-0.334"/>
			<path fill="none" stroke="#FFFFFF" stroke-width="0.41" stroke-linecap="round" d="M69.9403,267.3562
				c0.5012,0.2506,1.1687,0.3341,1.6698,0.1671"/>
		</g>
		<g>
			<path fill="none" stroke="#FFFFFF" stroke-width="0.41" stroke-linecap="round" d="M79.7084,267.5233
				c2.679-1.946,5.6088-0.1086,8.1811,0"/>
			<path fill="none" stroke="#FFFFFF" stroke-width="0.41" stroke-linecap="round" d="M80.2088,273.1166
				c2.6506-0.9808,3.914,0.5184,5.0929,0.5846c1.294,0.0728,1.3774,0.0012,2.2538-0.2924"/>
			<path fill="none" stroke="#FFFFFF" stroke-width="0.41" stroke-linecap="round" d="M80.2512,275.7468
				c0.7928-0.5846,2.2221-0.3865,2.8485-0.2195c1.6698,0.3758,3.413,1.597,5.0929,0.1778"/>
			<path fill="none" stroke="#FFFFFF" stroke-width="0.41" stroke-linecap="round" d="M80.4176,278.627
				c0.3342-0.4593,0.9707-0.7402,1.4717-0.8656c0.7511-0.1252,1.3649-0.1455,2.1583-0.0203"/>
			<path fill="none" stroke="#FFFFFF" stroke-width="0.41" stroke-linecap="round" d="M85.0511,277.8342
				c0.877,0.1248,1.628,0.3752,2.5043,0.25"/>
		</g>
	</g>
	<path fill="#FFFFFF" d="M90.8741,281.2465c0.4176-0.0645-0.198-0.6437,0.2196-0.7828c0,0-0.908-0.3131-0.6574-1.0641
		c-0.7516-0.2506-0.3131,0.9389-0.8143,0.9389c-0.2506,0-0.5631-0.0627-0.5631-0.3131c-1.2528,0.501-2.0981,0.4068-3.3503,0.1569
		c-0.6527,0-1.7378-0.1307-2.4108,0.0936c0,0.5005,0.3443,0.5322,0.5949,0.7827C85.73,281.0586,89.0373,281.5298,90.8741,281.2465z"
		/>
	<g>
		<path fill="#FFFFFF" d="M68.9304,281.614c-0.5423,0-0.9819-0.0275-1.344-0.0829c-0.0954-0.0149-0.1641-0.0549-0.2053-0.1194
			c-0.0698-0.1091-0.031-0.2427,0.0035-0.3609c0.0597-0.204,0.0388-0.2105-0.0166-0.2291l-0.3472-0.1163l0.346-0.1211
			c0.0286-0.0096,0.6974-0.2506,0.5142-0.8l-0.0393-0.1187l0.118-0.0393c0.0764-0.0256,0.1432-0.0381,0.2059-0.0381
			c0.3329,0,0.3866,0.3353,0.4224,0.5571c0.0406,0.2541,0.0704,0.3197,0.1444,0.3197c0.0638,0,0.3818-0.0077,0.3818-0.1563v-0.185
			l0.1718,0.0687c0.5453,0.2177,1.0148,0.315,1.5206,0.315c0.4308,0,0.8638-0.0692,1.4235-0.1808
			c0.1693-0.0023,0.3382-0.0101,0.519-0.0172c0.2136-0.0089,0.4437-0.019,0.6723-0.019c0.4557,0,0.7868,0.0399,1.0422,0.1246
			l0.0859,0.0286v0.0902c0,0.3883-0.2046,0.5261-0.3853,0.6483c-0.0668,0.0453-0.1307,0.0883-0.1868,0.1444l-0.0369,0.037h-0.0519
			c-0.5912,0-1.3583,0.0549-2.1703,0.1133C70.7761,281.5441,69.8024,281.614,68.9304,281.614z"/>
	</g>
	<g>
		<path fill="#FFFFFF" d="M91.1133,268.2111c-0.0131-0.4056-0.1796-0.8739-0.1921-1.2796c-0.1581-0.198-0.6599-0.5715-0.8627-0.5655
			c-0.4056,0.0131-0.2016,0.4712-0.161,0.834c0.2487,1.7074-0.346,6.2823,0.2661,6.4529c0.1944-0.0768,0.0369-1.6506,0.1002-1.8929
			c0.1211-0.4599-0.0114-1.2725,0.0406-1.7986c0.602-0.2214-0.161-1.3655,0.2446-1.3775c0.3996-0.2159-0.3133,1.3459,0.525,1.1001
			C91.3304,269.2366,91.1253,268.6174,91.1133,268.2111z"/>
	</g>
	<g>
		<g>
			<path fill="#FFFFFF" d="M54.1709,287.5492c-0.6407,0-1.1418-0.5018-1.1418-1.1418c-0.0042-0.3073,0.1111-0.596,0.3246-0.812
				c0.2147-0.2177,0.5052-0.3376,0.8172-0.3376c0.6371,0,1.1561,0.5155,1.1561,1.1496
				C55.327,287.0366,54.808,287.5492,54.1709,287.5492z"/>
		</g>
	</g>
	<g>
		<g>
			<path fill="#FFFFFF" d="M102.5929,288.04c-0.6401,0-1.1425-0.5016-1.1425-1.1418c-0.0035-0.3071,0.1122-0.5959,0.3252-0.8118
				c0.2153-0.2177,0.5052-0.3377,0.8172-0.3377c0.6377,0,1.1561,0.5155,1.1561,1.1495
				C103.749,287.5283,103.2306,288.04,102.5929,288.04z"/>
		</g>
	</g>
	<circle fill="none" stroke="#FFFFFF" stroke-width="0.4797" cx="78.4141" cy="265.4645" r="26.6682"/>
	<g>
		<path fill="#FFFFFF" d="M73.0937,271.3269c0,0.6007,0.025,0.6133,0.4002,0.6634l0.1688,0.0251
			c0.0441,0.0376,0.0441,0.1622-0.012,0.1813c-0.2947-0.0125-0.5888-0.0191-0.8638-0.0191c-0.3197,0-0.6073,0.0066-0.908,0.0191
			c-0.0561-0.0191-0.0561-0.1437-0.0125-0.1813l0.1688-0.0251c0.3758-0.0501,0.4009-0.0627,0.4009-0.6634v-1.9847
			c0-0.4135-0.0191-0.5631-0.3007-0.5948l-0.3007-0.031c-0.037-0.031-0.037-0.1252-0.006-0.1503
			c0.5196-0.1003,0.9581-0.2506,1.2147-0.3944c0.0375,0.0066,0.0626,0.0251,0.0685,0.0561
			c-0.0125,0.1318-0.0184,0.5072-0.0184,0.7576V271.3269z"/>
		<path fill="#FFFFFF" d="M76.1051,268.1717c0.4445,0,0.7886,0.2065,1.0202,0.488c0.2255,0.2941,0.3382,0.6891,0.3257,1.2021
			c-0.0191,0.6508-0.2624,1.415-1.0016,2.0033c-0.5005,0.4069-1.1144,0.6132-1.5212,0.6884
			c-0.0561-0.0251-0.0877-0.1372-0.0436-0.1873c0.3693-0.1193,0.6759-0.2947,0.8888-0.4576c0.5012-0.3878,0.8889-1.0076,0.92-2.153
			c0.0125-0.7201-0.1814-1.3333-0.6443-1.3333c-0.2756,0-0.5453,0.263-0.5571,0.7886c-0.0191,0.5005,0.244,1.0517,0.6324,1.0517
			c0.1002,0,0.1563-0.0131,0.2064-0.0251c0.0501,0.0186,0.0687,0.0871,0.0501,0.1438c-0.1629,0.1127-0.3568,0.1689-0.5947,0.1689
			c-0.5321,0-0.9956-0.4069-0.9825-1.1078C74.8345,268.6537,75.4352,268.1717,76.1051,268.1717z"/>
		<path fill="#FFFFFF" d="M82.4286,271.6395c0.4505,0,0.5572-0.0501,0.7511-0.3944c0.0435-0.0251,0.1312-0.0125,0.1569,0.0376
			c-0.0883,0.4629-0.213,0.7886-0.3067,0.9139c-0.1194-0.0059-0.2446-0.0125-0.3758-0.0125
			c-0.1312-0.0066-0.269-0.0066-0.4134-0.0066h-1.0326c-0.3508,0-0.5572,0.0066-0.6885,0.0191
			c-0.0381-0.0251-0.0567-0.0626-0.0381-0.1126c0.3382-0.3001,0.5571-0.4946,0.9389-0.8954c0.4761-0.4881,0.908-1.0953,0.908-1.7527
			c0-0.5005-0.2876-0.8639-0.7445-0.8639c-0.3574,0-0.5763,0.2255-0.7702,0.5513c-0.0758,0.012-0.1503-0.0191-0.1629-0.0942
			c0.2315-0.5507,0.7261-0.8573,1.3083-0.8573c0.67,0,1.0893,0.4504,1.0893,1.0392c0,0.4002-0.1753,0.8012-0.739,1.396
			l-0.5131,0.5381c-0.269,0.2822-0.2941,0.3633-0.2941,0.4075c0,0.0495,0.0316,0.0871,0.1939,0.0871H82.4286z"/>
		<path fill="#FFFFFF" d="M86.7298,270.2185c0,0.9832-0.3818,2.0474-1.3458,2.0474c-0.9641,0-1.3459-1.0643-1.3459-2.0474
			c0-0.9449,0.3818-2.0468,1.3459-2.0468C86.348,268.1717,86.7298,269.2736,86.7298,270.2185z M84.7767,270.2185
			c0,0.5883,0.0627,1.7968,0.6073,1.7968s0.6072-1.2086,0.6072-1.7968c0-0.5882-0.0626-1.7962-0.6072-1.7962
			S84.7767,269.6303,84.7767,270.2185z"/>
	</g>
</g>
</svg>
