<?xml version="1.0" standalone="no"?>
<!DOCTYPE svg PUBLIC "-//W3C//DTD SVG 1.1//EN" "http://www.w3.org/Graphics/SVG/1.1/DTD/svg11.dtd" >
<svg xmlns="http://www.w3.org/2000/svg" xmlns:xlink="http://www.w3.org/1999/xlink" version="1.1">
<metadata></metadata>
<defs>
<font id="dtlparadoxtregular" horiz-adv-x="1024" >
<font-face units-per-em="2048" ascent="1536" descent="-512" />
<missing-glyph horiz-adv-x="409" />
<glyph horiz-adv-x="0" />
<glyph horiz-adv-x="0" />
<glyph unicode="&#xd;" horiz-adv-x="512" />
<glyph unicode=" "  horiz-adv-x="409" />
<glyph unicode="&#x09;" horiz-adv-x="409" />
<glyph unicode="&#xa0;" horiz-adv-x="409" />
<glyph unicode="!" horiz-adv-x="792" d="M326 84q0 53 29.5 83t82.5 30t84 -28.5t31 -80.5q0 -53 -31 -84t-84 -31q-112 0 -112 111zM334 1225v30q0 58 25 86.5t81 28.5q53 0 80 -29.5t27 -83.5v-28q0 -9 -2 -29l-70 -899h-72l-67 893q-2 22 -2 31z" />
<glyph unicode="&#x22;" horiz-adv-x="749" d="M133 1280q0 84 82 84t82 -84q0 -32 -8 -90l-53 -438h-41l-54 438q-8 58 -8 90zM453 1280q0 84 82 84q81 0 81 -84q0 -32 -8 -90l-53 -438h-41l-53 438q-8 58 -8 90z" />
<glyph unicode="#" horiz-adv-x="1290" d="M61 385l21 102h231l74 377h-233l20 103h232l75 385h119l-74 -385h351l75 385h119l-76 -385h234l-21 -103h-231l-74 -377h232l-21 -102h-231l-74 -385h-119l74 385h-352l-74 -385h-119l74 385h-232zM432 487h352l74 377h-352z" />
<glyph unicode="$" d="M131 281h29q52 -100 74 -130q68 -90 187 -96h19q17 0 41 2h15v566l-88 55q-111 70 -151 113q-93 100 -93 235q0 195 172 292q62 35 160 46v149h77v-145q38 0 116 -10t110 -10q53 0 71 18l19 -6q-6 -31 -6 -123q0 -88 6 -152h-27q-7 13 -21 39.5t-21.5 40t-22 35t-26 33.5 t-30 27t-37.5 22t-45.5 12.5t-56.5 5.5h-29v-516l66 -39q44 -25 70 -41.5t64.5 -44.5t61 -55.5t45.5 -64.5t33.5 -82.5t10.5 -98.5q0 -164 -96 -256t-255 -110v-174h-77v166h-33q-167 0 -316 43q0 131 -16 254zM319 1067q0 -20 3 -38.5t7 -33.5t13 -30l15 -25t19.5 -23.5 t20.5 -20t24.5 -18.5t23.5 -16.5t26 -17t25 -15.5v459q-177 -43 -177 -221zM573 72q181 51 181 237q0 100 -52 158q-50 56 -129 106v-501z" />
<glyph unicode="%" horiz-adv-x="1155" d="M53 0l934 1352h115l-932 -1352h-117zM72 1081q0 130 77.5 208.5t206.5 78.5q124 0 200.5 -73.5t76.5 -196.5q0 -98 -46 -166t-123 -101q-51 -22 -114 -22q-123 0 -200.5 75t-77.5 197zM188 1087q0 -85 40 -136.5t120 -51.5t124 54t44 139t-42 137.5t-122 52.5t-122 -54.5 t-42 -140.5zM522 256q0 129 78 208t207 79q123 0 199.5 -74.5t76.5 -196.5q0 -98 -46 -165.5t-123 -100.5q-51 -22 -113 -22q-123 0 -201 75t-78 197zM639 262q0 -85 40 -136.5t120 -51.5q81 0 124.5 53t43.5 137q0 85 -42 138t-122 53t-122 -54t-42 -139z" />
<glyph unicode="&#x26;" horiz-adv-x="1259" d="M92 395q0 222 176 332q116 72 224 72q-118 18 -193.5 88t-75.5 186q0 159 99.5 235t283.5 76q75 0 143.5 -16.5t108.5 -47.5q33 -26 33 -69q0 -39 -25 -61.5t-65 -22.5q-42 0 -67 21t-25 61q0 43 28 64q-36 8 -92 8q-117 0 -182.5 -61.5t-65.5 -172.5q0 -134 66 -198 t199 -64h43q36 -2 68 -2h110q179 0 288 6q40 1 68 7v-101q-109 10 -285 10q75 -43 116.5 -125t41.5 -194q0 -149 -69 -250t-186.5 -147.5t-278.5 -46.5q-106 0 -193.5 25t-153.5 74.5t-102.5 129.5t-36.5 184zM281 420q0 -361 346 -361q184 0 255.5 84.5t71.5 288.5 q0 91 -20 178t-53 135h-150q-169 0 -258 -25t-144 -108q-47 -69 -48 -192z" />
<glyph unicode="'" horiz-adv-x="430" d="M133 1280q0 84 82 84t82 -84q0 -32 -8 -90l-53 -438h-41l-54 438q-8 58 -8 90z" />
<glyph unicode="(" horiz-adv-x="751" d="M72 494q0 480 239 822q84 120 203 206l70 -78q-189 -143 -292.5 -387.5t-103.5 -562.5q0 -319 103.5 -564.5t292.5 -388.5l-70 -76q-210 152 -326 418t-116 611z" />
<glyph unicode=")" horiz-adv-x="751" d="M168 -459q189 143 292 388.5t103 564.5q0 318 -103 563t-292 387l70 78q210 -152 326 -418t116 -610q0 -485 -240 -824q-86 -121 -202 -205z" />
<glyph unicode="*" horiz-adv-x="741" d="M137 952l258 97l-258 98l66 106l213 -172l-49 273h131l-49 -273l213 172l63 -106l-256 -98l256 -97l-63 -106l-213 172l49 -273h-131l49 273l-213 -172z" />
<glyph unicode="+" horiz-adv-x="1159" d="M41 612v129h469v480h139v-480h469v-129h-469v-479h-139v479h-469z" />
<glyph unicode="," horiz-adv-x="430" d="M96 94q0 46 31.5 74.5t79.5 28.5q66 0 99.5 -46.5t33.5 -117.5q0 -162 -124 -292q-37 -40 -85 -65l-20 17q96 130 96 278v19q-2 6 -2 8h-12q-44 0 -70.5 25.5t-26.5 70.5z" />
<glyph unicode="-" horiz-adv-x="608" d="M84 373v139h440v-139h-440z" />
<glyph unicode="." horiz-adv-x="419" d="M100 84q0 53 30 83t83 30t84 -28.5t31 -80.5q0 -53 -30 -84t-83 -31q-55 0 -85 28.5t-30 82.5z" />
<glyph unicode="/" horiz-adv-x="581" d="M61 -528l342 2048h117l-344 -2048h-115z" />
<glyph unicode="0" d="M68 680q0 226 64 392.5t195 246.5q88 53 205 53q89 0 159.5 -33t116.5 -92.5t75 -128t47 -153.5q26 -123 26 -283q0 -231 -62 -400t-193 -249q-88 -53 -205 -53q-318 0 -402 411q-26 124 -26 289zM254 682q0 -327 67 -478q66 -149 191 -149q151 0 217 234q41 158 41 381 q0 332 -65 477q-66 147 -193 147q-46 0 -83.5 -20t-63 -56t-41.5 -73t-29 -84q-41 -158 -41 -379z" />
<glyph unicode="1" d="M180 1174v38q33 12 94 32.5t93 32t77.5 30.5t83 40.5t74.5 49.5l16 -11q-4 -54 -7 -122.5t-4.5 -121t-2 -140t-0.5 -127v-137.5v-120v-282q0 -133 5 -179q3 -29 15 -50t27.5 -34t42 -23t49 -14.5t58.5 -10.5v-27q-164 6 -218 6h-133q-51 0 -219 -6v27q41 5 70.5 12.5 t58 22t45.5 39t21 59.5q6 50 6 135v872q0 37 -39 37q-29 0 -63.5 -4.5t-81.5 -12.5t-68 -11z" />
<glyph unicode="2" d="M47 -2v96q245 231 351 347q66 72 89 106q83 111 130 216t47 228q0 160 -72.5 237t-226.5 77q-69 0 -117 -13q28 -28 28 -71q0 -91 -90 -91q-39 0 -62.5 21.5t-23.5 60.5q0 38 21.5 67.5t54.5 46.5t78.5 28t86.5 14.5t85 3.5q432 0 432 -362q0 -76 -45 -193 q-41 -106 -152 -233.5t-238 -241.5q-104 -94 -239 -199h310h43h42.5t36.5 0.5t36.5 2l31.5 4.5t30.5 7t25.5 10.5t25 14.5t19.5 19t18.5 25q23 38 53 106h29q-23 -181 -23 -334q-262 6 -348 6h-102q-215 0 -365 -6z" />
<glyph unicode="3" d="M78 121q0 42 24.5 69t65.5 27q42 0 66 -23t24 -65q0 -43 -27 -70q62 -10 121 -10q163 0 254.5 79t91.5 241q0 303 -356 303h-8v45q142 14 226.5 99.5t84.5 227.5q0 125 -63.5 193t-186.5 68q-80 0 -119 -13q29 -29 29 -71q0 -91 -90 -91q-39 0 -62.5 21.5t-23.5 60.5 q0 45 30 78t79.5 50.5t103 25.5t111.5 8q120 0 208.5 -41t134.5 -118q33 -55 33 -138q0 -255 -299 -340q157 -19 254 -107t97 -245q0 -140 -69.5 -231t-189.5 -138q-91 -36 -239 -36q-305 0 -305 141z" />
<glyph unicode="4" d="M18 381v70l29 45q239 381 450 657q84 110 146 172q121 49 152 70l18 -13q-4 -54 -7 -121t-4.5 -119.5t-2 -138.5t-0.5 -125v-136v-119v-107h170v-135h-170v-105q0 -114 7 -145q14 -59 68 -84q24 -12 87 -24v-27q-125 8 -240 8q-153 0 -246 -8v27q33 6 71.5 20t53.5 29 q12 14 19.5 33.5t12 36.5t6 48t2 47t0 56t-0.5 53v35h-621zM174 516h465v723q-69 -107 -146.5 -227.5t-172 -268t-146.5 -227.5z" />
<glyph unicode="5" d="M92 121q0 42 24.5 69t65.5 27q42 0 66 -23t24 -65q0 -44 -26 -70q63 -10 121 -10q170 0 262 95.5t92 267.5q0 159 -91 243t-253 84q-124 0 -199 -24l45 620h326q144 0 200 20q44 15 74 79h29q-21 -132 -21 -240h-530l-27 -371q70 21 185 21q202 0 321 -107.5t119 -302.5 q0 -221 -135.5 -337.5t-366.5 -116.5q-305 0 -305 141z" />
<glyph unicode="6" d="M113 608q0 241 65 420t199 274q102 72 262 72q260 0 260 -135q0 -41 -23.5 -63.5t-64.5 -22.5q-38 0 -61 21t-23 59q0 47 27 67q-57 11 -107 11q-67 0 -120.5 -21t-90 -54.5t-63 -86.5t-41.5 -106.5t-23.5 -126t-11 -132.5t-2.5 -137q48 56 123 89.5t166 33.5 q160 0 252 -96.5t92 -257.5q0 -197 -104.5 -313.5t-295.5 -116.5q-98 0 -171.5 32t-119 85.5t-74 135t-39.5 170t-11 199.5zM295 568q0 -46 0.5 -78.5t3 -78t7 -78.5t13.5 -72.5t21 -67t30 -55t41.5 -44t54.5 -27t69 -10.5q61 0 105 27.5t68 75.5t35 103.5t11 121.5 q0 141 -58 215t-188 74q-111 0 -213 -49v-57z" />
<glyph unicode="7" d="M96 1008q6 56 6 178v37q0 101 -6 125l13 8q93 -21 294 -21h340q144 0 189 6v-53q0 -7 -29 -89q-152 -430 -352 -953q-8 -21 -18.5 -50t-14.5 -38.5t-11 -26t-14 -29.5t-17 -31q-43 -77 -189 -77h-47q-10 2 -15 2l-2 20q59 27 82 53t61 104q181 366 397 895q35 87 54 130 h-301q-99 0 -185 -2q-36 -1 -63.5 -6.5t-48 -20t-32.5 -25.5t-25 -39t-18.5 -43t-18.5 -54h-29z" />
<glyph unicode="8" d="M102 313q0 77 25.5 138.5t72.5 104t98 70.5t118 52q-53 30 -82 47.5t-72.5 53t-66.5 69t-40.5 84.5t-17.5 110q0 161 105 247.5t278 86.5q165 0 267 -80.5t102 -228.5q0 -69 -22 -124t-62.5 -93t-87.5 -64t-107 -45q121 -72 156 -99q129 -98 151 -234q5 -32 5 -66 q0 -170 -115 -265t-301 -95q-180 0 -292 83.5t-112 247.5zM274 319q0 -126 59 -199t177 -73q113 0 176.5 70.5t63.5 189.5q0 87 -37 145t-103 105q-29 22 -87.5 55t-76.5 45q-172 -123 -172 -338zM297 1077q0 -46 14 -85t32.5 -65t52 -53t58 -42t65.5 -38.5t61 -35.5 q153 119 153 307q0 114 -55 180t-164 66q-105 0 -161 -63t-56 -171z" />
<glyph unicode="9" d="M96 944q0 145 59.5 245.5t166.5 149.5q78 35 178 35q204 0 308 -150q103 -149 103 -483q0 -396 -160 -591q-134 -164 -366 -164q-260 0 -260 135q0 41 23.5 63.5t64.5 22.5q38 0 61 -21t23 -59q0 -41 -27 -68q47 -10 107 -10q68 0 122 20.5t90 54t62.5 86.5t41.5 106 t23 126t10.5 132.5t2.5 138.5q-48 -56 -123 -89.5t-166 -33.5q-160 0 -252 96.5t-92 257.5zM270 975q0 -141 58 -215t188 -74q111 0 213 49v66q0 90 -3.5 150t-15.5 129t-39.5 117.5t-70.5 77.5q-42 28 -106 28q-61 0 -106 -27.5t-70 -75.5t-36.5 -104t-11.5 -121z" />
<glyph unicode=":" horiz-adv-x="440" d="M111 84q0 53 29.5 83t82.5 30t84 -28.5t31 -80.5q0 -53 -30 -84t-83 -31q-55 0 -84.5 28.5t-29.5 82.5zM111 758q0 53 29.5 82.5t82.5 29.5t84 -28t31 -80q0 -53 -30 -84t-83 -31q-55 0 -84.5 28.5t-29.5 82.5z" />
<glyph unicode=";" horiz-adv-x="430" d="M106 94q0 46 31.5 74.5t79.5 28.5q66 0 99.5 -46.5t33.5 -117.5q0 -162 -124 -292q-37 -40 -85 -65l-20 17q96 130 96 278v19q-2 6 -2 8h-12q-44 0 -70.5 25.5t-26.5 70.5zM115 758q0 53 29.5 82.5t82.5 29.5t84 -28t31 -80q0 -53 -30 -84t-83 -31q-55 0 -84.5 28.5 t-29.5 82.5z" />
<glyph unicode="&#x3c;" horiz-adv-x="1288" d="M41 645v60l1206 518v-146l-956 -399l956 -399v-150z" />
<glyph unicode="=" horiz-adv-x="1159" d="M41 391v129h1077v-129h-1077zM41 831v132h1077v-132h-1077z" />
<glyph unicode="&#x3e;" horiz-adv-x="1288" d="M41 129v145l956 400l-956 399v150l1206 -516v-60z" />
<glyph unicode="?" horiz-adv-x="915" d="M133 1217q0 43 28.5 73t77.5 43.5t95.5 19t99.5 5.5q85 0 154.5 -17t124.5 -52t85.5 -95.5t30.5 -140.5q0 -126 -107 -270q-20 -27 -47 -59.5t-47.5 -55.5t-53 -59t-46.5 -52q-26 -30 -39 -47.5t-24.5 -49t-12.5 -69.5q-1 -20 -1 -76h-76q-6 76 -6 111q0 67 32 123 q23 44 68.5 107.5t77.5 109.5t58 120t26 154q0 122 -60.5 189t-179.5 67q-19 0 -47 -2t-41 -2q-3 -1 -7 -2t-6.5 -1.5t-5 -1.5t-3.5 -1q26 -26 26 -61q0 -86 -88 -86q-39 0 -62.5 20.5t-23.5 57.5zM305 84q0 53 30 83t83 30t82.5 -29t29.5 -82t-29.5 -83t-82.5 -30t-83 29 t-30 82z" />
<glyph unicode="@" horiz-adv-x="1619" d="M72 354q0 211 75 372.5t207 270.5q102 84 230 126t303 42q219 0 373.5 -92.5t232.5 -254.5q55 -114 55 -273q0 -211 -88 -350.5t-247 -190.5q-90 -29 -171 -29q-77 0 -116 21.5t-39 79.5q0 17 1.5 28t5 25.5t5.5 24.5q-68 -102 -155 -144q-45 -22 -101 -22 q-223 0 -223 288q0 187 65.5 329t181.5 212q80 49 173 49q109 0 170 -53l135 66l10 -9q-15 -54 -30 -127.5t-24 -129t-22.5 -145.5t-20.5 -130q-30 -178 -30 -238q0 -33 13 -43t49 -10q66 0 119.5 28.5t89 78t58.5 104t36 116.5q18 85 18 161q0 187 -83 315t-229 185 q-101 40 -233 40h-26q-233 0 -382.5 -109t-215.5 -303q-39 -115 -39 -282q0 -222 98.5 -367t275.5 -211q127 -47 293 -47q188 0 344 51l9 -26q-192 -123 -443 -123q-255 0 -424 113t-239 313q-45 128 -45 270zM573 270q0 -89 27 -137.5t100 -48.5q39 0 74.5 13t54.5 26 t62 45l100 612q-49 17 -102 17q-85 0 -139 -37.5t-91 -104.5q-39 -70 -62.5 -176t-23.5 -209z" />
<glyph unicode="A" horiz-adv-x="1323" d="M0 -4v27q62 12 95.5 50t60.5 103l446 1145q59 7 158 55q369 -1088 407 -1202q21 -62 57 -98.5t99 -50.5v-29q-77 8 -225 8t-224 -8v27q46 0 99 32q22 18 22 49q0 20 -24 99l-121 366h-428l-113 -325q-3 -8 -12 -32.5t-13.5 -38t-9 -33t-4.5 -34.5q0 -19 6.5 -32.5 t22 -21.5t26 -12t35 -8.5t31.5 -6.5v-29q-56 8 -194 8q-132 0 -197 -8zM446 643h379l-157 473q-6 15 -14 48t-13 46q-2 -13 -29 -94z" />
<glyph unicode="B" horiz-adv-x="1110" d="M37 -4v27q96 20 125 49q10 12 17.5 26.5t12 34t7 34.5t3.5 42.5t1.5 42t0 48t-0.5 46.5v727v16q0 43 -0.5 62.5t-4 49t-11.5 44.5t-23 31.5t-37 27.5q-31 16 -86 23v27q101 -8 188 -8q43 0 148 2t164 2h18q68 0 126 -9.5t110.5 -31.5t89.5 -55.5t58.5 -85t21.5 -117.5 q0 -260 -316 -330q88 -7 155.5 -27.5t122 -59.5t83 -103.5t28.5 -151.5q0 -179 -116.5 -275.5t-306.5 -106.5q-59 -3 -117 -3q-46 0 -126 3t-126 3h-104q-68 0 -105 -4zM381 164q0 -60 24 -78t89 -18q177 0 265.5 70t88.5 239q0 299 -354 299h-88q-20 -2 -25 -2v-510z M381 750h18q14 -2 25 -2h63q108 0 150 18q66 29 104.5 97.5t38.5 156.5q0 241 -214 258q-48 4 -97 4h-55q-20 -2 -33 -2v-530z" />
<glyph unicode="C" horiz-adv-x="1202" d="M72 655q0 315 188 521q81 89 215 138.5t303 49.5q100 0 224 -13q27 -3 38 -3q36 0 60 18l18 -8q-6 -44 -6 -127q0 -30 3 -76.5t3 -69.5h-26q-4 7 -11 22q-45 92 -78 126q-61 61 -169 61q-286 0 -423 -160.5t-137 -461.5q0 -611 549 -611q50 0 89 11.5t63 25.5t49 46.5 t35.5 52.5t33.5 66l9 18h28q-16 -107 -16 -256q-122 -37 -332 -37q-263 0 -415 88q-141 82 -217 229.5t-78 349.5z" />
<glyph unicode="D" horiz-adv-x="1398" d="M37 -4v27q97 19 125 49q10 12 17.5 26.5t12 34t7 34.5t3.5 42.5t1.5 42t0 48t-0.5 46.5v727v19q0 35 -0.5 51.5t-2.5 42.5t-6.5 39.5t-12.5 30t-21.5 27.5t-32.5 20q-25 12 -86 24v27q104 -8 197 -8q63 0 173.5 4t172.5 4q150 0 258 -19t196 -69q138 -80 213.5 -222.5 t75.5 -343.5q0 -309 -160 -492.5t-450 -203.5q-89 -6 -187 -6q-56 0 -158 3t-157 3q-71 0 -178 -8zM381 168q0 -44 13.5 -68.5t48.5 -28.5q27 -3 63 -3q181 0 305.5 42t198.5 140q114 150 114 424q0 138 -29.5 249.5t-94.5 195t-162 118.5q-119 43 -324 43h-100 q-28 -2 -33 -2v-1110z" />
<glyph unicode="E" horiz-adv-x="1054" d="M37 -2v25q96 20 125 49q10 12 17.5 26.5t12 34t7 34.5t3.5 42.5t1.5 42t0 48t-0.5 46.5v727v19q0 35 -0.5 51.5t-2.5 42.5t-6.5 39.5t-12.5 30t-21.5 27.5t-32.5 20q-25 12 -86 24v27q101 -8 209 -8h405q189 0 277 20l10 -10q-6 -25 -6 -125q0 -30 3 -77.5t3 -70.5h-27 q-38 123 -84 158q-16 12 -40.5 19.5t-64.5 10.5t-62 3h-30h-48h-66h-139v-539h217q74 0 110 13.5t58 55.5q13 24 33 75h28q0 -29 -3 -87.5t-3 -95.5t3 -92.5t3 -85.5h-28q-1 4 -7.5 20t-8 20t-7 17.5t-8.5 17.5t-9 14.5t-11 14.5t-12.5 11.5t-15 10.5t-17.5 6.5t-21 5.5 q-40 6 -84 6h-217v-486q0 -61 16.5 -80.5t73.5 -19.5h129q131 0 192 14.5t101 75.5q30 46 63 119h27q-20 -172 -20 -287l-189 4q-126 2 -188 2h-174q-186 0 -375 -6z" />
<glyph unicode="F" horiz-adv-x="940" d="M37 -4v27q96 20 125 49q10 12 17.5 26.5t12 34t7 34.5t3.5 42.5t1.5 42t0 48t-0.5 46.5v727v19q0 35 -0.5 51.5t-2.5 42.5t-6.5 39.5t-12.5 30t-21.5 27.5t-32.5 20q-25 12 -86 24v27q120 -8 270 -8h344q189 0 277 20l10 -10q-6 -25 -6 -125q0 -30 3 -77.5t3 -70.5h-27 q-38 123 -84 158q-16 12 -40.5 19.5t-64.5 10.5t-62 3h-30h-48h-66h-139v-539h215q75 0 110.5 13t57.5 56q13 24 33 75h28q0 -10 -1 -27.5t-1 -28.5q0 -19 -1 -59.5t-1 -67.5q0 -37 3 -92.5t3 -85.5h-28q-3 7 -13 31.5t-14 32t-14.5 24.5t-19.5 24t-24 15t-33 11 q-40 6 -83 6h-217v-431q0 -88 21.5 -127.5t85.5 -60.5q38 -13 92 -20v-27q-29 1 -73 3t-78.5 3.5t-69.5 1.5h-66q-165 0 -256 -8z" />
<glyph unicode="G" horiz-adv-x="1333" d="M72 653q0 340 204 525.5t555 185.5q55 0 137.5 -8t123.5 -8q35 0 59 18l18 -6q-6 -44 -6 -127q0 -30 3 -77.5t3 -70.5h-26q-4 7 -11 22q-45 92 -78 126q-60 61 -169 61q-606 0 -606 -628q0 -302 138 -454.5t433 -152.5q56 0 92 4l45 5v266q0 64 -4.5 97.5t-22 61 t-48.5 40t-87 22.5v27q136 -9 250 -9q183 0 254 9v-27q-96 -20 -125 -49q-10 -12 -17.5 -26.5t-12 -34t-7 -35t-3.5 -43t-1.5 -42t0 -48t0.5 -46.5v-196q-134 -47 -372 -47q-254 0 -422.5 95t-244.5 277q-52 123 -52 293z" />
<glyph unicode="H" horiz-adv-x="1454" d="M37 -4v27q96 20 125 49q10 12 17.5 26.5t12 34t7 34.5t3.5 42.5t1.5 42t0 48t-0.5 46.5v727v19q0 35 -0.5 51.5t-2.5 42.5t-6.5 39.5t-12.5 30t-21.5 27.5t-32.5 20q-25 12 -86 24v27q123 -8 250 -8q165 0 256 8v-27q-33 -6 -71.5 -20t-53.5 -29q-10 -12 -17.5 -26.5 t-12 -34t-7 -35t-3.5 -42.5t-1.5 -41.5t0 -48t0.5 -46.5v-261h692v367q0 90 -12.5 130.5t-62.5 62.5q-26 13 -87 24v27q123 -8 250 -8q165 0 256 8v-27q-96 -20 -125 -49q-10 -12 -17.5 -26t-12 -34t-7 -34.5t-3.5 -41.5t-1.5 -41.5t0 -48t0.5 -46.5v-730v-19q0 -42 0.5 -61 t4 -47.5t11.5 -44t23 -31t37 -26.5q25 -12 86 -24v-27q-123 8 -250 8q-165 0 -256 -8v27q33 6 71.5 20t53.5 29q10 12 17.5 26.5t12 34t7 35t3.5 42.5t1.5 41.5t0 48t-0.5 46.5v307h-692v-413q0 -90 12.5 -130.5t62.5 -62.5q26 -13 87 -24v-27q-123 8 -250 8q-165 0 -256 -8 z" />
<glyph unicode="I" horiz-adv-x="583" d="M37 -4v27q96 20 125 49q10 12 17.5 26.5t12 34t7 34.5t3.5 42.5t1.5 42t0 48t-0.5 46.5v727v19q0 35 -0.5 51.5t-2.5 42.5t-6.5 39.5t-12.5 30t-21.5 27.5t-32.5 20q-25 12 -86 24v27q123 -8 250 -8q165 0 256 8v-27q-33 -6 -71.5 -20t-53.5 -29q-10 -12 -17.5 -26.5 t-12 -34t-7 -35t-3.5 -42.5t-1.5 -41.5t0 -48t0.5 -46.5v-764q0 -90 12.5 -130.5t62.5 -62.5q26 -13 87 -24v-27q-123 8 -250 8q-165 0 -256 -8z" />
<glyph unicode="J" horiz-adv-x="573" d="M-141 -424q0 40 24 63t64 23q35 0 59.5 -21t24.5 -55q0 -38 -29 -59h8q54 0 93 17.5t61 45.5t34.5 73.5t16.5 89.5t4 106v1214v19q0 35 -0.5 51.5t-2.5 42.5t-6.5 39.5t-12.5 30t-21.5 27.5t-32.5 20q-25 12 -86 24v27q123 -8 250 -8q165 0 256 8v-27q-33 -6 -71.5 -20 t-53.5 -29q-10 -12 -17.5 -26.5t-12 -34t-7 -35t-3.5 -42.5t-1.5 -41.5t0 -48t0.5 -46.5v-885q0 -24 1 -86v-53.5v-36.5q-1 -28 -3 -74t-7.5 -81.5t-14.5 -68.5q-32 -113 -122 -181t-220 -68q-73 0 -122.5 24.5t-49.5 81.5z" />
<glyph unicode="K" horiz-adv-x="1259" d="M37 -4v27q96 20 125 49q10 12 17.5 26.5t12 34t7 34.5t3.5 42.5t1.5 42t0 48t-0.5 46.5v727v19q0 35 -0.5 51.5t-2.5 42.5t-6.5 39.5t-12.5 30t-21.5 27.5t-32.5 20q-25 12 -86 24v27q123 -8 250 -8q165 0 256 8v-27q-33 -6 -71.5 -20t-53.5 -29q-10 -12 -17.5 -26.5 t-12 -34t-7 -35t-3.5 -42.5t-1.5 -41.5t0 -48t0.5 -46.5v-764q0 -90 12.5 -130.5t62.5 -62.5q26 -13 87 -24v-27q-123 8 -250 8q-126 0 -256 -8zM418 705l426 473q0 1 13.5 16t19.5 23t13 22t7 25q0 16 -12.5 28t-24 16.5t-36.5 11t-29 7.5v27q75 -8 229 -8h40q65 0 169 8 v-27q-69 -16 -113.5 -43t-93.5 -78l-444 -448l454 -604q43 -54 88 -84t111 -47v-27q-48 4 -103 4h-219q-30 44 -34 49q-19 32 -66 96q-15 22 -134 191.5t-177 252.5q-54 76 -84 116z" />
<glyph unicode="L" horiz-adv-x="952" d="M37 -4v27q96 20 125 49q10 12 17.5 26.5t12 34t7 34.5t3.5 42.5t1.5 42t0 48t-0.5 46.5v727v19q0 35 -0.5 51.5t-2.5 42.5t-6.5 39.5t-12.5 30t-21.5 27.5t-32.5 20q-25 12 -86 24v27q123 -8 252 -8q174 0 289 8v-27q-38 -7 -57 -11.5t-47 -15t-43 -23.5t-28.5 -34.5 t-18.5 -50.5q-7 -40 -7 -195v-821q0 -61 16.5 -81.5t73.5 -20.5h127q107 0 163 21t93 83q25 42 53 107h29q-21 -187 -21 -289q-125 6 -243 6h-260q-226 0 -375 -6z" />
<glyph unicode="M" horiz-adv-x="1673" d="M37 -4v27q96 20 125 49q10 12 17.5 26.5t12 34t7 34.5t3.5 42.5t1.5 42t0 48t-0.5 46.5v727v19q0 35 -0.5 51.5t-2.5 42.5t-6.5 39.5t-12.5 30t-21.5 27.5t-32.5 20q-25 12 -86 24v27q128 -8 227 -8q98 0 129 6l414 -1012q16 -37 31 -96q5 33 30 94l412 1014 q31 -6 127 -6q141 0 225 8v-27q-96 -20 -125 -49q-10 -12 -17.5 -26t-12 -34t-7 -34.5t-3.5 -41.5t-1.5 -41.5t0 -48t0.5 -46.5v-730v-19q0 -42 0.5 -61t4 -47.5t11.5 -44t23 -31t37 -26.5q25 -12 86 -24v-27q-123 8 -250 8q-163 0 -254 -8v27q33 6 71.5 20t53.5 29 q10 12 17.5 26.5t12 34t7 35t3.5 42.5t1.5 41.5t0 48t-0.5 46.5v799q-3 -16 -10 -36.5t-16.5 -43.5t-12.5 -31l-419 -1034h-72l-420 1034q-3 9 -18 48.5t-21 62.5v-871v-19q0 -51 1 -75t8 -54.5t23.5 -48t44.5 -30.5q25 -12 85 -24v-27q-126 8 -213 8q-132 0 -217 -8z" />
<glyph unicode="N" horiz-adv-x="1415" d="M37 -4v27q96 20 125 49q10 12 17.5 26.5t12 34t7 34.5t3.5 42.5t1.5 42t0 48t-0.5 46.5v727v19q0 35 -0.5 51.5t-2.5 42.5t-6.5 39.5t-12.5 30t-21.5 27.5t-32.5 20q-25 12 -86 24v27q101 -8 184 -8q79 0 111 6l731 -953q25 -29 68 -98v809q0 90 -12.5 130.5t-62.5 62.5 q-26 13 -87 24v27q131 -8 213 -8q134 0 219 8v-27q-96 -20 -125 -49q-10 -12 -17.5 -26t-12 -34t-7 -34.5t-3.5 -41.5t-1.5 -41.5t0 -48t0.5 -46.5v-1014h-78l-805 1048q-36 48 -49 76v-876q0 -90 12.5 -130.5t62.5 -62.5q26 -13 87 -24v-27q-130 8 -217 8h-49q-1 0 -166 -8 z" />
<glyph unicode="O" horiz-adv-x="1437" d="M72 657q0 238 100 406.5t275 246.5q122 54 278 54q229 0 380 -105.5t217 -289.5q44 -124 44 -271q0 -242 -98 -410.5t-274 -248.5q-120 -55 -279 -55q-231 0 -383 107t-217 293q-43 123 -43 273zM276 672q0 -193 56.5 -337t170.5 -218q86 -56 212 -56q93 0 169 33.5 t127 90.5t86 135.5t50.5 166.5t15.5 185q0 195 -55.5 340t-168.5 219q-85 55 -214 55q-94 0 -170.5 -33.5t-127.5 -90.5t-85.5 -136t-50 -167.5t-15.5 -186.5z" />
<glyph unicode="P" horiz-adv-x="1069" d="M37 -4v27q96 20 125 49q10 12 17.5 26.5t12 34t7 34.5t3.5 42.5t1.5 42t0 48t-0.5 46.5v725q0 116 -8 149q-15 58 -68 83q-25 12 -86 24v27q125 -8 128 -8h46q57 0 159 3t167 3h18q112 0 198 -18.5t154.5 -60t105 -115.5t36.5 -179q0 -142 -69 -236t-186 -136 q-76 -27 -167 -27q-125 0 -197 43l6 20q43 -8 88 -8q162 0 247 84t85 246q0 172 -89.5 243.5t-274.5 71.5q-17 0 -46 -1t-42 -1t-27 -2v-1045q0 -88 21.5 -127.5t85.5 -60.5q38 -13 92 -20v-27q-29 1 -73 3t-78.5 3.5t-69.5 1.5h-66q-165 0 -256 -8z" />
<glyph unicode="Q" horiz-adv-x="1437" d="M72 657q0 238 100 406.5t275 246.5q122 54 278 54q232 0 384 -108t215 -295q42 -124 42 -275q0 -207 -76.5 -358.5t-212.5 -241.5q-97 -64 -227 -86q213 -154 433 -208q77 -19 153 -19q123 0 264 43l10 -19q-82 -80 -166 -125t-198 -45q-163 0 -378 120q-153 86 -325 241 q-273 28 -422 201t-149 468zM276 670q0 -195 56 -340t169 -219q86 -56 214 -56q94 0 170 33.5t127 91t85.5 137t50 167.5t15.5 186q0 196 -55.5 340.5t-168.5 219.5q-84 56 -214 56q-95 0 -171.5 -33.5t-127.5 -90.5t-85.5 -136.5t-49.5 -168t-15 -187.5z" />
<glyph unicode="R" horiz-adv-x="1161" d="M37 -4v27q96 20 125 49q10 12 17.5 26.5t12 34t7 35t3.5 42.5t1.5 41.5t0 48t-0.5 46.5v725q0 116 -8 149q-15 58 -68 83q-25 12 -86 24v27q128 -8 131 -8h47q56 0 159 3t161 3q101 0 179 -14t144 -48t101.5 -98t35.5 -156q0 -148 -93 -238.5t-236 -107.5 q252 -356 393 -543q47 -61 78 -85.5t90 -38.5v-27q-41 -4 -62 -4h-34q-117 0 -174.5 22.5t-104.5 89.5q-36 50 -81.5 120t-76 118t-86 136.5t-73.5 117.5q-29 49 -47 62q-17 12 -58 12h-53v-430q0 -90 12.5 -130.5t62.5 -62.5q26 -13 87 -24v-27q-123 8 -250 8 q-165 0 -256 -8zM381 735h37q20 -2 29 -2h26q146 0 220.5 42t102.5 151q11 40 11 86q0 151 -81 211.5t-245 60.5h-71q-22 -2 -29 -2v-547z" />
<glyph unicode="S" horiz-adv-x="946" d="M82 281h29q52 -100 74 -130q68 -90 187 -96h19q145 0 229.5 61t84.5 193q0 46 -13.5 85t-31 65.5t-49.5 54t-55 42.5t-62 39l-15 9l-121 74q-109 69 -150 113q-93 100 -93 235q0 114 57 191.5t153 117.5q80 33 197 33q34 0 117.5 -10t110.5 -10q47 0 71 18l19 -6 q-6 -47 -6 -123q0 -88 6 -152h-27q-7 13 -21 39.5t-21.5 40t-22 35t-26 33.5t-30 27t-37.5 22t-45.5 12.5t-56.5 5.5q-131 0 -207 -57t-76 -176q0 -25 3.5 -47.5t12.5 -41.5t17 -34t24.5 -30.5t27 -25.5t31.5 -23l31.5 -19.5t34.5 -20t33 -18.5l105 -62q37 -21 59.5 -35 t56.5 -37.5t54.5 -44t44.5 -50.5t37.5 -61t22.5 -72t9 -87q0 -126 -60 -212t-158.5 -124t-229.5 -38h-12q-169 0 -316 43q0 134 -16 254z" />
<glyph unicode="T" horiz-adv-x="1034" d="M10 1085q0 23 3 70.5t3 77.5q0 101 -6 125l10 8q92 -20 318 -20h274q189 0 329 10q58 5 81 10l12 -8q-6 -24 -6 -125q0 -21 1 -55t1 -49q0 -10 1 -23t1 -21h-24q-35 92 -56 122q-40 57 -109 66q-25 3 -64 3h-169v-940q0 -133 5 -179q4 -35 19.5 -59.5t45 -38.5t57 -21.5 t72.5 -14.5v-27q-29 1 -73 3t-78.5 3.5t-69.5 1.5h-134q-35 0 -70 -1.5t-79 -3.5t-74 -3v27q40 5 70 13t59 22.5t46.5 39.5t21.5 59q6 48 6 134v985h-169q-85 0 -128.5 -23.5t-68.5 -84.5q-18 -43 -31 -83h-27z" />
<glyph unicode="U" horiz-adv-x="1386" d="M18 1327v27q123 -8 250 -8q165 0 256 8v-27q-33 -6 -71.5 -20t-53.5 -29q-10 -12 -17.5 -26.5t-12 -34t-7 -35t-3.5 -42.5t-1.5 -41.5t0 -48t0.5 -46.5v-478q0 -182 30 -283t127 -148q69 -34 196 -34q164 0 247.5 67t95.5 212q7 80 7 188v582q0 90 -12.5 130.5 t-62.5 62.5q-26 13 -87 24v27q128 -8 231 -8q144 0 238 8v-27q-96 -20 -125 -49q-10 -12 -17.5 -26t-12 -34t-7 -34.5t-3.5 -41.5t-1.5 -41.5t0 -48t0.5 -46.5v-324v-77v-75.5t-1 -66.5t-3 -66t-6 -58t-10.5 -57.5t-15.5 -49.5t-21.5 -49.5t-29 -42t-36.5 -41.5 q-124 -117 -389 -117q-240 0 -367.5 95t-138.5 305q-4 68 -4 163v528v19q0 35 -0.5 51.5t-2.5 42.5t-6.5 39.5t-12.5 30t-21.5 27.5t-32.5 20q-25 12 -86 24z" />
<glyph unicode="V" horiz-adv-x="1251" d="M-27 1327v27q92 -8 226 -8h61q112 0 166 8v-27q-46 0 -84.5 -21t-38.5 -59q0 -16 25 -98l299 -905q24 -88 26 -97q6 41 27 99l299 862q39 111 39 139q0 21 -9 35t-28 22.5t-33.5 12t-39.5 8.5q-3 0 -4 0.5t-3 1t-4 0.5v27q67 -8 197 -8q152 0 198 8v-27q-62 -12 -95 -49 t-60 -102l-463 -1184h-144l-374 1106q-15 47 -21.5 65t-23.5 53.5t-33 52t-43 33.5t-62 25z" />
<glyph unicode="W" horiz-adv-x="1976" d="M4 1325v29q77 -8 223 -8q153 0 228 8v-27q-11 0 -40 -9l-31 -10q-50 -17 -50 -63q0 -36 20 -96l242 -836q20 -63 27 -110q8 57 28 114l330 1035h98l326 -1039q1 -4 27 -110q2 13 30 114l224 773q4 15 12 40.5t12.5 40.5t8 36t3.5 40q0 12 -3.5 22t-7 16.5t-13 12.5t-15 9 t-20 7t-20 5t-22.5 4t-22 4v27q67 -8 199 -8t197 8v-27q-37 -8 -62 -22.5t-42.5 -40.5t-27.5 -48t-24 -63l-381 -1159h-125l-309 975q-18 51 -27 110q-8 -55 -30 -116l-310 -969h-133l-346 1102q-11 40 -16 55t-16.5 46.5t-22.5 46t-28 34t-39.5 30.5t-51.5 17z" />
<glyph unicode="X" horiz-adv-x="1302" d="M20 -4v27q35 11 60.5 24.5t49 37t36 39t38.5 51.5q7 10 11 15l352 500l-293 430q-9 13 -32.5 50.5t-37 55t-36.5 43t-50 39t-59 19.5v27q26 0 108 -4t124 -4q49 0 126.5 4t106.5 4v-27q-8 -2 -29.5 -7t-34 -9.5t-27.5 -12t-22.5 -20t-7.5 -29.5q0 -18 6.5 -33.5t22 -36.5 t17.5 -24l241 -354l219 348q41 66 41 98q0 19 -7.5 32t-22 20.5t-27.5 11.5t-33.5 8.5t-30.5 7.5v27q102 -8 191 -8q156 0 215 8v-27q-23 -5 -43.5 -15t-33 -18t-31 -29t-24 -28t-25.5 -36t-23 -34l-314 -440l336 -491q79 -117 136 -169q20 -19 37.5 -27.5t47.5 -16.5v-27 q-126 8 -249 8q-125 0 -224 -8v27q8 2 25 6t27.5 6.5t25 8.5t23 12.5t14.5 18t6 25.5q0 13 -1.5 23t-7 20.5t-8 14.5t-13 18t-13.5 19l-285 419l-251 -405q-1 -2 -9.5 -15.5t-13.5 -22.5t-11.5 -22.5t-10 -25t-3.5 -21.5q0 -9 2.5 -17t5 -14t9 -11.5t11 -9t14 -7t14.5 -5.5 t16.5 -5t16 -4t17 -3t15.5 -3v-27q-101 8 -198 8q-82 0 -222 -8z" />
<glyph unicode="Y" horiz-adv-x="1189" d="M-8 1327v27q86 -8 235 -8q155 0 236 8v-27q-121 -18 -121 -76q0 -20 4.5 -33.5t18 -35t16.5 -27.5l278 -489l252 483q5 9 15.5 26.5t13.5 24t6.5 21t3.5 30.5q0 22 -13.5 36.5t-28.5 19t-42.5 10.5t-38.5 10v27q21 -1 80 -4.5t109 -3.5q133 0 209 8v-27q-60 -11 -90 -45 q-33 -38 -74 -106l-350 -592v-248q0 -133 5 -179q4 -35 19.5 -59.5t44.5 -38.5t56.5 -21.5t72.5 -14.5v-27q-168 8 -291 8q-120 0 -288 -8v27q40 5 70 13t58.5 22.5t46 39.5t21.5 59q6 48 6 134v262l-329 565q-2 4 -13.5 23t-13.5 23t-11.5 19.5t-13 20t-12 17t-13.5 18 t-13 15t-15.5 16.5t-15.5 14q-29 24 -90 43z" />
<glyph unicode="Z" horiz-adv-x="1144" d="M80 -2v80l774 1196h-309h-67h-46h-31q-24 0 -63 -2.5t-64 -10.5t-41 -20q-45 -33 -83 -158h-27q0 8 1 21t1 23q0 15 1 49t1 55q0 100 -6 125l10 10q155 -20 410 -20h264q123 0 237 8v-88l-761 -1190h383q55 0 76 0.5t62 2.5t60 8t45.5 16t43.5 26.5t32 39.5q23 36 59 116 h29q-20 -162 -20 -287q-250 6 -410 6h-237q-170 0 -324 -6z" />
<glyph unicode="[" horiz-adv-x="708" d="M180 -528v2048h328v-90h-176v-1868h176v-90h-328z" />
<glyph unicode="\" horiz-adv-x="581" d="M61 1520h117l342 -2048h-114z" />
<glyph unicode="]" horiz-adv-x="708" d="M201 -438h176v1868h-176v90h327v-2048h-327v90z" />
<glyph unicode="^" horiz-adv-x="479" d="M-190 596l399 924h63l402 -924h-150l-282 676l-283 -676h-149z" />
<glyph unicode="_" d="M0 -272h1024v-90h-1024v90z" />
<glyph unicode="`" d="M262 1343q0 32 23 56t55 24q40 0 70 -34l354 -369l-19 -25l-432 271q-51 33 -51 77z" />
<glyph unicode="a" horiz-adv-x="901" d="M82 203q0 62 25 107t63 70t97 40t113 19.5t125 4.5h58v134q0 46 -3 78.5t-13 63.5t-27.5 49.5t-47 30t-71.5 11.5q-15 0 -40.5 -2t-36.5 -2q-14 -4 -23 -6q25 -25 25 -62q0 -35 -21 -56t-55 -21q-38 0 -59 18.5t-21 54.5q0 47 44.5 79t103 44t124.5 12q138 0 206 -52 t75 -174q2 -50 2 -73v-57q0 -20 -1 -80t-1 -86q0 -23 -1 -72.5t-1 -64.5q0 -72 20 -97.5t90 -25.5h25l6 -16q-49 -44 -88.5 -66t-95.5 -22q-48 0 -77.5 25.5t-31.5 70.5q-39 -44 -98.5 -70t-128.5 -26q-116 0 -188 57.5t-72 161.5zM252 221q0 -72 45 -111.5t121 -39.5 q86 0 145 28v303q-8 -1 -24 -2q-32 -3 -48.5 -4.5t-45.5 -5t-45 -7.5t-40 -11t-37 -16t-28.5 -22t-23.5 -28.5t-13.5 -37t-5.5 -46.5z" />
<glyph unicode="b" horiz-adv-x="1071" d="M14 1458v21l201 16q77 6 123 29l12 -8q-6 -37 -13 -246q-9 -322 -9 -471v-37q58 56 121 84t153 28h4q183 0 285 -118t102 -310q0 -159 -66.5 -268.5t-184.5 -162.5q-79 -35 -185 -35q-158 0 -254 86l-125 -84l-22 12q12 95 12 242v884q0 21 1 58.5t1 58t-1.5 51 t-6.5 49.5t-14 40t-24 35.5t-36 24.5q-33 15 -74 21zM328 90q80 -24 166 -24q162 0 243.5 96t81.5 262v16q0 158 -82 249t-237 91q-101 0 -172 -39v-651z" />
<glyph unicode="c" horiz-adv-x="829" d="M78 416q0 155 67.5 262t184.5 157q76 33 180 33q44 0 85.5 -5.5t82.5 -19t65.5 -40.5t24.5 -64q0 -38 -23 -59t-61 -21q-40 0 -63 19.5t-23 58.5q0 42 27 62q-42 8 -86 8q-75 0 -132 -27t-91 -76.5t-51 -114t-17 -143.5q0 -167 82.5 -263.5t240.5 -96.5q99 0 183 37 l10 -19q-93 -116 -291 -116q-189 0 -292 115.5t-103 312.5z" />
<glyph unicode="d" horiz-adv-x="1089" d="M78 406q0 158 66 268.5t182 163.5q76 36 182 36q160 0 235 -90v385q0 14 0.5 42.5t0 41.5t-1 36.5t-2.5 35.5t-6 30t-10 28t-14.5 22t-20.5 19.5t-27 13.5q-36 13 -72 20v21q168 16 203 16q80 8 120 29l13 -8q-23 -364 -23 -809v-471q0 -80 15.5 -112.5t74.5 -35.5 q46 -2 54 -2l4 -16q-35 -35 -85 -60.5t-102 -25.5q-101 0 -114 108q-112 -112 -277 -112q-188 0 -291.5 116t-103.5 310zM252 414q0 -158 83 -250t238 -92q102 0 170 39v651q-87 26 -163 26q-163 0 -245.5 -96t-82.5 -262v-16z" />
<glyph unicode="e" horiz-adv-x="880" d="M78 418q0 155 62.5 261.5t175.5 156.5q73 32 165 32q328 0 328 -338v-18h-561v-16q-2 -10 -2 -16v-13q0 -188 83 -284.5t263 -96.5q100 0 184 37l10 -19q-99 -116 -303 -116q-194 0 -299.5 114t-105.5 316zM252 557l377 37v10q0 105 -36 155t-126 50q-188 0 -215 -252z " />
<glyph unicode="f" horiz-adv-x="606" d="M49 -2v27q77 13 110.5 48.5t38.5 114.5q3 46 3 109v487h-119v31q113 20 118 100q1 21 4 78.5t5.5 90t7.5 79.5t14.5 83t22.5 65q98 209 352 209q174 0 174 -107q0 -38 -24 -60t-62 -22t-62 19t-24 55q0 32 27 59q-242 0 -264 -211q-9 -95 -9 -163v-242l218 10v-80l-218 6 v-514q0 -91 13 -135t60 -73q34 -20 126 -35v-29q-85 6 -268 6q-121 0 -244 -6z" />
<glyph unicode="g" horiz-adv-x="1011" d="M25 -279q0 49 18 88.5t52.5 68t66 46.5t76.5 37q-34 14 -56 44.5t-22 72.5q0 70 43 115.5t110 80.5q-221 82 -221 285q0 146 98 227.5t252 81.5q159 0 258 -84q77 84 179 84q49 0 81.5 -22.5t32.5 -67.5q0 -34 -21.5 -56t-56.5 -22q-31 0 -51 16.5t-20 45.5q0 13 10 33 q-2 0 -10 2h-17q-61 0 -112 -27q84 -84 84 -209q0 -145 -96 -225t-250 -80q-39 0 -103 10q-57 -51 -57 -106q0 -78 117 -78q10 0 42 1t49 1q21 0 68.5 1t67.5 1q291 0 291 -231q0 -96 -41 -171t-112 -120.5t-159.5 -68.5t-189.5 -23q-121 0 -216.5 31.5t-146.5 95.5 q-38 48 -38 122zM166 -256q0 -103 77 -155t195 -52q106 0 187.5 34.5t123.5 99.5q31 47 31 118q0 41 -12 70.5t-31 46t-51 26t-64 12.5t-79 3h-275q-102 -78 -102 -203zM268 563q0 -53 9 -96.5t28.5 -80t55 -57t83.5 -20.5q179 0 179 260q0 109 -40.5 176.5t-133.5 67.5 q-95 0 -138 -69.5t-43 -180.5z" />
<glyph unicode="h" horiz-adv-x="1091" d="M43 1458v21l203 16q73 6 119 29l14 -8q-6 -37 -13 -245q-10 -355 -10 -468v-39q110 110 273 110q151 0 217.5 -84.5t66.5 -250.5v-263v-26q0 -39 0.5 -58t4 -47.5t11.5 -44t23.5 -30.5t38.5 -23q31 -11 84 -22v-27q-59 6 -235 6q-118 0 -217 -6v27q30 4 51.5 13t35.5 26 t22 32.5t12 46.5t5.5 52t2.5 65q2 46 2 86v109q0 96 -9 147q-23 178 -215 178q-99 0 -174 -37v-464q0 -11 -0.5 -39.5t0 -40l1.5 -34.5t3.5 -34t7.5 -28t12.5 -26t19 -18.5t26.5 -14.5q34 -12 61 -19v-27q-107 6 -227 6q-127 0 -215 -6v27q65 11 100 39t43 87q9 73 9 242 v721q0 18 0.5 68t0.5 71t-4 55t-11 59q-22 74 -140 91z" />
<glyph unicode="i" horiz-adv-x="542" d="M49 -2v27q49 8 78 22.5t44.5 43t20.5 61.5t7 92q2 80 2 164v210q0 98 -32 142t-116 57v21q14 1 65 4t71.5 5t58 7t64 13t50.5 20l13 -8q-15 -185 -15 -492v-164q0 -104 31.5 -142t130.5 -56v-27q-58 6 -246 6q-140 0 -227 -6zM168 1247q0 47 29.5 74t76.5 27 q46 0 74.5 -26.5t28.5 -72.5q0 -47 -29 -74.5t-78 -27.5q-47 0 -74.5 26.5t-27.5 73.5z" />
<glyph unicode="j" horiz-adv-x="534" d="M-164 -424q0 37 24.5 61.5t61.5 24.5q38 0 61 -20t23 -58q0 -40 -26 -59h8q64 0 108.5 21t68.5 62t34 92.5t10 121.5v796q0 98 -32 142t-116 57v21q15 1 65.5 4t71.5 5t58.5 7t64 13t50.5 20l12 -8q-14 -173 -14 -492v-399q0 -100 -3 -154.5t-19 -119.5t-48 -109 q-93 -135 -295 -135q-72 0 -120 24.5t-48 81.5zM174 1247q0 46 30 73.5t77 27.5q48 0 76 -26t28 -73q0 -48 -29 -75t-77 -27t-76.5 26.5t-28.5 73.5z" />
<glyph unicode="k" horiz-adv-x="978" d="M43 1458v21q171 16 205 16q75 8 117 29l12 -8q-21 -283 -21 -783v-473q0 -50 2 -78t9 -59.5t21.5 -48.5t40 -30t63.5 -19v-27q-15 1 -43 2.5t-41 1.5q-23 0 -73 1t-71 1q-131 0 -219 -6v27q71 15 103 42t41 94q8 57 8 232v754q0 125 -4 170q-5 66 -43 98.5t-107 42.5z M391 475l230 225q3 3 12.5 12t12 12t9 11t9 13.5t4.5 13.5t2 16q0 22 -23 36.5t-49 19.5v26q48 -6 193 -6q97 0 176 6v-26q-17 -5 -33 -11t-27.5 -10.5t-27 -13.5t-22 -12.5t-23 -16t-20.5 -15.5t-24 -19t-24 -19l-231 -187l296 -378q26 -34 43.5 -54.5t50 -44.5t66.5 -30 v-27q-83 6 -166 6q-12 0 -46.5 -1t-47.5 -1l-24 37q-128 193 -316 438z" />
<glyph unicode="l" horiz-adv-x="536" d="M43 1458v21q18 2 103.5 6.5t135.5 13t85 27.5l10 -8q-21 -335 -21 -811v-426q0 -119 9 -155q16 -55 67 -78q26 -12 86 -23v-27q-95 6 -233 6h-76q-97 0 -164 -6v27q89 16 119 64t32 161q1 38 1 143v811q0 37 -0.5 56.5t-3 48.5t-7.5 45.5t-14.5 35t-24 30t-35.5 18.5 q-38 13 -69 20z" />
<glyph unicode="m" horiz-adv-x="1628" d="M49 -2v27q93 16 121 65t30 169q1 36 1 134v225q0 98 -32 142t-116 57v21q7 0 34.5 1.5t37 2t34 2t36.5 3t33.5 4t34.5 5.5t30 6.5t31 9t26 11.5l12 -9l-8 -112q121 112 277 112q168 0 233 -110q128 117 291 117q261 0 288 -247q7 -58 7 -107v-251q0 -16 -0.5 -48.5 t-0.5 -46.5t2.5 -35.5t8 -35.5t15.5 -26q24 -24 53 -37t84 -22v-27q-61 6 -232 6h-43q-113 0 -174 -6v27q25 4 44.5 13t32 18t21.5 28.5t14 32t7.5 42t3.5 46t2 55.5q2 46 2 86v109q0 117 -15.5 184.5t-66.5 101.5q-60 39 -149 39q-108 0 -185 -37q21 -45 26 -87t5 -134 v-243q0 -11 -0.5 -39t0 -39.5l1.5 -34.5t3.5 -34t7.5 -28t12.5 -26.5t18.5 -18.5t26 -15q34 -13 62 -19v-27q-75 6 -215 6q-122 0 -200 -6v27q51 12 77 34q9 9 15.5 19.5t11.5 25t8.5 26.5t6 32.5t3.5 32.5t1.5 37t0.5 36v39.5v38.5v109q0 64 -4.5 109t-18 88.5t-36.5 69.5 t-62 42t-94 16q-101 0 -170 -37v-464q0 -11 -0.5 -39.5t0 -40l1.5 -34.5t3.5 -34t7.5 -28t12.5 -26t19 -18.5t26.5 -14.5q32 -11 62 -19v-27q-106 6 -228 6q-126 0 -215 -6z" />
<glyph unicode="n" horiz-adv-x="1095" d="M49 -2v27q93 16 121 65t30 169q1 36 1 134v225q0 98 -32 142t-116 57v21q7 0 34.5 1.5t37 2t34 2t36.5 3t33.5 4t34.5 5.5t30 6.5t31 9t26 11.5l12 -9l-6 -112q112 112 277 112q151 0 218 -84.5t67 -250.5v-263v-32.5v-31.5t0.5 -28.5t2 -28t4 -24t6.5 -23.5l9.5 -19 t13.5 -17.5t18 -13.5t23 -11q31 -11 84 -22v-27q-59 6 -235 6q-118 0 -217 -6v27q30 4 51.5 13t35.5 26t22 32.5t12 46.5t5.5 52t2.5 65q2 46 2 86v109q0 102 -8 147q-23 178 -215 178q-108 0 -175 -39v-462q0 -11 -0.5 -39.5t0 -40l1.5 -34.5t3.5 -34t7.5 -28t12.5 -26 t19 -18.5t26.5 -14.5q32 -11 62 -19v-27q-106 6 -228 6q-126 0 -215 -6z" />
<glyph unicode="o" horiz-adv-x="1034" d="M78 420q0 155 71.5 262.5t193.5 155.5q80 32 183 32q199 0 314.5 -116t115.5 -314q0 -157 -70.5 -265.5t-192.5 -156.5q-80 -32 -185 -32q-151 0 -252.5 68.5t-146.5 187.5q-31 82 -31 178zM264 426q0 -249 127 -341q49 -36 125 -36q70 0 121.5 31t79.5 86t40.5 119 t12.5 141q0 78 -12 142t-39.5 119.5t-78.5 86.5t-122 31t-122.5 -31t-79 -86t-40 -119.5t-12.5 -142.5z" />
<glyph unicode="p" horiz-adv-x="1087" d="M33 -504q77 13 110 49t38 115q3 46 3 109v852q0 99 -31 141t-116 55v21q24 2 78 5t85 6t70 11.5t64 22.5l12 -11l-8 -110q118 112 280 112q186 0 289 -117.5t103 -310.5q0 -156 -65 -266.5t-179 -163.5q-76 -36 -186 -36q-76 0 -141.5 24t-94.5 64v-324q0 -132 39 -180 t160 -68v-26q-200 6 -267 6q-120 0 -243 -6v26zM344 90q80 -24 166 -24q163 0 244.5 96.5t81.5 261.5v16q0 158 -82.5 249t-237.5 91q-101 0 -172 -39v-651z" />
<glyph unicode="q" horiz-adv-x="1071" d="M78 406q0 157 67.5 269t183.5 164q79 35 183 35q161 0 256 -88l125 101l25 -13q-10 -66 -12 -240l-2 -158q-1 -53 -1 -134v-647q0 -104 31.5 -142.5t130.5 -56.5v-26q-58 6 -246 6q-140 0 -227 -6v26q49 8 78 22.5t44 43.5t20 61t7 92q2 80 2 164v211q-43 -49 -114 -79.5 t-162 -30.5q-184 0 -286.5 116.5t-102.5 309.5zM252 412q0 -158 83 -249t238 -91q102 0 170 39v651q-87 26 -163 26q-165 0 -246.5 -97t-81.5 -267v-12z" />
<glyph unicode="r" horiz-adv-x="720" d="M49 -2v27q77 13 110.5 48.5t38.5 114.5q3 46 3 109v321q0 98 -32 142t-116 57v21q24 2 75.5 5t81.5 5.5t70.5 11t69.5 23.5l12 -11l-8 -120q51 55 102.5 85.5t125.5 30.5q55 0 92 -26t37 -76q0 -42 -23 -65t-65 -23q-34 0 -57 18.5t-23 51.5q0 9 8 36q-114 0 -191 -57 v-457q0 -93 12.5 -135.5t60.5 -73.5q33 -20 126 -36v-27q-85 6 -266 6q-121 0 -244 -6z" />
<glyph unicode="s" horiz-adv-x="733" d="M84 225h27q2 -5 12.5 -24.5l14 -26t13.5 -24t15.5 -24t17 -20.5t20 -20t22 -15.5t26.5 -13.5t30 -7t35 -3q87 0 138 36t51 110q0 14 -2.5 27t-4.5 23t-9 20.5t-10.5 17t-14.5 15.5t-14.5 12.5t-17.5 12.5t-17 10.5t-19.5 10.5t-17.5 10l-100 54q-39 21 -64 38t-53 44.5 t-42 65t-14 83.5q0 111 72.5 170t188.5 59h16q38 0 89.5 -7t84.5 -7q21 0 39 12l12 -6q-4 -19 -4 -92q0 -33 2 -61t2 -46h-26q-2 4 -11 24t-12 25t-11.5 22t-14 23t-16 18.5t-20 17t-22.5 11t-28 9t-33 2.5q-174 0 -174 -131q0 -76 102 -127l123 -61q41 -21 68 -38.5t56 -46 t43.5 -68t14.5 -89.5q0 -130 -86.5 -196t-228.5 -66q-133 0 -240 37v65q0 69 -8 135z" />
<glyph unicode="t" horiz-adv-x="645" d="M59 784v27q103 30 145.5 95.5t55.5 195.5h84q-3 -53 -5 -145t-3 -109l285 10v-80l-285 6v-485q0 -123 35.5 -179.5t142.5 -56.5q52 0 109 17l10 -25l-25 -18q-71 -53 -200 -53q-117 0 -173 55.5t-61 169.5q-2 68 -2 96q0 71 3 237.5t3 241.5h-119z" />
<glyph unicode="u" horiz-adv-x="1081" d="M31 817v21q7 0 35 1.5t38.5 2t36.5 2t39 3.5t35.5 4.5t36.5 6t31.5 8t31 10.5t25.5 13l14 -10q-16 -189 -16 -482v-67q0 -131 52.5 -193.5t176.5 -62.5q90 0 168 37v489q0 83 -11.5 126.5t-52.5 66.5q-30 16 -83 24v21q7 0 35 1.5t38.5 2t36 2t38.5 3.5t35.5 4.5t36.5 6 t31 8t30.5 10.5t25.5 13l14 -10q-14 -284 -14 -457v-162v-13q0 -30 0.5 -44.5t2.5 -36t7 -31.5t14 -21.5t23 -17t34 -7.5q27 -3 48 -3h12l6 -18q-34 -34 -84.5 -59t-101.5 -25q-98 0 -117 110q-57 -57 -120 -84.5t-164 -27.5q-99 0 -167 39.5t-87 109.5q-2 9 -6.5 25t-6 22 t-4 19t-3 26t-1.5 32q-2 76 -2 97v266q0 98 -31.5 142t-115.5 57z" />
<glyph unicode="v" horiz-adv-x="872" d="M6 834v26q40 -6 140 -6h42q138 0 183 6v-26q-32 -9 -48 -16t-29 -22t-13 -38q0 -34 24 -99l113 -321q34 -96 61 -199q12 24 28.5 82t22.5 74l125 371q23 63 23 98q0 9 -2.5 17t-5 13.5t-10 10.5t-11.5 8t-14.5 7t-14 5t-17 4.5t-15.5 4.5v26q40 -6 114 -6h33q112 0 150 6 v-26q-19 -4 -32.5 -11t-25 -23.5t-15.5 -23t-15 -33.5t-13 -32l-297 -717h-110l-271 717q-25 67 -41 87q-22 28 -59 36z" />
<glyph unicode="w" horiz-adv-x="1366" d="M14 834v26q39 -6 138 -6h41q133 0 180 6v-26q-94 -20 -94 -74q0 -26 14 -72l96 -321q10 -35 14 -51l17 -59q8 -29 20 -89q6 32 27 98l197 590q6 -6 67 -6q65 0 72 6l170 -571q9 -29 15 -59t9 -42q15 44 44 139.5t44 139.5q7 25 24.5 80t31.5 102.5t23 89.5q3 15 3 27 q0 10 -2.5 18t-5 13.5t-9.5 11t-10.5 8.5t-14 6.5t-14.5 5t-17 5t-17 4.5v26q33 -6 116 -6h34q109 0 147 6v-26q-17 -4 -31 -12.5t-22.5 -16t-18 -25.5t-12.5 -25.5t-11.5 -32t-10.5 -30.5l-262 -698h-115l-176 610q-17 47 -23 94q-8 -48 -26 -94l-203 -610h-115l-235 717 q-23 67 -39 87q-23 29 -60 36z" />
<glyph unicode="x" horiz-adv-x="931" d="M18 -2v27q51 12 80 47q44 53 70 86l213 272l-186 266q-53 78 -83 104q-31 27 -65 34v26q27 0 88.5 -3t89.5 -3q131 0 178 6v-26q-63 -18 -63 -56q0 -12 3 -22t6 -15t12.5 -16.5t13.5 -17.5l121 -172l125 194q18 29 18 49q0 13 -3.5 22t-12 14.5t-15 8t-20 6t-19.5 5.5v26 q56 -6 146 -6q108 0 145 6v-26q-50 -17 -77 -47t-72 -87l-174 -223l223 -315q4 -6 19.5 -29t20.5 -30.5t19.5 -24.5t25 -24.5t27.5 -16t35 -12.5v-27q-39 6 -137 6h-41q-131 0 -180 -6v27q63 18 63 55q0 12 -3 22t-6 14.5t-12 16.5t-13 17l-156 221l-146 -232 q-26 -42 -26 -59q0 -43 69 -55v-27q-40 6 -116 6h-35q-114 0 -150 -6z" />
<glyph unicode="y" horiz-adv-x="872" d="M-68 -424q0 39 23.5 61.5t62.5 22.5q37 0 61.5 -21t24.5 -57q0 -38 -28 -59h18q48 0 87 15t63.5 35.5t46.5 57t34 65.5t27 75l54 155l-308 787q-2 4 -10.5 26t-11 27t-11.5 20.5t-16.5 21.5t-21 14t-29.5 12v26q32 -6 139 -6h43q135 0 182 6v-26q-4 -1 -16.5 -5.5 t-18 -6.5t-16 -6.5t-16 -9.5t-12 -11.5t-9 -15.5t-2.5 -19q0 -28 17 -70l133 -368q36 -90 63 -201l160 532q27 97 27 109q0 9 -3 17.5t-6 14t-10.5 11t-12 8.5t-15.5 7t-15 5t-17 4.5t-15 4.5v26q33 -6 117 -6h34q114 0 152 6v-26q-21 -4 -37 -15t-26 -27.5t-17.5 -33.5 t-15.5 -38l-3 -9l-266 -742q-11 -31 -31 -90.5t-32 -92.5t-33 -82t-41 -80t-49.5 -63.5t-64.5 -53.5q-62 -37 -165 -37q-72 0 -120 24.5t-48 81.5z" />
<glyph unicode="z" horiz-adv-x="858" d="M78 -2v68l491 731h-133q-111 0 -170.5 -14.5t-88.5 -66.5l-30 -57h-26q4 36 4 63v89q0 18 -4 53l10 8q79 -20 301 -20h117q160 0 201 6v-65l-484 -732h80h36h39.5t37.5 0.5t40 1.5t36.5 2.5t37 4.5t31 7t29 10t22.5 13q45 30 97 127h28q-22 -166 -22 -229q-104 6 -307 6 h-136q-114 0 -237 -6z" />
<glyph unicode="{" horiz-adv-x="847" d="M84 477v35q44 9 72.5 17t61 22t52.5 31t36.5 44t24.5 62q11 47 11 129v217q0 135 16 217t66 140q53 64 134.5 93.5t205.5 35.5v-66q-128 -13 -188.5 -71t-67.5 -185q-2 -50 -2 -90v-172q0 -67 -2 -111.5t-10.5 -94.5t-23.5 -83.5t-42 -63t-66 -47.5q-62 -29 -151 -40 q90 -11 148.5 -41.5t90.5 -87.5t44 -129.5t12 -182.5v-182q0 -173 55.5 -253.5t202.5 -92.5v-55q-196 2 -300.5 86.5t-117.5 262.5q-4 48 -4 132v219q0 113 -28 174.5t-102 91.5q-49 21 -128 39z" />
<glyph unicode="|" horiz-adv-x="479" d="M180 -528v2048h119v-2048h-119z" />
<glyph unicode="}" horiz-adv-x="847" d="M84 -473q125 10 187 70.5t69 184.5q2 50 2 91v182q0 169 27.5 263t116.5 137q66 31 151 41q-150 17 -218 91t-75 232q-2 66 -2 117v172q0 132 -26.5 207.5t-102.5 108.5q-54 23 -129 30v66q200 -10 302 -90.5t116 -262.5q4 -49 4 -133v-217q0 -114 28 -176t102 -92 q47 -20 128 -37v-35q-45 -10 -72 -18t-60 -22t-53 -31t-37 -44t-25 -62q-11 -45 -11 -128v-219q0 -78 -1.5 -117.5t-11 -91.5t-28.5 -87q-101 -182 -381 -185v55z" />
<glyph unicode="~" horiz-adv-x="1282" d="M41 502q37 182 109 261t188 79q90 0 256 -64l141 -53q78 -31 126 -44t110 -13q90 0 140.5 50.5t84.5 147.5l45 -14q-39 -181 -111 -261q-72 -79 -188 -79q-93 0 -256 63l-139 54q-56 22 -84 31.5t-69.5 17.5t-84.5 8q-89 0 -141 -52t-84 -147z" />
<glyph unicode="&#xa1;" horiz-adv-x="792" d="M326 784q0 53 30.5 84t83.5 31q113 0 113 -111q0 -53 -30 -82.5t-83 -29.5t-83.5 28t-30.5 80zM332 -356q0 8 2 28l69 899h72l68 -893q2 -22 2 -30v-31q0 -115 -107 -115q-52 0 -79 29.5t-27 83.5v29z" />
<glyph unicode="&#xa2;" d="M170 561q0 190 101 310.5t274 140.5v106h71v-104q57 0 109 -10.5t93.5 -41t41.5 -77.5q0 -38 -23 -59t-61 -21q-40 0 -63 19.5t-23 58.5q0 34 27 61q-48 8 -101 8v-719h13q24 -2 35 -2q98 0 182 37l10 -18q-91 -102 -240 -115v-106h-71v104q-180 8 -277.5 122t-97.5 306z M340 592q0 -131 53 -220t152 -122v692q-102 -26 -153.5 -119.5t-51.5 -230.5z" />
<glyph unicode="&#xa3;" d="M68 14q0 37 33.5 66.5t76 44t88.5 20.5q35 100 35 277v256l-154 -6v82l154 -4v106q0 188 31 277q86 251 413 251q168 0 250 -64q33 -26 33 -69q0 -39 -24.5 -61.5t-63.5 -22.5q-42 0 -67 21t-25 61q0 42 29 64q-45 8 -93 8h-14q-138 0 -215.5 -73.5t-77.5 -215.5v-282 l330 6v-84l-330 6v-135q0 -141 -32.5 -234.5t-108.5 -156.5q-16 -16 -27 -23q43 29 144 29q67 0 153 -21l187 -43q67 -16 98 -16q64 0 94 21t59 77l29 -12q-14 -39 -27 -67t-34.5 -60t-45.5 -52t-59.5 -33t-77.5 -13q-40 0 -84 8.5t-74 18t-77.5 26t-71.5 23.5q-18 5 -86 29 t-102 32q-16 4 -39 4q-29 -37 -48 -57.5t-53 -39t-71 -18.5q-25 0 -40 13.5t-15 35.5z" />
<glyph unicode="&#xa4;" d="M39 281l133 133q-52 74 -72 125.5t-20 138.5q0 86 20 138t72 128l-133 131l76 74l133 -129q74 51 124.5 69.5t139.5 18.5q90 0 140 -19t124 -71l133 131l76 -74l-133 -131q52 -76 72 -128t20 -138q0 -87 -20 -138.5t-72 -125.5l133 -133l-76 -76l-133 129 q-74 -51 -124.5 -69.5t-139.5 -18.5q-87 0 -137 19.5t-127 70.5l-133 -131zM227 678q0 -94 48.5 -161.5t124.5 -100.5q54 -23 112 -23q93 0 161.5 48.5t100.5 124.5q23 54 23 112q0 93 -49 160t-125 100q-52 23 -111 23q-94 0 -161.5 -48.5t-100.5 -124.5q-23 -52 -23 -110z " />
<glyph unicode="&#xa5;" d="M-100 1327v27q86 -8 235 -8q155 0 236 8v-27q-121 -18 -121 -76q0 -20 4.5 -33.5t18 -35t16.5 -27.5l278 -489l252 483q5 9 15.5 26.5t13.5 24t6.5 21t3.5 30.5q0 22 -13.5 36.5t-28.5 19t-42.5 10.5t-38.5 10v27q21 -1 80 -4.5t109 -3.5q133 0 209 8v-27 q-61 -11 -92 -45q-32 -35 -72 -106l-328 -555h260v-66h-283v-111h283v-65h-283v-43q0 -124 6 -179q4 -35 19.5 -59.5t44.5 -38.5t56.5 -21.5t72.5 -14.5v-27q-168 8 -291 8q-120 0 -288 -8v27q84 11 136 40t60 93q6 46 6 125v98h-290v65h290v111h-290v66h251l-290 497 q-61 109 -115 161q-20 19 -39.5 28.5t-56.5 19.5z" />
<glyph unicode="&#xa6;" horiz-adv-x="479" d="M180 291h119v-819h-119v819zM180 700v820h119v-820h-119z" />
<glyph unicode="&#xa7;" d="M150 629q0 104 56 174.5t143 104.5q49 20 65 26q-83 57 -125 109q-47 58 -47 143q0 132 90 203t235 71q46 0 86.5 -5t82.5 -17.5t66.5 -38.5t24.5 -64q0 -39 -24 -62.5t-62 -23.5t-62 21t-24 59q0 40 29 60q-25 8 -80 8q-100 0 -164.5 -38.5t-64.5 -123.5q0 -57 28 -93 t84 -73l201 -137q39 -26 65 -47.5t55.5 -54.5t44.5 -75.5t15 -92.5q0 -67 -21.5 -118.5t-63 -87t-83 -57.5t-98.5 -43q80 -50 128 -108q46 -56 46 -144q0 -132 -90 -203t-235 -71q-46 0 -86.5 5t-81.5 17.5t-65.5 39t-24.5 63.5q0 39 24 62.5t62 23.5t62 -21t24 -59 q0 -39 -29 -59q32 -11 80 -11q99 0 163 39.5t64 124.5q0 57 -28.5 94t-84.5 74l-200 135q-39 25 -65.5 47t-55.5 55.5t-44 76t-15 92.5zM295 680q0 -67 35 -116q36 -50 112 -101l129 -88q150 90 150 237q0 66 -33 114q-35 50 -110 101l-132 88q-151 -86 -151 -235z" />
<glyph unicode="&#xa8;" d="M258 1124q0 93 96 93q41 0 66.5 -25.5t25.5 -65.5q0 -44 -26 -68t-70 -24q-42 0 -67 24t-25 66zM578 1124q0 93 96 93q42 0 67 -24.5t25 -66.5q0 -44 -26 -68t-70 -24q-42 0 -67 24t-25 66z" />
<glyph unicode="&#xa9;" horiz-adv-x="1665" d="M72 672q0 168 61 308t162 242t241 164t308 62q131 0 244.5 -36t198.5 -101t147.5 -148t102.5 -183q56 -139 56 -300q0 -167 -60 -308t-158 -245q-99 -104 -236.5 -167.5t-302.5 -63.5q-167 0 -305 62t-238 164t-160.5 242.5t-60.5 307.5zM199 672q0 -220 106.5 -381.5 t276.5 -239.5q118 -53 254 -53q269 0 453 202q179 197 179 480q0 216 -102.5 375.5t-267.5 235.5q-113 52 -254 52q-218 0 -372 -115t-225 -295q-48 -121 -48 -261zM424 664q0 164 82.5 276t216.5 160q79 28 180 28q47 0 93 -5t71 -5q23 0 39 12l10 -6q-2 -14 -2 -40v-46 q0 -29 1 -55.5t1 -42.5h-26q-4 7 -12 24.5t-11.5 23.5t-11.5 19.5t-13.5 19t-14.5 15t-18.5 13t-22.5 8.5t-28 6.5t-34 1.5q-167 0 -250.5 -104.5t-83.5 -288.5q0 -180 80 -279.5t250 -99.5q30 0 53 6t37 12t28.5 24t19.5 26t19 36t19 37h28q-10 -66 -10 -178 q-93 -24 -189 -24h-32q-216 0 -342.5 108.5t-126.5 317.5z" />
<glyph unicode="&#xaa;" horiz-adv-x="751" d="M82 817q0 43 16 75.5t47.5 52.5t65.5 33t84 18.5t88.5 7.5t91.5 2v142q0 67 -29.5 100.5t-99.5 33.5q-52 0 -84 -8q23 -23 23 -47q0 -66 -64 -66q-31 0 -49 16t-18 46q0 39 36.5 65.5t85 36.5t103.5 10q134 0 182.5 -56t48.5 -196v-20q0 -15 -1 -61.5t-1 -66.5 q0 -19 -1 -56.5t-1 -49.5q0 -63 18.5 -78.5t88.5 -15.5l8 -22q-38 -34 -72 -51t-80 -17q-39 0 -62.5 19t-25.5 55q-69 -74 -186 -74q-93 0 -153 45t-60 127zM221 831q0 -54 37.5 -82t99.5 -28q59 0 117 24v213q-126 -7 -172 -22q-82 -28 -82 -105z" />
<glyph unicode="&#xab;" horiz-adv-x="774" d="M61 428l177 350h112l-151 -350l151 -350h-112zM377 428l176 350h113l-152 -350l152 -350h-113z" />
<glyph unicode="&#xac;" horiz-adv-x="1159" d="M41 831v132h1077v-572h-135v440h-942z" />
<glyph unicode="&#xad;" horiz-adv-x="608" d="M84 373v139h440v-139h-440z" />
<glyph unicode="&#xae;" horiz-adv-x="1665" d="M72 674q0 168 61 308t162 242t241 164t308 62q131 0 244.5 -36t198.5 -101t147.5 -148t102.5 -183q56 -139 56 -300q0 -167 -60 -308t-158 -245q-99 -104 -236.5 -167.5t-302.5 -63.5q-167 0 -305 62t-238 164t-160.5 242.5t-60.5 307.5zM199 674q0 -220 106.5 -381.5 t276.5 -239.5q118 -53 254 -53q269 0 453 202q179 197 179 480q0 216 -102.5 375.5t-267.5 235.5q-115 53 -254 53q-218 0 -372 -115t-225 -296q-48 -121 -48 -261zM481 254v22q27 4 44.5 15.5t26.5 24t13.5 40.5t5 47t0.5 63v17v459q0 93 -10 119q-18 42 -76 49v23 q88 -5 133 -5q21 0 51.5 1t46.5 1q15 0 42 1.5t47 1.5q321 0 321 -213q0 -91 -57 -143.5t-149 -69.5q122 -191 237 -327q27 -31 41 -45.5t40 -31t58 -24.5v-23q-70 -8 -106 -8q-28 0 -51 3.5t-39.5 7.5t-33 15t-25.5 18t-22.5 25t-19.5 27t-20 32t-21 34q-46 71 -137 219 q-3 4 -7.5 12.5t-6 11t-5 8t-6 6.5t-6.5 4t-9 3.5t-11.5 1t-15.5 0.5h-41v-232q0 -41 0.5 -58t5 -42.5t13.5 -35.5t26.5 -19.5t44.5 -12.5v-22q-98 4 -162 4q-60 0 -160 -4zM713 727h16q10 -2 21 -2h28q70 0 106 14.5t58 59.5q27 54 27 106q0 92 -46 134t-139 42h-53 q-14 -2 -18 -2v-352z" />
<glyph unicode="&#xaf;" d="M213 1073v111h598v-111h-598z" />
<glyph unicode="&#xb0;" horiz-adv-x="790" d="M115 1130q0 91 47.5 155t122.5 96q53 22 108 22q92 0 160.5 -46.5t100.5 -119.5q22 -52 22 -107q0 -92 -48 -156t-124 -96q-53 -22 -111 -22q-92 0 -159 47t-98 120q-21 49 -21 107zM207 1130q0 -79 54 -134.5t132 -55.5q79 0 135 56t56 134q0 79 -55.5 134t-135.5 55 q-79 0 -132.5 -54.5t-53.5 -134.5z" />
<glyph unicode="&#xb1;" horiz-adv-x="1159" d="M41 8v129h1077v-129h-1077zM41 743v129h469v471h139v-471h469v-129h-469v-471h-139v471h-469z" />
<glyph unicode="&#xb2;" horiz-adv-x="512" d="M-2 752v61q21 19 62.5 55.5t66 58.5t58 55.5t59.5 64.5q43 51 62.5 93t19.5 109q0 71 -31.5 110.5t-95.5 39.5q-41 0 -64 -8q19 -19 19 -56q0 -67 -68 -67q-31 0 -49.5 17.5t-18.5 49.5q0 44 34.5 71.5t78 36.5t96.5 9q103 0 164.5 -47.5t61.5 -144.5q0 -95 -48.5 -163.5 t-128.5 -127.5q-101 -79 -180 -127h193q73 0 104 18.5t58 71.5h30q-16 -55 -16 -160v-20h-467z" />
<glyph unicode="&#xb3;" horiz-adv-x="512" d="M14 852q0 72 70 72q30 0 49 -17.5t19 -46.5q0 -25 -21 -49q29 -8 76 -8q164 0 164 149q0 138 -172 138h-19q-1 0 -3.5 -1t-4.5 -1.5t-4 -0.5v50q89 10 131.5 38.5t42.5 100.5q0 64 -28.5 93.5t-94.5 29.5q-34 0 -63 -8q20 -20 20 -56q0 -67 -70 -67q-30 0 -48.5 17.5 t-18.5 47.5q0 119 209 119q89 0 151 -38.5t62 -115.5q0 -72 -41.5 -109.5t-116.5 -58.5q84 -6 134 -50t50 -124q0 -104 -76.5 -156t-195.5 -52q-50 0 -91.5 7.5t-75.5 32t-34 64.5z" />
<glyph unicode="&#xb4;" d="M262 1020l352 369q34 34 70 34q34 0 57 -23.5t23 -56.5q0 -48 -49 -77l-432 -271z" />
<glyph unicode="&#xb5;" horiz-adv-x="1110" d="M68 -319q42 20 56.5 32.5t41.5 50.5q27 41 27 183v633q0 18 0.5 50.5t0.5 46.5t-2 35t-7.5 35t-14.5 27q-14 21 -31.5 29t-50.5 12v31h12q135 0 238 39l6 -4q-8 -106 -8 -355v-114q0 -114 8 -166q24 -187 231 -187q94 0 187 60v461q0 19 1 60.5t0.5 57t-6 38t-16.5 38.5 q-14 21 -31.5 29t-50.5 12v31h13q134 0 237 39l6 -4q-4 -45 -4 -149v-525q0 -62 14 -93.5t62 -31.5q29 0 41 12l19 -18q-35 -44 -70.5 -67t-93.5 -23q-57 0 -87 29.5t-30 84.5q-92 -116 -242 -116q-133 0 -185 67q-13 16 -17 19v-357q-157 -23 -242 -59z" />
<glyph unicode="&#xb6;" horiz-adv-x="831" d="M63 979q0 241 220 340q79 33 243 33h108q40 0 148 6v-27q-122 -22 -146 -81q-7 -18 -11.5 -37t-6.5 -49.5t-2.5 -43t0 -58t0.5 -52.5v-867v-56v-104.5t-2.5 -92.5t-8 -90t-15.5 -76.5t-25 -72.5t-38 -58.5t-53 -53.5q-84 -65 -206 -65q-73 0 -122.5 24.5t-49.5 81.5 q0 40 24 63t64 23q35 0 59.5 -21t24.5 -55q0 -38 -28 -59h8q54 0 93 17.5t61 45.5t34.5 73.5t16.5 89.5t4 106v743q-180 10 -287 103.5t-107 269.5z" />
<glyph unicode="&#xb7;" horiz-adv-x="409" d="M80 676q0 52 36.5 86.5t88.5 34.5q51 0 88 -35t37 -86t-37 -86t-88 -35q-52 0 -88.5 34.5t-36.5 86.5z" />
<glyph unicode="&#xb8;" d="M416 -453q96 92 96 193q0 20 -4 38t-13 34.5t-15.5 26t-20.5 26.5t-18 23q-13 17 -13 42q0 33 35 68h53l-7 -7l-8.5 -8.5t-6.5 -8t-5.5 -11t-1.5 -12.5q0 -16 10.5 -26t36.5 -20t29 -11q37 -18 56.5 -46.5t19.5 -78.5q0 -89 -61.5 -150t-147.5 -92z" />
<glyph unicode="&#xb9;" horiz-adv-x="512" d="M14 1280v29q98 34 165.5 66.5t133.5 82.5l13 -8q-11 -242 -11 -367v-120v-14q0 -70 7.5 -97t41.5 -52q23 -17 58 -22v-26q-94 4 -164 4q-66 0 -164 -4v26q31 4 51.5 17t32 29t17.5 47t7 57t1 73v273q0 29 -29 29q-25 0 -50 -3.5t-58 -10t-52 -9.5z" />
<glyph unicode="&#xba;" horiz-adv-x="768" d="M61 987q0 160 96.5 258t254.5 98q153 0 244.5 -93t91.5 -246q0 -162 -95.5 -260.5t-255.5 -98.5q-155 0 -245.5 93t-90.5 249zM205 989q0 -81 17 -142.5t63 -104t118 -42.5q55 0 95.5 23.5t63 65t32.5 91t10 109.5q0 61 -9.5 110.5t-31 91.5t-61.5 65.5t-96 23.5 t-96 -23.5t-62.5 -65.5t-32.5 -91.5t-10 -110.5z" />
<glyph unicode="&#xbb;" horiz-adv-x="774" d="M109 78l151 350l-151 350h112l176 -350l-176 -350h-112zM424 78l151 350l-151 350h113l176 -350l-176 -350h-113z" />
<glyph unicode="&#xbc;" d="M41 1280v29q98 34 165.5 66.5t133.5 82.5l12 -8q-10 -220 -10 -367v-120q0 -89 7 -110q10 -30 41 -53q23 -17 59 -22v-26q-94 4 -164 4q-66 0 -164 -4v26q31 4 51.5 17t32 29t17 47t6.5 56.5t1 73.5v273q0 29 -28 29q-25 0 -50 -3.5t-58 -10t-52 -9.5zM80 -90l850 1577 l71 -37l-849 -1577zM410 115v51l16 24q130 200 326 396l53 20q24 10 43 23l16 -8q-10 -224 -10 -353v-71h102v-82h-102v-29q0 -65 24.5 -96.5t82.5 -42.5v-25q-78 4 -154 4h-76q-49 0 -82 -4v25q54 11 77.5 43.5t23.5 101.5v23h-340zM508 197h242v323z" />
<glyph unicode="&#xbd;" d="M20 1280v29q98 34 165.5 66.5t133.5 82.5l13 -8q-10 -220 -10 -367v-120q0 -89 7 -110q10 -30 41 -53q23 -17 58 -22v-26q-94 4 -164 4q-66 0 -164 -4v26q31 4 51.5 17t32 29t17.5 47t7 57t1 73v273q0 29 -29 29q-25 0 -50 -3.5t-58 -10t-52 -9.5zM27 -90l850 1577 l71 -37l-850 -1577zM492 -16q21 19 62.5 55.5t66 58.5t57.5 55t59 64q43 51 62.5 93.5t19.5 109.5q0 71 -31.5 110t-95.5 39q-40 0 -63 -8q18 -18 18 -55q0 -68 -67 -68q-31 0 -49.5 18t-18.5 50q0 44 34.5 71.5t78 36.5t96.5 9q103 0 164 -48t61 -145q0 -50 -14.5 -95 t-42 -81t-55 -62t-64.5 -53q-101 -79 -180 -127h192q73 0 104 18.5t58 71.5h31q-17 -58 -17 -159v-21h-466v62z" />
<glyph unicode="&#xbe;" d="M66 852q0 72 69 72q30 0 49 -17.5t19 -46.5q0 -25 -21 -49q29 -8 76 -8q164 0 164 149q0 138 -172 138h-19q-1 0 -3.5 -1t-4.5 -1.5t-4 -0.5v50q89 10 131.5 38.5t42.5 100.5q0 64 -28.5 93.5t-94.5 29.5q-34 0 -63 -8q20 -20 20 -56q0 -67 -69 -67q-30 0 -49 17.5 t-19 47.5q0 119 209 119q89 0 151 -38.5t62 -115.5q0 -72 -41.5 -109.5t-116.5 -58.5q84 -6 134.5 -50.5t50.5 -123.5q0 -104 -77 -156t-196 -52q-36 0 -68 4.5t-63.5 15.5t-50 32.5t-18.5 51.5zM123 -90l850 1577l71 -37l-849 -1577zM444 115v51l17 24q132 203 325 396 l54 20q24 10 43 23l16 -8q-10 -224 -10 -353v-71h102v-82h-102v-29q0 -65 24 -96.5t82 -42.5v-25q-78 4 -153 4h-76q-49 0 -82 -4v25q54 11 77 43.5t23 101.5v23h-340zM543 197h241v323z" />
<glyph unicode="&#xbf;" horiz-adv-x="915" d="M133 -180q0 124 108 269q33 44 118 138.5t120 147.5q22 33 27.5 71t5.5 111h76q6 -76 6 -111q0 -64 -33 -122q-23 -43 -68 -107t-77 -110.5t-58 -120.5t-26 -154q0 -123 60 -189.5t179 -66.5q20 0 48.5 2t42.5 2q4 1 8.5 2.5t7 2.5t4.5 1q-27 27 -27 62q0 86 88 86 q39 0 62.5 -20.5t23.5 -57.5q0 -43 -28.5 -73t-77.5 -43.5t-95.5 -19t-99.5 -5.5q-85 0 -154.5 17t-124.5 52t-85.5 95.5t-30.5 140.5zM432 786q0 53 30 83t83 30t82.5 -29t29.5 -82t-29.5 -82.5t-82.5 -29.5q-54 0 -83.5 28.5t-29.5 81.5z" />
<glyph unicode="&#xc0;" horiz-adv-x="1323" d="M0 -4v27q62 12 95.5 50t60.5 103l446 1145q59 7 158 55q369 -1088 407 -1202q21 -62 57 -98.5t99 -50.5v-29q-77 8 -225 8t-224 -8v27q46 0 99 32q22 18 22 49q0 20 -24 99l-121 366h-428l-113 -325q-3 -8 -12 -32.5t-13.5 -38t-9 -33t-4.5 -34.5q0 -19 6.5 -32.5 t22 -21.5t26 -12t35 -8.5t31.5 -6.5v-29q-56 8 -194 8q-132 0 -197 -8zM395 1772q0 32 23 55.5t55 23.5q40 0 70 -34l354 -369l-18 -25l-433 271q-51 33 -51 78zM446 643h379l-157 473q-6 15 -14 48t-13 46q-2 -13 -29 -94z" />
<glyph unicode="&#xc1;" horiz-adv-x="1323" d="M0 -4v27q62 12 95.5 50t60.5 103l446 1145q59 7 158 55q369 -1088 407 -1202q21 -62 57 -98.5t99 -50.5v-29q-77 8 -225 8t-224 -8v27q46 0 99 32q22 18 22 49q0 20 -24 99l-121 366h-428l-113 -325q-3 -8 -12 -32.5t-13.5 -38t-9 -33t-4.5 -34.5q0 -19 6.5 -32.5 t22 -21.5t26 -12t35 -8.5t31.5 -6.5v-29q-56 8 -194 8q-132 0 -197 -8zM442 1448l353 369q34 34 69 34q34 0 57 -23t23 -56q0 -49 -49 -78l-432 -271zM446 643h379l-157 473q-6 15 -14 48t-13 46q-2 -13 -29 -94z" />
<glyph unicode="&#xc2;" horiz-adv-x="1323" d="M0 -4v27q62 12 95.5 50t60.5 103l446 1145q59 7 158 55q369 -1088 407 -1202q21 -62 57 -98.5t99 -50.5v-29q-77 8 -225 8t-224 -8v27q46 0 99 32q22 18 22 49q0 20 -24 99l-121 366h-428l-113 -325q-3 -8 -12 -32.5t-13.5 -38t-9 -33t-4.5 -34.5q0 -19 6.5 -32.5 t22 -21.5t26 -12t35 -8.5t31.5 -6.5v-29q-56 8 -194 8q-132 0 -197 -8zM367 1430l315 362l315 -362l-18 -21l-297 197l-297 -197zM446 643h379l-157 473q-6 15 -14 48t-13 46q-2 -13 -29 -94z" />
<glyph unicode="&#xc3;" horiz-adv-x="1323" d="M0 -4v27q62 12 95.5 50t60.5 103l446 1145q59 7 158 55q369 -1088 407 -1202q21 -62 57 -98.5t99 -50.5v-29q-77 8 -225 8t-224 -8v27q46 0 99 32q22 18 22 49q0 20 -24 99l-121 366h-428l-113 -325q-3 -8 -12 -32.5t-13.5 -38t-9 -33t-4.5 -34.5q0 -19 6.5 -32.5 t22 -21.5t26 -12t35 -8.5t31.5 -6.5v-29q-56 8 -194 8q-132 0 -197 -8zM410 1493q40 99 104 138q33 20 66 20q23 0 40 -3t27.5 -7t38.5 -15l64 -27q8 -3 22 -9t23 -9.5t22.5 -6.5t26.5 -3q37 0 61 17.5t47 53.5l23 -16q-42 -103 -103 -140q-33 -20 -67 -20q-9 0 -16.5 0.5 t-13 1t-13.5 2.5t-11 2.5t-12.5 4t-11.5 4.5t-14 6t-15 6l-61 27q-59 26 -96 26t-61.5 -17.5t-47.5 -51.5zM446 643h379l-157 473q-6 15 -14 48t-13 46q-2 -13 -29 -94z" />
<glyph unicode="&#xc4;" horiz-adv-x="1323" d="M0 -4v27q62 12 95.5 50t60.5 103l446 1145q59 7 158 55q369 -1088 407 -1202q21 -62 57 -98.5t99 -50.5v-29q-77 8 -225 8t-224 -8v27q46 0 99 32q22 18 22 49q0 20 -24 99l-121 366h-428l-113 -325q-3 -8 -12 -32.5t-13.5 -38t-9 -33t-4.5 -34.5q0 -19 6.5 -32.5 t22 -21.5t26 -12t35 -8.5t31.5 -6.5v-29q-56 8 -194 8q-132 0 -197 -8zM422 1540q0 92 96 92q41 0 66.5 -25t25.5 -65q0 -44 -26 -68t-70 -24q-42 0 -67 24t-25 66zM446 643h379l-157 473q-6 15 -14 48t-13 46q-2 -13 -29 -94zM741 1540q0 92 97 92q42 0 67 -24t25 -66 q0 -44 -26 -68t-70 -24q-42 0 -67.5 24t-25.5 66z" />
<glyph unicode="&#xc5;" horiz-adv-x="1323" d="M0 -4v27q62 12 95.5 50t60.5 103l446 1145q59 7 158 55q369 -1088 407 -1202q21 -62 57 -98.5t99 -50.5v-29q-77 8 -225 8t-224 -8v27q46 0 99 32q22 18 22 49q0 20 -24 99l-121 366h-428l-113 -325q-3 -8 -12 -32.5t-13.5 -38t-9 -33t-4.5 -34.5q0 -19 6.5 -32.5 t22 -21.5t26 -12t35 -8.5t31.5 -6.5v-29q-56 8 -194 8q-132 0 -197 -8zM446 643h379l-157 473q-6 15 -14 48t-13 46q-2 -13 -29 -94zM500 1626q0 77 54 128.5t132 51.5t133 -52t55 -128q0 -77 -55 -129.5t-133 -52.5t-132 52.5t-54 129.5zM582 1626q0 -44 30.5 -77t73.5 -33 q45 0 76 32t31 78q0 45 -31 77t-76 32q-42 0 -73 -33t-31 -76z" />
<glyph unicode="&#xc6;" horiz-adv-x="1728" d="M23 -4v27q32 6 58 20t47 39.5t32 42.5t30 51l654 1180q41 -10 188 -10h295q187 0 275 20l14 -10q-6 -25 -6 -125q0 -21 1 -55t1 -49q0 -10 1 -23t1 -21h-25q-48 130 -84 158q-14 10 -37 16.5t-44 10t-57 5t-55.5 2t-62 0t-55.5 -0.5h-139v-557h215q75 0 110.5 12.5 t57.5 55.5q10 18 32 75h29q0 -10 -1 -27t-1 -28q0 -19 -1 -59.5t-1 -67.5q0 -37 3 -92.5t3 -85.5h-28q-3 7 -13 31.5t-14 32t-14.5 24.5t-19.5 24t-24 15t-33 11q-33 5 -83 5h-217v-467q0 -60 16 -80t72 -20h129q131 0 192 14.5t101 75.5q30 46 63 119h29q-21 -185 -21 -287 q-256 6 -379 6h-159q-189 0 -387 -8v27q33 6 71.5 20t53.5 29q10 12 17.5 26.5t12 34t7 35t3.5 42.5t1.5 41.5t0 48t-0.5 46.5v297h-318l-190 -375q-1 -2 -14.5 -26t-19.5 -35.5t-16 -33t-14 -39t-4 -32.5t6 -26.5t13.5 -18.5t23 -13t24.5 -8.5t28.5 -7t25.5 -5.5v-27 q-32 0 -92 4t-99 4q-106 0 -208 -8zM596 717h281v551z" />
<glyph unicode="&#xc7;" horiz-adv-x="1202" d="M72 655q0 315 188 521q81 89 215 138.5t303 49.5q50 0 138 -8t124 -8t60 18l18 -8q-2 -36 -2 -51q-4 -42 -4 -76q0 -79 4 -111q0 -15 2 -35h-26q-4 7 -11 22q-45 92 -78 126q-61 61 -169 61q-286 0 -423 -160.5t-137 -461.5q0 -611 549 -611q50 0 89 11.5t63 25.5 t49 46.5t35.5 52.5t33.5 66l9 18h28q-16 -108 -16 -256q-122 -37 -332 -37h-49q-14 -14 -14 -33q0 -13 9 -23t18.5 -14.5t28 -11.5t23.5 -9q79 -36 79 -128q0 -124 -137 -213q-38 -24 -78 -39l-15 20q98 98 98 201q0 27 -8 51.5t-15.5 36.5t-26.5 35t-24 30q-14 19 -14 43 q0 33 23 58q-292 18 -450 189.5t-158 473.5z" />
<glyph unicode="&#xc8;" horiz-adv-x="1054" d="M37 -2v25q96 20 125 49q10 12 17.5 26.5t12 34t7 34.5t3.5 42.5t1.5 42t0 48t-0.5 46.5v727v19q0 35 -0.5 51.5t-2.5 42.5t-6.5 39.5t-12.5 30t-21.5 27.5t-32.5 20q-25 12 -86 24v27q101 -8 209 -8h405q189 0 277 20l10 -10q-6 -25 -6 -125q0 -30 3 -77.5t3 -70.5h-27 q-38 123 -84 158q-16 12 -40.5 19.5t-65 10.5t-62 3.5t-78 0t-65.5 -0.5h-139v-539h217q74 0 110 13.5t58 55.5q13 24 33 75h28q0 -29 -3 -87.5t-3 -95.5t3 -92.5t3 -85.5h-28q-1 4 -7.5 20t-8 20t-7 17.5t-8.5 17.5t-9 14.5t-11 14.5t-12.5 11.5t-15 10.5t-17.5 6.5 t-21 5.5q-40 6 -84 6h-217v-486q0 -61 16.5 -80.5t73.5 -19.5h129q131 0 192 14.5t101 75.5q30 46 63 119h27q-20 -172 -20 -287l-189 4q-126 2 -188 2h-174q-186 0 -375 -6zM274 1772q0 32 23 55.5t55 23.5q40 0 70 -34l354 -369l-18 -25l-432 271q-52 34 -52 78z" />
<glyph unicode="&#xc9;" horiz-adv-x="1054" d="M37 -2v25q96 20 125 49q10 12 17.5 26.5t12 34t7 34.5t3.5 42.5t1.5 42t0 48t-0.5 46.5v727v19q0 35 -0.5 51.5t-2.5 42.5t-6.5 39.5t-12.5 30t-21.5 27.5t-32.5 20q-25 12 -86 24v27q101 -8 209 -8h405q189 0 277 20l10 -10q-6 -25 -6 -125q0 -30 3 -77.5t3 -70.5h-27 q-38 123 -84 158q-16 12 -40.5 19.5t-65 10.5t-62 3.5t-78 0t-65.5 -0.5h-139v-539h217q74 0 110 13.5t58 55.5q13 24 33 75h28q0 -29 -3 -87.5t-3 -95.5t3 -92.5t3 -85.5h-28q-1 4 -7.5 20t-8 20t-7 17.5t-8.5 17.5t-9 14.5t-11 14.5t-12.5 11.5t-15 10.5t-17.5 6.5 t-21 5.5q-40 6 -84 6h-217v-486q0 -61 16.5 -80.5t73.5 -19.5h129q131 0 192 14.5t101 75.5q30 46 63 119h27q-20 -172 -20 -287l-189 4q-126 2 -188 2h-174q-186 0 -375 -6zM356 1448l353 369q34 34 69 34q34 0 57 -23t23 -56q0 -49 -49 -78l-432 -271z" />
<glyph unicode="&#xca;" horiz-adv-x="1054" d="M37 -2v25q96 20 125 49q10 12 17.5 26.5t12 34t7 34.5t3.5 42.5t1.5 42t0 48t-0.5 46.5v727v19q0 35 -0.5 51.5t-2.5 42.5t-6.5 39.5t-12.5 30t-21.5 27.5t-32.5 20q-25 12 -86 24v27q101 -8 209 -8h405q189 0 277 20l10 -10q-6 -25 -6 -125q0 -30 3 -77.5t3 -70.5h-27 q-38 123 -84 158q-16 12 -40.5 19.5t-65 10.5t-62 3.5t-78 0t-65.5 -0.5h-139v-539h217q74 0 110 13.5t58 55.5q13 24 33 75h28q0 -29 -3 -87.5t-3 -95.5t3 -92.5t3 -85.5h-28q-1 4 -7.5 20t-8 20t-7 17.5t-8.5 17.5t-9 14.5t-11 14.5t-12.5 11.5t-15 10.5t-17.5 6.5 t-21 5.5q-40 6 -84 6h-217v-486q0 -61 16.5 -80.5t73.5 -19.5h129q131 0 192 14.5t101 75.5q30 46 63 119h27q-20 -172 -20 -287l-189 4q-126 2 -188 2h-174q-186 0 -375 -6zM238 1430l315 362l315 -362l-18 -21l-297 197l-297 -197z" />
<glyph unicode="&#xcb;" horiz-adv-x="1054" d="M37 -2v25q96 20 125 49q10 12 17.5 26.5t12 34t7 34.5t3.5 42.5t1.5 42t0 48t-0.5 46.5v727v19q0 35 -0.5 51.5t-2.5 42.5t-6.5 39.5t-12.5 30t-21.5 27.5t-32.5 20q-25 12 -86 24v27q101 -8 209 -8h405q189 0 277 20l10 -10q-6 -25 -6 -125q0 -30 3 -77.5t3 -70.5h-27 q-38 123 -84 158q-16 12 -40.5 19.5t-65 10.5t-62 3.5t-78 0t-65.5 -0.5h-139v-539h217q74 0 110 13.5t58 55.5q13 24 33 75h28q0 -29 -3 -87.5t-3 -95.5t3 -92.5t3 -85.5h-28q-1 4 -7.5 20t-8 20t-7 17.5t-8.5 17.5t-9 14.5t-11 14.5t-12.5 11.5t-15 10.5t-17.5 6.5 t-21 5.5q-40 6 -84 6h-217v-486q0 -61 16.5 -80.5t73.5 -19.5h129q131 0 192 14.5t101 75.5q30 46 63 119h27q-20 -172 -20 -287l-189 4q-126 2 -188 2h-174q-186 0 -375 -6zM295 1540q0 92 96 92q41 0 66.5 -25t25.5 -65q0 -44 -26 -68t-70 -24q-42 0 -67 24t-25 66z M614 1540q0 92 97 92q42 0 67 -24t25 -66q0 -44 -26 -68t-70 -24q-42 0 -67.5 24t-25.5 66z" />
<glyph unicode="&#xcc;" horiz-adv-x="583" d="M37 -4v27q96 20 125 49q10 12 17.5 26.5t12 34t7 34.5t3.5 42.5t1.5 42t0 48t-0.5 46.5v727v19q0 35 -0.5 51.5t-2.5 42.5t-6.5 39.5t-12.5 30t-21.5 27.5t-32.5 20q-25 12 -86 24v27q123 -8 250 -8q165 0 256 8v-27q-33 -6 -71.5 -20t-53.5 -29q-10 -12 -17.5 -26.5 t-12 -34t-7 -35t-3.5 -42.5t-1.5 -41.5t0 -48t0.5 -46.5v-764q0 -90 12.5 -130.5t62.5 -62.5q26 -13 87 -24v-27q-123 8 -250 8q-165 0 -256 -8zM41 1772q0 32 23 55.5t55 23.5q39 0 69 -34l355 -369l-19 -25l-432 271q-51 33 -51 78z" />
<glyph unicode="&#xcd;" horiz-adv-x="583" d="M37 -4v27q96 20 125 49q10 12 17.5 26.5t12 34t7 34.5t3.5 42.5t1.5 42t0 48t-0.5 46.5v727v19q0 35 -0.5 51.5t-2.5 42.5t-6.5 39.5t-12.5 30t-21.5 27.5t-32.5 20q-25 12 -86 24v27q123 -8 250 -8q165 0 256 8v-27q-33 -6 -71.5 -20t-53.5 -29q-10 -12 -17.5 -26.5 t-12 -34t-7 -35t-3.5 -42.5t-1.5 -41.5t0 -48t0.5 -46.5v-764q0 -90 12.5 -130.5t62.5 -62.5q26 -13 87 -24v-27q-123 8 -250 8q-165 0 -256 -8zM43 1448l352 369q34 34 70 34q34 0 57 -23t23 -56q0 -49 -49 -78l-433 -271z" />
<glyph unicode="&#xce;" horiz-adv-x="583" d="M-20 1430l315 362l315 -362l-18 -21l-297 197l-297 -197zM37 -4v27q96 20 125 49q10 12 17.5 26.5t12 34t7 34.5t3.5 42.5t1.5 42t0 48t-0.5 46.5v727v19q0 35 -0.5 51.5t-2.5 42.5t-6.5 39.5t-12.5 30t-21.5 27.5t-32.5 20q-25 12 -86 24v27q123 -8 250 -8q165 0 256 8 v-27q-33 -6 -71.5 -20t-53.5 -29q-10 -12 -17.5 -26.5t-12 -34t-7 -35t-3.5 -42.5t-1.5 -41.5t0 -48t0.5 -46.5v-764q0 -90 12.5 -130.5t62.5 -62.5q26 -13 87 -24v-27q-123 8 -250 8q-165 0 -256 -8z" />
<glyph unicode="&#xcf;" horiz-adv-x="583" d="M37 -4v27q96 20 125 49q10 12 17.5 26.5t12 34t7 34.5t3.5 42.5t1.5 42t0 48t-0.5 46.5v727v19q0 35 -0.5 51.5t-2.5 42.5t-6.5 39.5t-12.5 30t-21.5 27.5t-32.5 20q-25 12 -86 24v27q123 -8 250 -8q165 0 256 8v-27q-33 -6 -71.5 -20t-53.5 -29q-10 -12 -17.5 -26.5 t-12 -34t-7 -35t-3.5 -42.5t-1.5 -41.5t0 -48t0.5 -46.5v-764q0 -90 12.5 -130.5t62.5 -62.5q26 -13 87 -24v-27q-123 8 -250 8q-165 0 -256 -8zM39 1540q0 92 96 92q41 0 66.5 -25t25.5 -65q0 -44 -26 -68t-70 -24q-42 0 -67 24t-25 66zM358 1540q0 92 97 92q42 0 67 -24 t25 -66q0 -44 -26 -68t-70 -24q-42 0 -67.5 24t-25.5 66z" />
<glyph unicode="&#xd0;" horiz-adv-x="1411" d="M20 657v74h195v342v19q0 35 -0.5 51.5t-2.5 42.5t-6.5 39.5t-12.5 30t-21.5 27.5t-32.5 20q-25 12 -86 24v27q104 -8 197 -8q62 0 173 4t173 4q150 0 258.5 -19t196.5 -69q137 -79 212.5 -222t75.5 -344q0 -309 -160 -492.5t-450 -203.5q-89 -6 -186 -6q-55 0 -158 3 t-158 3q-71 0 -178 -8v27q97 19 125 49q10 12 17.5 26.5t12 34t7 34.5t3.5 42.5t1.5 42t0 48t-0.5 46.5v311h-195zM393 168q0 -46 14 -69.5t52 -27.5q30 -3 59 -3q181 0 305.5 42t198.5 140q115 151 115 424q0 211 -71.5 361t-215.5 202q-119 43 -324 43h-66q-21 0 -67 -2 v-547h219v-74h-219v-489z" />
<glyph unicode="&#xd1;" horiz-adv-x="1415" d="M37 -4v27q96 20 125 49q10 12 17.5 26.5t12 34t7 34.5t3.5 42.5t1.5 42t0 48t-0.5 46.5v727v19q0 35 -0.5 51.5t-2.5 42.5t-6.5 39.5t-12.5 30t-21.5 27.5t-32.5 20q-25 12 -86 24v27q101 -8 184 -8q79 0 111 6l731 -953q25 -29 68 -98v809q0 90 -12.5 130.5t-62.5 62.5 q-26 13 -87 24v27q131 -8 213 -8q134 0 219 8v-27q-96 -20 -125 -49q-10 -12 -17.5 -26t-12 -34t-7 -34.5t-3.5 -41.5t-1.5 -41.5t0 -48t0.5 -46.5v-1014h-78l-805 1048q-36 48 -49 76v-876q0 -90 12.5 -130.5t62.5 -62.5q26 -13 87 -24v-27q-130 8 -217 8h-49q-1 0 -166 -8 zM444 1491q40 98 105 138q33 20 65 20q33 0 51 -5t56 -20l63 -27q7 -3 22 -9t24 -9.5t22.5 -6.5t26.5 -3q37 0 61 17.5t47 53.5l23 -16q-42 -103 -103 -140q-33 -20 -67 -20q-9 0 -16.5 0.5t-13 1t-13.5 2.5t-11 2.5t-12.5 4t-11.5 4.5t-14 6t-15 6l-61 27q-59 26 -97 26 q-36 0 -60 -17.5t-48 -51.5z" />
<glyph unicode="&#xd2;" horiz-adv-x="1437" d="M72 657q0 238 100 406.5t275 246.5q122 54 278 54q229 0 380 -105.5t217 -289.5q44 -124 44 -271q0 -242 -98 -410.5t-274 -248.5q-120 -55 -279 -55q-231 0 -383 107t-217 293q-43 123 -43 273zM276 672q0 -193 56.5 -337t170.5 -218q86 -56 212 -56q93 0 169 33.5 t127 90.5t86 135.5t50.5 166.5t15.5 185q0 195 -55.5 340t-168.5 219q-85 55 -214 55q-94 0 -170.5 -33.5t-127.5 -90.5t-85.5 -136t-50 -167.5t-15.5 -186.5zM412 1772q0 32 22.5 55.5t54.5 23.5q40 0 70 -34l354 -369l-18 -25l-432 271q-51 33 -51 78z" />
<glyph unicode="&#xd3;" horiz-adv-x="1437" d="M72 657q0 238 100 406.5t275 246.5q122 54 278 54q229 0 380 -105.5t217 -289.5q44 -124 44 -271q0 -242 -98 -410.5t-274 -248.5q-120 -55 -279 -55q-231 0 -383 107t-217 293q-43 123 -43 273zM276 672q0 -193 56.5 -337t170.5 -218q86 -56 212 -56q93 0 169 33.5 t127 90.5t86 135.5t50.5 166.5t15.5 185q0 195 -55.5 340t-168.5 219q-85 55 -214 55q-94 0 -170.5 -33.5t-127.5 -90.5t-85.5 -136t-50 -167.5t-15.5 -186.5zM485 1448l353 369q34 34 69 34q34 0 57 -23t23 -56q0 -49 -49 -78l-432 -271z" />
<glyph unicode="&#xd4;" horiz-adv-x="1437" d="M72 657q0 238 100 406.5t275 246.5q122 54 278 54q229 0 380 -105.5t217 -289.5q44 -124 44 -271q0 -242 -98 -410.5t-274 -248.5q-120 -55 -279 -55q-231 0 -383 107t-217 293q-43 123 -43 273zM276 672q0 -193 56.5 -337t170.5 -218q86 -56 212 -56q93 0 169 33.5 t127 90.5t86 135.5t50.5 166.5t15.5 185q0 195 -55.5 340t-168.5 219q-85 55 -214 55q-94 0 -170.5 -33.5t-127.5 -90.5t-85.5 -136t-50 -167.5t-15.5 -186.5zM403 1430l316 362l315 -362l-18 -21l-297 197l-297 -197z" />
<glyph unicode="&#xd5;" horiz-adv-x="1437" d="M72 657q0 238 100 406.5t275 246.5q122 54 278 54q229 0 380 -105.5t217 -289.5q44 -124 44 -271q0 -242 -98 -410.5t-274 -248.5q-120 -55 -279 -55q-231 0 -383 107t-217 293q-43 123 -43 273zM276 672q0 -193 56.5 -337t170.5 -218q86 -56 212 -56q93 0 169 33.5 t127 90.5t86 135.5t50.5 166.5t15.5 185q0 195 -55.5 340t-168.5 219q-85 55 -214 55q-94 0 -170.5 -33.5t-127.5 -90.5t-85.5 -136t-50 -167.5t-15.5 -186.5zM444 1493q40 98 105 138q33 20 65 20q33 0 51 -5t56 -20l63 -27q7 -3 22 -9t24 -9.5t22.5 -6.5t26.5 -3 q37 0 61 17.5t47 53.5l23 -16q-42 -103 -103 -140q-33 -20 -67 -20q-9 0 -16.5 0.5t-13 1t-13.5 2.5t-11 2.5t-12.5 4t-11.5 4.5t-14 6t-15 6l-61 27q-59 26 -97 26q-36 0 -60 -17.5t-48 -51.5z" />
<glyph unicode="&#xd6;" horiz-adv-x="1437" d="M72 657q0 238 100 406.5t275 246.5q122 54 278 54q229 0 380 -105.5t217 -289.5q44 -124 44 -271q0 -242 -98 -410.5t-274 -248.5q-120 -55 -279 -55q-231 0 -383 107t-217 293q-43 123 -43 273zM276 672q0 -193 56.5 -337t170.5 -218q86 -56 212 -56q93 0 169 33.5 t127 90.5t86 135.5t50.5 166.5t15.5 185q0 195 -55.5 340t-168.5 219q-85 55 -214 55q-94 0 -170.5 -33.5t-127.5 -90.5t-85.5 -136t-50 -167.5t-15.5 -186.5zM469 1540q0 92 96 92q41 0 66.5 -25t25.5 -65q0 -44 -26 -68t-70 -24q-42 0 -67 24t-25 66zM788 1540q0 92 97 92 q42 0 67 -24t25 -66q0 -44 -26 -68t-70 -24q-42 0 -67.5 24t-25.5 66z" />
<glyph unicode="&#xd7;" horiz-adv-x="1159" d="M109 297l378 379l-378 377l92 94l377 -379l380 379l93 -92l-381 -379l381 -379l-95 -92l-378 379l-377 -379z" />
<glyph unicode="&#xd8;" horiz-adv-x="1437" d="M72 657q0 238 100 406.5t275 246.5q122 54 278 54q147 0 254 -43l88 174l86 -43l-88 -170q141 -81 221 -230.5t80 -353.5q0 -242 -98 -410.5t-274 -248.5q-120 -55 -279 -55q-163 0 -283 53l-84 -162l-84 43l84 164q-131 83 -203.5 230t-72.5 345zM276 672 q0 -142 34 -265.5t98 -205.5l526 1032q-84 53 -209 53q-94 0 -170.5 -33.5t-127.5 -90.5t-85.5 -136t-50 -167.5t-15.5 -186.5zM479 133q86 -72 236 -72q93 0 169 33.5t127 90.5t86 135.5t50.5 166.5t15.5 185q0 339 -153 499z" />
<glyph unicode="&#xd9;" horiz-adv-x="1384" d="M18 1327v27q123 -8 250 -8q165 0 256 8v-27q-33 -6 -71.5 -20t-53.5 -29q-10 -12 -17.5 -26.5t-12 -34t-7 -35t-3.5 -42.5t-1.5 -41.5t0 -48t0.5 -46.5v-478q0 -182 30 -283t127 -148q69 -34 196 -34q164 0 247.5 67t95.5 212q7 80 7 188v582q0 90 -12.5 130.5 t-62.5 62.5q-26 13 -87 24v27q128 -8 231 -8q144 0 238 8v-27q-96 -20 -125 -49q-10 -12 -17.5 -26t-12 -34t-7 -34.5t-3.5 -41.5t-1.5 -41.5t0 -48t0.5 -46.5v-324v-77v-75.5t-1 -66.5t-3 -66t-6 -58t-10.5 -57.5t-15.5 -49.5t-21.5 -49.5t-29 -42t-36.5 -41.5 q-124 -117 -389 -117q-240 0 -367.5 95t-138.5 305q-4 68 -4 163v528v19q0 35 -0.5 51.5t-2.5 42.5t-6.5 39.5t-12.5 30t-21.5 27.5t-32.5 20q-25 12 -86 24zM410 1772q0 32 22.5 55.5t54.5 23.5q40 0 70 -34l354 -369l-18 -25l-432 271q-51 33 -51 78z" />
<glyph unicode="&#xda;" horiz-adv-x="1384" d="M18 1327v27q123 -8 250 -8q165 0 256 8v-27q-33 -6 -71.5 -20t-53.5 -29q-10 -12 -17.5 -26.5t-12 -34t-7 -35t-3.5 -42.5t-1.5 -41.5t0 -48t0.5 -46.5v-478q0 -182 30 -283t127 -148q69 -34 196 -34q164 0 247.5 67t95.5 212q7 80 7 188v582q0 90 -12.5 130.5 t-62.5 62.5q-26 13 -87 24v27q128 -8 231 -8q144 0 238 8v-27q-96 -20 -125 -49q-10 -12 -17.5 -26t-12 -34t-7 -34.5t-3.5 -41.5t-1.5 -41.5t0 -48t0.5 -46.5v-324v-77v-75.5t-1 -66.5t-3 -66t-6 -58t-10.5 -57.5t-15.5 -49.5t-21.5 -49.5t-29 -42t-36.5 -41.5 q-124 -117 -389 -117q-240 0 -367.5 95t-138.5 305q-4 68 -4 163v528v19q0 35 -0.5 51.5t-2.5 42.5t-6.5 39.5t-12.5 30t-21.5 27.5t-32.5 20q-25 12 -86 24zM496 1448l352 369q34 34 70 34q34 0 56.5 -23t22.5 -56q0 -49 -49 -78l-432 -271z" />
<glyph unicode="&#xdb;" horiz-adv-x="1384" d="M18 1327v27q123 -8 250 -8q165 0 256 8v-27q-33 -6 -71.5 -20t-53.5 -29q-10 -12 -17.5 -26.5t-12 -34t-7 -35t-3.5 -42.5t-1.5 -41.5t0 -48t0.5 -46.5v-478q0 -182 30 -283t127 -148q69 -34 196 -34q164 0 247.5 67t95.5 212q7 80 7 188v582q0 90 -12.5 130.5 t-62.5 62.5q-26 13 -87 24v27q128 -8 231 -8q144 0 238 8v-27q-96 -20 -125 -49q-10 -12 -17.5 -26t-12 -34t-7 -34.5t-3.5 -41.5t-1.5 -41.5t0 -48t0.5 -46.5v-324v-77v-75.5t-1 -66.5t-3 -66t-6 -58t-10.5 -57.5t-15.5 -49.5t-21.5 -49.5t-29 -42t-36.5 -41.5 q-124 -117 -389 -117q-240 0 -367.5 95t-138.5 305q-4 68 -4 163v528v19q0 35 -0.5 51.5t-2.5 42.5t-6.5 39.5t-12.5 30t-21.5 27.5t-32.5 20q-25 12 -86 24zM393 1430l316 362l315 -362l-18 -21l-297 197l-297 -197z" />
<glyph unicode="&#xdc;" horiz-adv-x="1384" d="M18 1327v27q123 -8 250 -8q165 0 256 8v-27q-33 -6 -71.5 -20t-53.5 -29q-10 -12 -17.5 -26.5t-12 -34t-7 -35t-3.5 -42.5t-1.5 -41.5t0 -48t0.5 -46.5v-478q0 -182 30 -283t127 -148q69 -34 196 -34q164 0 247.5 67t95.5 212q7 80 7 188v582q0 90 -12.5 130.5 t-62.5 62.5q-26 13 -87 24v27q128 -8 231 -8q144 0 238 8v-27q-96 -20 -125 -49q-10 -12 -17.5 -26t-12 -34t-7 -34.5t-3.5 -41.5t-1.5 -41.5t0 -48t0.5 -46.5v-324v-77v-75.5t-1 -66.5t-3 -66t-6 -58t-10.5 -57.5t-15.5 -49.5t-21.5 -49.5t-29 -42t-36.5 -41.5 q-124 -117 -389 -117q-240 0 -367.5 95t-138.5 305q-4 68 -4 163v528v19q0 35 -0.5 51.5t-2.5 42.5t-6.5 39.5t-12.5 30t-21.5 27.5t-32.5 20q-25 12 -86 24zM461 1540q0 92 96 92q41 0 66.5 -25t25.5 -65q0 -44 -26 -68t-70 -24q-42 0 -67 24t-25 66zM780 1540q0 92 97 92 q42 0 67 -24t25 -66q0 -44 -26.5 -68t-70.5 -24q-42 0 -67 24t-25 66z" />
<glyph unicode="&#xdd;" horiz-adv-x="1189" d="M-8 1327v27q86 -8 235 -8q155 0 236 8v-27q-121 -18 -121 -76q0 -20 4.5 -33.5t18 -35t16.5 -27.5l278 -489l252 483q5 9 15.5 26.5t13.5 24t6.5 21t3.5 30.5q0 22 -13.5 36.5t-28.5 19t-42.5 10.5t-38.5 10v27q21 -1 80 -4.5t109 -3.5q133 0 209 8v-27q-60 -11 -90 -45 q-33 -38 -74 -106l-350 -592v-248q0 -133 5 -179q4 -35 19.5 -59.5t44.5 -38.5t56.5 -21.5t72.5 -14.5v-27q-168 8 -291 8q-120 0 -288 -8v27q40 5 70 13t58.5 22.5t46 39.5t21.5 59q6 48 6 134v262l-329 565q-2 4 -13.5 23t-13.5 23t-11.5 19.5t-13 20t-12 17t-13.5 18 t-13 15t-15.5 16.5t-15.5 14q-29 24 -90 43zM393 1448l352 369q34 34 70 34q34 0 57 -23t23 -56q0 -49 -49 -78l-432 -271z" />
<glyph unicode="&#xde;" horiz-adv-x="1069" d="M37 -4v27q96 20 125 49q10 12 17.5 26.5t12 34t7 34.5t3.5 42.5t1.5 42t0 48t-0.5 46.5v727v19q0 35 -0.5 51.5t-2.5 42.5t-6.5 39.5t-12.5 30t-21.5 27.5t-32.5 20q-25 12 -86 24v27q123 -8 250 -8q165 0 256 8v-27q-36 -7 -54 -11.5t-44 -16t-38 -25.5t-21 -39t-9 -59 v-9q88 7 156 7h18q89 0 161.5 -11t136.5 -37.5t107 -68t68 -106t25 -148.5q0 -141 -69 -234.5t-186 -135.5q-76 -27 -167 -27q-125 0 -197 43l6 20q42 -8 88 -8q162 0 247 84t85 246q0 172 -89.5 243.5t-274.5 71.5h-52q-31 0 -63 -2v-873q0 -88 21.5 -127.5t85.5 -60.5 q38 -13 92 -20v-27q-29 1 -73 3t-78.5 3.5t-69.5 1.5h-66q-165 0 -256 -8z" />
<glyph unicode="&#xdf;" horiz-adv-x="1099" d="M25 -4v27q63 11 99 40.5t44 87.5q8 65 8 242v527q0 207 25 323t112 187q115 92 320 92q62 0 116.5 -7t108 -24.5t91.5 -44.5t61.5 -71t23.5 -101q0 -45 -14 -85t-42 -74t-50 -54.5t-58 -49.5q-147 -117 -201 -177q-48 -52 -48 -119q0 -34 10.5 -60.5t32 -46t41 -31 t51.5 -28.5q2 -1 3.5 -2t4 -2t4.5 -2l123 -64q48 -24 80.5 -49.5t57 -72.5t24.5 -107q0 -128 -88 -195t-228 -67q-135 0 -239 37q0 114 -11 200h27q7 -12 22.5 -40t24 -42t26 -35.5t33.5 -32.5t41.5 -19.5t55.5 -8.5q88 0 141 35.5t53 112.5q0 22 -4.5 40.5t-16.5 34 t-19.5 25t-28.5 23t-28 17.5t-32 17l-94 51q-38 20 -58.5 32.5t-50 36t-45 47.5t-27 60t-11.5 80q0 27 5.5 53t11 44.5t21.5 42.5t23 35t31 35t28.5 29t33.5 30t30 26q2 2 24.5 21.5t27 23.5t24.5 23t25.5 26.5t21.5 26.5t21.5 30.5t16 31.5t14.5 36.5t7.5 38t3.5 43.5 q0 104 -63.5 154.5t-173.5 50.5q-72 0 -125 -20t-85 -54t-51 -88t-25.5 -112t-6.5 -137v-521q0 -317 6 -532q-32 6 -113 6q-167 0 -204 -6z" />
<glyph unicode="&#xe0;" horiz-adv-x="901" d="M82 203q0 62 25 107t63 70t97 40t113 19.5t125 4.5h58v134q0 46 -3 78.5t-13 63.5t-27.5 49.5t-47 30t-71.5 11.5q-15 0 -40.5 -2t-36.5 -2q-14 -4 -23 -6q25 -25 25 -62q0 -35 -21 -56t-55 -21q-38 0 -59 18.5t-21 54.5q0 47 44.5 79t103 44t124.5 12q138 0 206 -52 t75 -174q2 -50 2 -73v-57q0 -20 -1 -80t-1 -86q0 -23 -1 -72.5t-1 -64.5q0 -72 20 -97.5t90 -25.5h25l6 -16q-49 -44 -88.5 -66t-95.5 -22q-48 0 -77.5 25.5t-31.5 70.5q-39 -44 -98.5 -70t-128.5 -26q-116 0 -188 57.5t-72 161.5zM186 1343q0 32 23 56t55 24q40 0 70 -34 l354 -369l-18 -25l-432 271q-52 34 -52 77zM252 221q0 -72 45 -111.5t121 -39.5q86 0 145 28v303q-8 -1 -24 -2q-32 -3 -48.5 -4.5t-45.5 -5t-45 -7.5t-40 -11t-37 -16t-28.5 -22t-23.5 -28.5t-13.5 -37t-5.5 -46.5z" />
<glyph unicode="&#xe1;" horiz-adv-x="901" d="M82 203q0 62 25 107t63 70t97 40t113 19.5t125 4.5h58v134q0 46 -3 78.5t-13 63.5t-27.5 49.5t-47 30t-71.5 11.5q-15 0 -40.5 -2t-36.5 -2q-14 -4 -23 -6q25 -25 25 -62q0 -35 -21 -56t-55 -21q-38 0 -59 18.5t-21 54.5q0 47 44.5 79t103 44t124.5 12q138 0 206 -52 t75 -174q2 -50 2 -73v-57q0 -20 -1 -80t-1 -86q0 -23 -1 -72.5t-1 -64.5q0 -72 20 -97.5t90 -25.5h25l6 -16q-49 -44 -88.5 -66t-95.5 -22q-48 0 -77.5 25.5t-31.5 70.5q-39 -44 -98.5 -70t-128.5 -26q-116 0 -188 57.5t-72 161.5zM219 1020l352 369q34 34 70 34 q34 0 57 -23.5t23 -56.5q0 -48 -49 -77l-432 -271zM252 221q0 -72 45 -111.5t121 -39.5q86 0 145 28v303q-8 -1 -24 -2q-32 -3 -48.5 -4.5t-45.5 -5t-45 -7.5t-40 -11t-37 -16t-28.5 -22t-23.5 -28.5t-13.5 -37t-5.5 -46.5z" />
<glyph unicode="&#xe2;" horiz-adv-x="901" d="M82 203q0 62 25 107t63 70t97 40t113 19.5t125 4.5h58v134q0 46 -3 78.5t-13 63.5t-27.5 49.5t-47 30t-71.5 11.5q-15 0 -40.5 -2t-36.5 -2q-14 -4 -23 -6q25 -25 25 -62q0 -35 -21 -56t-55 -21q-38 0 -59 18.5t-21 54.5q0 47 44.5 79t103 44t124.5 12q138 0 206 -52 t75 -174q2 -50 2 -73v-57q0 -20 -1 -80t-1 -86q0 -23 -1 -72.5t-1 -64.5q0 -72 20 -97.5t90 -25.5h25l6 -16q-49 -44 -88.5 -66t-95.5 -22q-48 0 -77.5 25.5t-31.5 70.5q-39 -44 -98.5 -70t-128.5 -26q-116 0 -188 57.5t-72 161.5zM129 1034l315 363l316 -363l-19 -20 l-297 196l-297 -196zM252 221q0 -72 45 -111.5t121 -39.5q86 0 145 28v303q-8 -1 -24 -2q-32 -3 -48.5 -4.5t-45.5 -5t-45 -7.5t-40 -11t-37 -16t-28.5 -22t-23.5 -28.5t-13.5 -37t-5.5 -46.5z" />
<glyph unicode="&#xe3;" horiz-adv-x="901" d="M82 203q0 62 25 107t63 70t97 40t113 19.5t125 4.5h58v134q0 46 -3 78.5t-13 63.5t-27.5 49.5t-47 30t-71.5 11.5q-15 0 -40.5 -2t-36.5 -2q-14 -4 -23 -6q25 -25 25 -62q0 -35 -21 -56t-55 -21q-38 0 -59 18.5t-21 54.5q0 47 44.5 79t103 44t124.5 12q138 0 206 -52 t75 -174q2 -50 2 -73v-57q0 -20 -1 -80t-1 -86q0 -23 -1 -72.5t-1 -64.5q0 -72 20 -97.5t90 -25.5h25l6 -16q-49 -44 -88.5 -66t-95.5 -22q-48 0 -77.5 25.5t-31.5 70.5q-39 -44 -98.5 -70t-128.5 -26q-116 0 -188 57.5t-72 161.5zM170 1067q40 99 104 138q33 20 66 20 q23 0 40 -3t27.5 -7t38.5 -15l64 -26q7 -2 27.5 -11.5t35.5 -13.5t31 -4q37 0 61.5 18t47.5 54l22 -17q-43 -103 -102 -140q-33 -20 -68 -20q-10 0 -17.5 0.5t-16.5 2t-13 2t-14 4.5t-12.5 4.5t-16 6.5t-16.5 7l-62 27q-59 26 -96 26q-36 0 -60 -17.5t-48 -51.5zM252 221 q0 -72 45 -111.5t121 -39.5q86 0 145 28v303q-8 -1 -24 -2q-32 -3 -48.5 -4.5t-45.5 -5t-45 -7.5t-40 -11t-37 -16t-28.5 -22t-23.5 -28.5t-13.5 -37t-5.5 -46.5z" />
<glyph unicode="&#xe4;" horiz-adv-x="901" d="M82 203q0 62 25 107t63 70t97 40t113 19.5t125 4.5h58v134q0 46 -3 78.5t-13 63.5t-27.5 49.5t-47 30t-71.5 11.5q-15 0 -40.5 -2t-36.5 -2q-14 -4 -23 -6q25 -25 25 -62q0 -35 -21 -56t-55 -21q-38 0 -59 18.5t-21 54.5q0 47 44.5 79t103 44t124.5 12q138 0 206 -52 t75 -174q2 -50 2 -73v-57q0 -20 -1 -80t-1 -86q0 -23 -1 -72.5t-1 -64.5q0 -72 20 -97.5t90 -25.5h25l6 -16q-49 -44 -88.5 -66t-95.5 -22q-48 0 -77.5 25.5t-31.5 70.5q-39 -44 -98.5 -70t-128.5 -26q-116 0 -188 57.5t-72 161.5zM188 1124q0 46 25.5 69.5t71.5 23.5 q41 0 66.5 -25.5t25.5 -65.5q0 -44 -26 -68t-70 -24q-42 0 -67.5 24t-25.5 66zM252 221q0 -72 45 -111.5t121 -39.5q86 0 145 28v303q-8 -1 -24 -2q-32 -3 -48.5 -4.5t-45.5 -5t-45 -7.5t-40 -11t-37 -16t-28.5 -22t-23.5 -28.5t-13.5 -37t-5.5 -46.5zM508 1124q0 93 96 93 q42 0 67 -24.5t25 -66.5q0 -44 -26 -68t-70 -24q-42 0 -67 24t-25 66z" />
<glyph unicode="&#xe5;" horiz-adv-x="901" d="M82 203q0 62 25 107t63 70t97 40t113 19.5t125 4.5h58v134q0 46 -3 78.5t-13 63.5t-27.5 49.5t-47 30t-71.5 11.5q-15 0 -40.5 -2t-36.5 -2q-14 -4 -23 -6q25 -25 25 -62q0 -35 -21 -56t-55 -21q-38 0 -59 18.5t-21 54.5q0 47 44.5 79t103 44t124.5 12q138 0 206 -52 t75 -174q2 -50 2 -73v-57q0 -20 -1 -80t-1 -86q0 -23 -1 -72.5t-1 -64.5q0 -72 20 -97.5t90 -25.5h25l6 -16q-49 -44 -88.5 -66t-95.5 -22q-48 0 -77.5 25.5t-31.5 70.5q-39 -44 -98.5 -70t-128.5 -26q-116 0 -188 57.5t-72 161.5zM252 221q0 -72 45 -111.5t121 -39.5 q86 0 145 28v303q-8 -1 -24 -2q-32 -3 -48.5 -4.5t-45.5 -5t-45 -7.5t-40 -11t-37 -16t-28.5 -22t-23.5 -28.5t-13.5 -37t-5.5 -46.5zM270 1174q0 77 54.5 128.5t132.5 51.5t133 -52t55 -128q0 -77 -55 -130t-133 -53t-132.5 53t-54.5 130zM352 1174q0 -44 31 -77.5 t74 -33.5q45 0 75.5 32.5t30.5 78.5q0 45 -30.5 76.5t-75.5 31.5q-42 0 -73.5 -32.5t-31.5 -75.5z" />
<glyph unicode="&#xe6;" horiz-adv-x="1339" d="M82 203q0 49 15.5 87t39 63t63.5 43t77 27.5t92 15t95 6.5t99 1v134q0 118 -31.5 174.5t-128.5 56.5q-15 0 -40.5 -2t-36.5 -2q-15 -5 -25 -6q25 -25 25 -62q0 -35 -21 -56t-55 -21q-38 0 -59 18.5t-21 54.5q0 47 44.5 79t103 44t124.5 12q179 0 240 -106 q104 104 266 104q320 0 320 -344v-12h-561v-45q0 -191 80.5 -286t263.5 -95q100 0 184 37l10 -19q-46 -56 -125.5 -86t-177.5 -30q-194 0 -297 125q-52 -64 -123 -94.5t-176 -30.5q-118 0 -191 54t-73 161zM252 221q0 -73 44 -113t122 -40q124 0 139 79q6 33 6 78v176 q-8 -1 -24 -2q-32 -3 -48.5 -4.5t-45.5 -5t-45 -7.5t-40 -11t-37 -16t-28.5 -22t-23.5 -28.5t-13.5 -37t-5.5 -46.5zM711 557l376 37v10q0 102 -35.5 153.5t-125.5 51.5q-193 0 -215 -252z" />
<glyph unicode="&#xe7;" horiz-adv-x="829" d="M78 416q0 155 67.5 262t184.5 157q76 33 180 33q44 0 85.5 -5.5t82.5 -19t65.5 -40.5t24.5 -64q0 -38 -23 -59t-61 -21q-40 0 -63 19.5t-23 58.5q0 42 27 62q-42 8 -86 8q-75 0 -132 -27t-91 -76.5t-51 -114t-17 -143.5q0 -167 82.5 -263.5t240.5 -96.5q99 0 183 37 l10 -19q-96 -112 -277 -116q-18 -18 -18 -37q0 -16 10.5 -26t36.5 -20t29 -11q37 -18 56.5 -46.5t19.5 -78.5q0 -89 -61.5 -150t-147.5 -92l-15 20q97 93 97 193q0 20 -4 38t-13 34.5t-15.5 26t-20.5 26.5t-18 23q-13 17 -13 42q0 33 26 60q-171 12 -264.5 125.5 t-93.5 300.5z" />
<glyph unicode="&#xe8;" horiz-adv-x="880" d="M78 418q0 155 62.5 261.5t175.5 156.5q73 32 165 32q328 0 328 -338v-18h-561v-16q-2 -10 -2 -16v-13q0 -188 83 -284.5t263 -96.5q100 0 184 37l10 -19q-99 -116 -303 -116q-194 0 -299.5 114t-105.5 316zM174 1343q0 32 23 56t55 24q40 0 70 -34l354 -369l-19 -25 l-432 271q-51 33 -51 77zM252 557l377 37v10q0 105 -36 155t-126 50q-188 0 -215 -252z" />
<glyph unicode="&#xe9;" horiz-adv-x="880" d="M78 418q0 155 62.5 261.5t175.5 156.5q73 32 165 32q328 0 328 -338v-18h-561v-16q-2 -10 -2 -16v-13q0 -188 83 -284.5t263 -96.5q100 0 184 37l10 -19q-99 -116 -303 -116q-194 0 -299.5 114t-105.5 316zM252 557l377 37v10q0 105 -36 155t-126 50q-188 0 -215 -252z M256 1020l352 369q34 34 70 34q34 0 57 -23.5t23 -56.5q0 -48 -49 -77l-433 -271z" />
<glyph unicode="&#xea;" horiz-adv-x="880" d="M78 418q0 155 62.5 261.5t175.5 156.5q73 32 165 32q328 0 328 -338v-18h-561v-16q-2 -10 -2 -16v-13q0 -188 83 -284.5t263 -96.5q100 0 184 37l10 -19q-99 -116 -303 -116q-194 0 -299.5 114t-105.5 316zM154 1034l315 363l315 -363l-18 -20l-297 196l-297 -196z M252 557l377 37v10q0 105 -36 155t-126 50q-188 0 -215 -252z" />
<glyph unicode="&#xeb;" horiz-adv-x="880" d="M78 418q0 155 62.5 261.5t175.5 156.5q73 32 165 32q328 0 328 -338v-18h-561v-16q-2 -10 -2 -16v-13q0 -188 83 -284.5t263 -96.5q100 0 184 37l10 -19q-99 -116 -303 -116q-194 0 -299.5 114t-105.5 316zM221 1124q0 93 96 93q41 0 67 -25.5t26 -65.5q0 -44 -26.5 -68 t-70.5 -24q-42 0 -67 24t-25 66zM252 557l377 37v10q0 105 -36 155t-126 50q-188 0 -215 -252zM541 1124q0 93 96 93q42 0 67 -24.5t25 -66.5q0 -44 -26 -68t-70 -24q-42 0 -67 24t-25 66z" />
<glyph unicode="&#xec;" horiz-adv-x="542" d="M6 1343q0 32 23 56t55 24q40 0 70 -34l354 -369l-19 -25l-432 271q-51 33 -51 77zM49 -2v27q49 8 78 22.5t44.5 43t20.5 61.5t7 92q2 80 2 164v210q0 98 -32 142t-116 57v21q14 1 65 4t71.5 5t58 7t64 13t50.5 20l13 -8q-15 -185 -15 -492v-164q0 -104 31.5 -142 t130.5 -56v-27q-58 6 -246 6q-140 0 -227 -6z" />
<glyph unicode="&#xed;" horiz-adv-x="542" d="M14 1020l353 369q34 34 69 34q34 0 57 -23.5t23 -56.5q0 -48 -49 -77l-432 -271zM49 -2v27q49 8 78 22.5t44.5 43t20.5 61.5t7 92q2 80 2 164v210q0 98 -32 142t-116 57v21q14 1 65 4t71.5 5t58 7t64 13t50.5 20l13 -8q-15 -185 -15 -492v-164q0 -104 31.5 -142 t130.5 -56v-27q-58 6 -246 6q-140 0 -227 -6z" />
<glyph unicode="&#xee;" horiz-adv-x="542" d="M-45 1034l315 363l316 -363l-19 -20l-297 196l-297 -196zM49 -2v27q49 8 78 22.5t44.5 43t20.5 61.5t7 92q2 80 2 164v210q0 98 -32 142t-116 57v21q14 1 65 4t71.5 5t58 7t64 13t50.5 20l13 -8q-15 -185 -15 -492v-164q0 -104 31.5 -142t130.5 -56v-27q-58 6 -246 6 q-140 0 -227 -6z" />
<glyph unicode="&#xef;" horiz-adv-x="542" d="M14 1124q0 46 25.5 69.5t71.5 23.5q41 0 66.5 -25.5t25.5 -65.5q0 -44 -26.5 -68t-70.5 -24q-42 0 -67 24t-25 66zM49 -2v27q49 8 78 22.5t44.5 43t20.5 61.5t7 92q2 80 2 164v210q0 98 -32 142t-116 57v21q14 1 65 4t71.5 5t58 7t64 13t50.5 20l13 -8q-15 -185 -15 -492 v-164q0 -104 31.5 -142t130.5 -56v-27q-58 6 -246 6q-140 0 -227 -6zM334 1124q0 93 96 93q42 0 67 -24.5t25 -66.5q0 -44 -26 -68t-70 -24q-42 0 -67 24t-25 66z" />
<glyph unicode="&#xf0;" horiz-adv-x="989" d="M78 420q0 210 106 331t303 121q161 0 232 -81q-11 245 -117 364l-143 -96l-39 59l129 88q-105 78 -270 78q-81 0 -142 -18l-12 32q85 62 246 62q169 0 288 -78l146 96l41 -59l-129 -86q66 -64 109 -160.5t55 -208.5q14 -122 14 -254q0 -246 -60.5 -398t-210.5 -204 q-63 -22 -151 -22q-193 0 -294 115t-101 319zM258 424q0 -80 9 -141t32 -117t69.5 -86.5t114.5 -30.5q62 0 105.5 22t68.5 65t37.5 91.5t19.5 116.5q11 98 11 260q0 24 -1 62.5t-1 56.5q0 19 -2 35q-63 33 -193 33q-79 0 -133 -27t-83.5 -78.5t-41.5 -114.5t-12 -147z" />
<glyph unicode="&#xf1;" horiz-adv-x="1093" d="M49 -2v27q93 16 121 65t30 169q1 36 1 134v225q0 98 -32 142t-116 57v21q7 0 34.5 1.5t37 2t34 2t36.5 3t33.5 4t34.5 5.5t30 6.5t31 9t26 11.5l12 -9l-6 -112q112 112 277 112q151 0 218 -84.5t67 -250.5v-263v-32.5v-31.5t0.5 -28.5t2 -28t4 -24t6.5 -23.5l9.5 -19 t13.5 -17.5t18 -13.5t23 -11q31 -11 84 -22v-27q-59 6 -235 6q-118 0 -217 -6v27q30 4 51.5 13t35.5 26t22 32.5t12 46.5t5.5 52t2.5 65q2 46 2 86v109q0 102 -8 147q-23 178 -215 178q-108 0 -175 -39v-462q0 -11 -0.5 -39.5t0 -40l1.5 -34.5t3.5 -34t7.5 -28t12.5 -26 t19 -18.5t26.5 -14.5q32 -11 62 -19v-27q-106 6 -228 6q-126 0 -215 -6zM283 1067q40 99 104 138q33 20 66 20q23 0 40 -3t27.5 -7t38.5 -15l64 -26q7 -2 27.5 -11.5t35.5 -13.5t31 -4q37 0 60.5 18t47.5 54l23 -17q-42 -103 -103 -140q-33 -20 -67 -20q-9 0 -16.5 0.5 t-13 1t-13.5 2.5t-11 2.5t-12.5 4t-11.5 4.5t-14 6t-15 6l-61 27q-59 26 -96 26t-61.5 -17.5t-47.5 -51.5z" />
<glyph unicode="&#xf2;" horiz-adv-x="1034" d="M78 420q0 155 71.5 262.5t193.5 155.5q80 32 183 32q199 0 314.5 -116t115.5 -314q0 -157 -70.5 -265.5t-192.5 -156.5q-80 -32 -185 -32q-151 0 -252.5 68.5t-146.5 187.5q-31 82 -31 178zM227 1343q0 32 23 56t55 24q40 0 70 -34l354 -369l-18 -25l-432 271 q-52 34 -52 77zM264 426q0 -249 127 -341q49 -36 125 -36q70 0 121.5 31t79.5 86t40.5 119t12.5 141q0 78 -12 142t-39.5 119.5t-78.5 86.5t-122 31t-122.5 -31t-79 -86t-40 -119.5t-12.5 -142.5z" />
<glyph unicode="&#xf3;" horiz-adv-x="1034" d="M78 420q0 155 71.5 262.5t193.5 155.5q80 32 183 32q199 0 314.5 -116t115.5 -314q0 -157 -70.5 -265.5t-192.5 -156.5q-80 -32 -185 -32q-151 0 -252.5 68.5t-146.5 187.5q-31 82 -31 178zM264 426q0 -249 127 -341q49 -36 125 -36q70 0 121.5 31t79.5 86t40.5 119 t12.5 141q0 78 -12 142t-39.5 119.5t-78.5 86.5t-122 31t-122.5 -31t-79 -86t-40 -119.5t-12.5 -142.5zM270 1020l353 369q34 34 69 34q34 0 57 -23.5t23 -56.5q0 -48 -49 -77l-432 -271z" />
<glyph unicode="&#xf4;" horiz-adv-x="1034" d="M78 420q0 155 71.5 262.5t193.5 155.5q80 32 183 32q199 0 314.5 -116t115.5 -314q0 -157 -70.5 -265.5t-192.5 -156.5q-80 -32 -185 -32q-151 0 -252.5 68.5t-146.5 187.5q-31 82 -31 178zM199 1034l315 363l315 -363l-18 -20l-297 196l-297 -196zM264 426 q0 -249 127 -341q49 -36 125 -36q70 0 121.5 31t79.5 86t40.5 119t12.5 141q0 78 -12 142t-39.5 119.5t-78.5 86.5t-122 31t-122.5 -31t-79 -86t-40 -119.5t-12.5 -142.5z" />
<glyph unicode="&#xf5;" horiz-adv-x="1034" d="M78 420q0 155 71.5 262.5t193.5 155.5q80 32 183 32q199 0 314.5 -116t115.5 -314q0 -157 -70.5 -265.5t-192.5 -156.5q-80 -32 -185 -32q-151 0 -252.5 68.5t-146.5 187.5q-31 82 -31 178zM240 1067q40 99 104 138q33 20 66 20q23 0 40 -3t27.5 -7t38.5 -15l64 -26 q7 -2 27.5 -11.5t35.5 -13.5t31 -4q37 0 60.5 18t47.5 54l23 -17q-42 -103 -103 -140q-33 -20 -67 -20q-9 0 -16.5 0.5t-13 1t-13.5 2.5t-11 2.5t-12.5 4t-11.5 4.5t-14 6t-15 6l-61 27q-59 26 -96 26t-61.5 -17.5t-47.5 -51.5zM264 426q0 -249 127 -341q49 -36 125 -36 q70 0 121.5 31t79.5 86t40.5 119t12.5 141q0 78 -12 142t-39.5 119.5t-78.5 86.5t-122 31t-122.5 -31t-79 -86t-40 -119.5t-12.5 -142.5z" />
<glyph unicode="&#xf6;" horiz-adv-x="1034" d="M78 420q0 155 71.5 262.5t193.5 155.5q80 32 183 32q199 0 314.5 -116t115.5 -314q0 -157 -70.5 -265.5t-192.5 -156.5q-80 -32 -185 -32q-151 0 -252.5 68.5t-146.5 187.5q-31 82 -31 178zM264 426q0 -249 127 -341q49 -36 125 -36q70 0 121.5 31t79.5 86t40.5 119 t12.5 141q0 78 -12 142t-39.5 119.5t-78.5 86.5t-122 31t-122.5 -31t-79 -86t-40 -119.5t-12.5 -142.5zM270 1124q0 46 25.5 69.5t71.5 23.5q41 0 66.5 -25.5t25.5 -65.5q0 -44 -26.5 -68t-70.5 -24q-42 0 -67 24t-25 66zM590 1124q0 93 96 93q42 0 67 -24.5t25 -66.5 q0 -44 -26 -68t-70 -24q-42 0 -67 24t-25 66z" />
<glyph unicode="&#xf7;" horiz-adv-x="1159" d="M41 612v129h1077v-129h-1077zM459 305q0 53 33.5 85t87.5 32q52 0 86 -32.5t34 -84.5t-34 -85.5t-86 -33.5t-86.5 33.5t-34.5 85.5zM459 1049q0 53 33.5 85.5t87.5 32.5q52 0 86 -33t34 -85t-34 -84.5t-86 -32.5t-86.5 32.5t-34.5 84.5z" />
<glyph unicode="&#xf8;" horiz-adv-x="1034" d="M78 420q0 155 71.5 262.5t193.5 155.5q80 32 183 32q97 0 166 -26l68 137l57 -33l-67 -131q96 -52 151 -148t55 -229q0 -157 -70.5 -265.5t-192.5 -156.5q-80 -32 -185 -32q-91 0 -170 28l-68 -135l-55 31l66 129q-94 52 -148.5 150t-54.5 231zM264 426q0 -186 70 -285 l317 625q-54 39 -133 39q-71 0 -122.5 -31t-79 -86t-40 -119.5t-12.5 -142.5zM379 92q49 -43 137 -43q70 0 121.5 31t79.5 86t40.5 119t12.5 141q0 194 -72 291z" />
<glyph unicode="&#xf9;" horiz-adv-x="1081" d="M31 817v21q7 0 35 1.5t38.5 2t36.5 2t39 3.5t35.5 4.5t36.5 6t31.5 8t31 10.5t25.5 13l14 -10q-16 -189 -16 -482v-67q0 -131 52.5 -193.5t176.5 -62.5q90 0 168 37v489q0 83 -11.5 126.5t-52.5 66.5q-30 16 -83 24v21q7 0 35 1.5t38.5 2t36 2t38.5 3.5t35.5 4.5t36.5 6 t31 8t30.5 10.5t25.5 13l14 -10q-14 -284 -14 -457v-162v-13q0 -30 0.5 -44.5t2.5 -36t7 -31.5t14 -21.5t23 -17t34 -7.5q27 -3 48 -3h12l6 -18q-34 -34 -84.5 -59t-101.5 -25q-98 0 -117 110q-57 -57 -120 -84.5t-164 -27.5q-99 0 -167 39.5t-87 109.5q-2 9 -6.5 25t-6 22 t-4 19t-3 26t-1.5 32q-2 76 -2 97v266q0 98 -31.5 142t-115.5 57zM274 1343q0 32 23 56t55 24q40 0 70 -34l354 -369l-18 -25l-432 271q-52 34 -52 77z" />
<glyph unicode="&#xfa;" horiz-adv-x="1081" d="M31 817v21q7 0 35 1.5t38.5 2t36.5 2t39 3.5t35.5 4.5t36.5 6t31.5 8t31 10.5t25.5 13l14 -10q-16 -189 -16 -482v-67q0 -131 52.5 -193.5t176.5 -62.5q90 0 168 37v489q0 83 -11.5 126.5t-52.5 66.5q-30 16 -83 24v21q7 0 35 1.5t38.5 2t36 2t38.5 3.5t35.5 4.5t36.5 6 t31 8t30.5 10.5t25.5 13l14 -10q-14 -284 -14 -457v-162v-13q0 -30 0.5 -44.5t2.5 -36t7 -31.5t14 -21.5t23 -17t34 -7.5q27 -3 48 -3h12l6 -18q-34 -34 -84.5 -59t-101.5 -25q-98 0 -117 110q-57 -57 -120 -84.5t-164 -27.5q-99 0 -167 39.5t-87 109.5q-2 9 -6.5 25t-6 22 t-4 19t-3 26t-1.5 32q-2 76 -2 97v266q0 98 -31.5 142t-115.5 57zM328 1020l352 369q34 34 70 34q33 0 56 -23.5t23 -56.5q0 -48 -49 -77l-432 -271z" />
<glyph unicode="&#xfb;" horiz-adv-x="1081" d="M31 817v21q7 0 35 1.5t38.5 2t36.5 2t39 3.5t35.5 4.5t36.5 6t31.5 8t31 10.5t25.5 13l14 -10q-16 -189 -16 -482v-67q0 -131 52.5 -193.5t176.5 -62.5q90 0 168 37v489q0 83 -11.5 126.5t-52.5 66.5q-30 16 -83 24v21q7 0 35 1.5t38.5 2t36 2t38.5 3.5t35.5 4.5t36.5 6 t31 8t30.5 10.5t25.5 13l14 -10q-14 -284 -14 -457v-162v-13q0 -30 0.5 -44.5t2.5 -36t7 -31.5t14 -21.5t23 -17t34 -7.5q27 -3 48 -3h12l6 -18q-34 -34 -84.5 -59t-101.5 -25q-98 0 -117 110q-57 -57 -120 -84.5t-164 -27.5q-99 0 -167 39.5t-87 109.5q-2 9 -6.5 25t-6 22 t-4 19t-3 26t-1.5 32q-2 76 -2 97v266q0 98 -31.5 142t-115.5 57zM215 1034l315 363l316 -363l-19 -20l-297 196l-297 -196z" />
<glyph unicode="&#xfc;" horiz-adv-x="1081" d="M31 817v21q7 0 35 1.5t38.5 2t36.5 2t39 3.5t35.5 4.5t36.5 6t31.5 8t31 10.5t25.5 13l14 -10q-16 -189 -16 -482v-67q0 -131 52.5 -193.5t176.5 -62.5q90 0 168 37v489q0 83 -11.5 126.5t-52.5 66.5q-30 16 -83 24v21q7 0 35 1.5t38.5 2t36 2t38.5 3.5t35.5 4.5t36.5 6 t31 8t30.5 10.5t25.5 13l14 -10q-14 -284 -14 -457v-162v-13q0 -30 0.5 -44.5t2.5 -36t7 -31.5t14 -21.5t23 -17t34 -7.5q27 -3 48 -3h12l6 -18q-34 -34 -84.5 -59t-101.5 -25q-98 0 -117 110q-57 -57 -120 -84.5t-164 -27.5q-99 0 -167 39.5t-87 109.5q-2 9 -6.5 25t-6 22 t-4 19t-3 26t-1.5 32q-2 76 -2 97v266q0 98 -31.5 142t-115.5 57zM287 1124q0 93 96 93q41 0 66.5 -25.5t25.5 -65.5q0 -44 -26 -68t-70 -24q-42 0 -67 24t-25 66zM606 1124q0 93 96 93q42 0 67.5 -24.5t25.5 -66.5q0 -44 -26.5 -68t-70.5 -24q-42 0 -67 24t-25 66z" />
<glyph unicode="&#xfd;" horiz-adv-x="872" d="M-68 -424q0 39 23.5 61.5t62.5 22.5q37 0 61.5 -21t24.5 -57q0 -38 -28 -59h18q48 0 87 15t63.5 35.5t46.5 57t34 65.5t27 75l54 155l-308 787q-2 4 -10.5 26t-11 27t-11.5 20.5t-16.5 21.5t-21 14t-29.5 12v26q32 -6 139 -6h43q135 0 182 6v-26q-4 -1 -16.5 -5.5 t-18 -6.5t-16 -6.5t-16 -9.5t-12 -11.5t-9 -15.5t-2.5 -19q0 -28 17 -70l133 -368q36 -90 63 -201l160 532q27 97 27 109q0 9 -3 17.5t-6 14t-10.5 11t-12 8.5t-15.5 7t-15 5t-17 4.5t-15 4.5v26q33 -6 117 -6h34q114 0 152 6v-26q-21 -4 -37 -15t-26 -27.5t-17.5 -33.5 t-15.5 -38l-3 -9l-266 -742q-11 -31 -31 -90.5t-32 -92.5t-33 -82t-41 -80t-49.5 -63.5t-64.5 -53.5q-62 -37 -165 -37q-72 0 -120 24.5t-48 81.5zM250 1020l352 369q34 34 70 34q34 0 57 -23.5t23 -56.5q0 -47 -50 -77l-432 -271z" />
<glyph unicode="&#xfe;" horiz-adv-x="1081" d="M25 1458v21l200 16q77 6 123 29l12 -8q-6 -37 -13 -246q-9 -322 -9 -471v-37q58 56 122 84t154 28q185 0 287.5 -117.5t102.5 -310.5q0 -156 -65 -266.5t-179 -163.5q-76 -36 -187 -36q-76 0 -141 23.5t-94 64.5v-324q0 -132 39 -180t160 -68v-26q-200 6 -267 6 q-120 0 -243 -6v26q77 13 110 49t38 115q3 46 3 109v1351q0 21 1 58.5t1 58t-1.5 51t-6.5 49.5t-14 40t-24 35.5t-36 24.5q-33 15 -73 21zM338 90q80 -24 166 -24q162 0 243.5 96t81.5 262v16q0 158 -82 249t-237 91q-101 0 -172 -39v-651z" />
<glyph unicode="&#xff;" horiz-adv-x="872" d="M-68 -424q0 39 23.5 61.5t62.5 22.5q37 0 61.5 -21t24.5 -57q0 -38 -28 -59h18q48 0 87 15t63.5 35.5t46.5 57t34 65.5t27 75l54 155l-308 787q-2 4 -10.5 26t-11 27t-11.5 20.5t-16.5 21.5t-21 14t-29.5 12v26q32 -6 139 -6h43q135 0 182 6v-26q-4 -1 -16.5 -5.5 t-18 -6.5t-16 -6.5t-16 -9.5t-12 -11.5t-9 -15.5t-2.5 -19q0 -28 17 -70l133 -368q36 -90 63 -201l160 532q27 97 27 109q0 9 -3 17.5t-6 14t-10.5 11t-12 8.5t-15.5 7t-15 5t-17 4.5t-15 4.5v26q33 -6 117 -6h34q114 0 152 6v-26q-21 -4 -37 -15t-26 -27.5t-17.5 -33.5 t-15.5 -38l-3 -9l-266 -742q-11 -31 -31 -90.5t-32 -92.5t-33 -82t-41 -80t-49.5 -63.5t-64.5 -53.5q-62 -37 -165 -37q-72 0 -120 24.5t-48 81.5zM219 1124q0 93 96 93q41 0 67 -25.5t26 -65.5q0 -44 -26.5 -68t-70.5 -24q-42 0 -67 24t-25 66zM539 1124q0 93 96 93 q42 0 67 -24.5t25 -66.5q0 -44 -26 -68t-70 -24q-42 0 -67 24t-25 66z" />
<glyph unicode="&#x152;" horiz-adv-x="1859" d="M72 641v4q0 250 100 418.5t285 246.5q129 54 301 54q115 0 250 -18h452q189 0 277 20l10 -10q-6 -25 -6 -125q0 -30 3 -77.5t3 -70.5h-27q-38 123 -84 158q-16 12 -40.5 19.5t-65 10.5t-62 3.5t-78 0t-65.5 -0.5h-139v-539h217q74 0 110 13.5t58 55.5q13 24 33 75h28 q0 -29 -3 -87.5t-3 -95.5t3 -92.5t3 -85.5h-28q-1 4 -7.5 20t-8 20t-7 17.5t-8.5 17.5t-9 14.5t-11 14.5t-12.5 11.5t-15 10.5t-17.5 6.5t-21 5.5q-40 6 -84 6h-217v-486q0 -61 16.5 -80.5t73.5 -19.5h129q131 0 192 14.5t101 75.5q30 46 63 119h27q-21 -181 -21 -287 l-188 4q-126 2 -188 2h-404q-122 -20 -260 -20q-489 0 -618 410q-37 118 -37 247zM276 674q0 -113 15.5 -204.5t50.5 -168.5t89.5 -129.5t135.5 -81.5t185 -29q163 0 256 54v1124q-90 47 -250 47q-168 0 -265 -70t-159 -209q-58 -130 -58 -333z" />
<glyph unicode="&#x153;" horiz-adv-x="1558" d="M78 420q0 155 71.5 262.5t193.5 155.5q80 32 183 32q221 0 330 -151q112 149 309 149q128 0 214.5 -61t100.5 -171q7 -53 7 -112v-12h-559v-10q-2 -22 -2 -35q0 -189 82 -285t264 -96q100 0 184 37l10 -19q-46 -56 -125 -86t-176 -30q-216 0 -315 147 q-65 -74 -146.5 -111.5t-197.5 -37.5q-199 0 -313.5 117t-114.5 317zM264 426q0 -249 127 -341q49 -36 125 -36q70 0 121.5 31t79.5 86t40.5 119t12.5 141q0 78 -12 142t-39.5 119.5t-78.5 86.5t-122 31t-122.5 -31t-79 -86t-40 -119.5t-12.5 -142.5zM930 557l379 37v10 q0 100 -35.5 152.5t-126.5 52.5q-195 0 -217 -252z" />
<glyph unicode="&#x178;" horiz-adv-x="1189" d="M-8 1327v27q86 -8 235 -8q155 0 236 8v-27q-121 -18 -121 -76q0 -20 4.5 -33.5t18 -35t16.5 -27.5l278 -489l252 483q5 9 15.5 26.5t13.5 24t6.5 21t3.5 30.5q0 22 -13.5 36.5t-28.5 19t-42.5 10.5t-38.5 10v27q21 -1 80 -4.5t109 -3.5q133 0 209 8v-27q-60 -11 -90 -45 q-33 -38 -74 -106l-350 -592v-248q0 -133 5 -179q4 -35 19.5 -59.5t44.5 -38.5t56.5 -21.5t72.5 -14.5v-27q-168 8 -291 8q-120 0 -288 -8v27q40 5 70 13t58.5 22.5t46 39.5t21.5 59q6 48 6 134v262l-329 565q-2 4 -13.5 23t-13.5 23t-11.5 19.5t-13 20t-12 17t-13.5 18 t-13 15t-15.5 16.5t-15.5 14q-29 24 -90 43zM391 1540q0 92 96 92q41 0 67 -25t26 -65q0 -44 -26.5 -68t-70.5 -24q-42 0 -67 24t-25 66zM711 1540q0 92 96 92q42 0 67 -24t25 -66q0 -44 -26 -68t-70 -24q-42 0 -67 24t-25 66z" />
<glyph unicode="&#x2c6;" d="M197 1034l315 363l315 -363l-18 -20l-297 196l-297 -196z" />
<glyph unicode="&#x2dc;" d="M229 1067q40 98 105 138q33 20 65 20q33 0 51 -5t56 -20l63 -26q6 -2 27.5 -11.5t36.5 -13.5t31 -4q37 0 60.5 18t47.5 54l23 -17q-42 -103 -103 -140q-33 -20 -67 -20q-9 0 -16.5 0.5t-13 1t-13.5 2.5t-11 2.5t-12.5 4t-11.5 4.5t-14 6t-15 6l-61 27q-59 26 -97 26 q-36 0 -60 -17.5t-48 -51.5z" />
<glyph unicode="&#x2000;" horiz-adv-x="925" />
<glyph unicode="&#x2001;" horiz-adv-x="1851" />
<glyph unicode="&#x2002;" horiz-adv-x="925" />
<glyph unicode="&#x2003;" horiz-adv-x="1851" />
<glyph unicode="&#x2004;" horiz-adv-x="617" />
<glyph unicode="&#x2005;" horiz-adv-x="462" />
<glyph unicode="&#x2006;" horiz-adv-x="308" />
<glyph unicode="&#x2007;" horiz-adv-x="308" />
<glyph unicode="&#x2008;" horiz-adv-x="231" />
<glyph unicode="&#x2009;" horiz-adv-x="370" />
<glyph unicode="&#x200a;" horiz-adv-x="102" />
<glyph unicode="&#x2010;" horiz-adv-x="608" d="M84 373v139h440v-139h-440z" />
<glyph unicode="&#x2011;" horiz-adv-x="608" d="M84 373v139h440v-139h-440z" />
<glyph unicode="&#x2012;" horiz-adv-x="608" d="M84 373v139h440v-139h-440z" />
<glyph unicode="&#x2013;" d="M0 395v99h1024v-99h-1024z" />
<glyph unicode="&#x2014;" horiz-adv-x="2048" d="M0 395v99h2048v-99h-2048z" />
<glyph unicode="&#x2018;" horiz-adv-x="419" d="M98 1008q0 113 58.5 211.5t142.5 144.5l20 -16q-98 -133 -98 -279q0 -17 2 -27h10q44 0 71.5 -26t27.5 -70q0 -49 -29 -75.5t-80 -26.5h-4q-62 0 -91.5 44t-29.5 120z" />
<glyph unicode="&#x2019;" horiz-adv-x="419" d="M94 1262q0 49 29 75.5t80 26.5h4q121 0 121 -164q0 -113 -58.5 -211.5t-142.5 -144.5l-21 16q99 134 99 279q0 16 -2 26h-10q-44 0 -71.5 26.5t-27.5 70.5z" />
<glyph unicode="&#x201a;" horiz-adv-x="419" d="M96 94q0 49 29 76t80 27h4q121 0 121 -164q0 -113 -58.5 -212t-142.5 -145l-20 17q98 133 98 278q0 17 -2 27h-10q-44 0 -71.5 26t-27.5 70z" />
<glyph unicode="&#x201c;" horiz-adv-x="710" d="M98 1008q0 113 58.5 211.5t142.5 144.5l20 -16q-98 -133 -98 -279q0 -17 2 -27h10q44 0 71.5 -26t27.5 -70q0 -49 -29 -75.5t-80 -26.5h-4q-62 0 -91.5 44t-29.5 120zM426 1008q0 113 58.5 211.5t142.5 144.5l20 -16q-98 -133 -98 -279q0 -17 2 -27h10q44 0 71 -26 t27 -70q0 -49 -28.5 -75.5t-79.5 -26.5h-4q-62 0 -91.5 44t-29.5 120z" />
<glyph unicode="&#x201d;" horiz-adv-x="710" d="M94 1262q0 49 29 75.5t80 26.5h4q121 0 121 -164q0 -113 -58.5 -211.5t-142.5 -144.5l-21 16q99 134 99 279q0 16 -2 26h-10q-44 0 -71.5 26.5t-27.5 70.5zM422 1262q0 49 28.5 75.5t79.5 26.5h5q120 0 120 -164q0 -113 -58 -211.5t-142 -144.5l-21 16q98 133 98 279 q0 16 -2 26h-10q-43 0 -70.5 26.5t-27.5 70.5z" />
<glyph unicode="&#x201e;" horiz-adv-x="710" d="M59 94q0 49 29 76t80 27h4q121 0 121 -164q0 -113 -58.5 -212t-142.5 -145l-20 17q98 133 98 278q0 17 -2 27h-10q-44 0 -71.5 26t-27.5 70zM387 94q0 49 29 76t80 27h4q121 0 121 -164q0 -113 -58.5 -212t-142.5 -145l-21 17q99 134 99 278q0 17 -2 27h-11q-44 0 -71 26 t-27 70z" />
<glyph unicode="&#x2022;" d="M233 676q0 90 48 156t122 97q51 21 109 21q92 0 158.5 -47.5t99.5 -121.5q23 -51 23 -105q0 -91 -48.5 -156t-123.5 -97q-53 -22 -109 -22q-92 0 -159 47t-98 120q-22 52 -22 108z" />
<glyph unicode="&#x2026;" horiz-adv-x="2048" d="M227 84q0 53 30 83t83 30t84 -28.5t31 -80.5q0 -53 -30 -84t-83 -31q-55 0 -85 28.5t-30 82.5zM909 84q0 53 30 83t83 30t84 -28.5t31 -80.5q0 -53 -30 -84t-83 -31q-55 0 -85 28.5t-30 82.5zM1591 84q0 53 30 83t83 30t84 -28.5t31 -80.5q0 -53 -30 -84t-83 -31 q-55 0 -85 28.5t-30 82.5z" />
<glyph unicode="&#x202f;" horiz-adv-x="370" />
<glyph unicode="&#x2039;" horiz-adv-x="458" d="M61 428l177 350h112l-151 -350l151 -350h-112z" />
<glyph unicode="&#x203a;" horiz-adv-x="458" d="M109 78l151 350l-151 350h112l176 -350l-176 -350h-112z" />
<glyph unicode="&#x205f;" horiz-adv-x="462" />
<glyph unicode="&#x20ac;" d="M53 537v77l119 -6v19q-2 8 -2 14v14q0 51 4 82l4 45l-125 -6v78l133 -6q95 524 549 524q168 0 250 -64q33 -26 33 -69q0 -39 -25 -61.5t-65 -22.5q-41 0 -65.5 21.5t-24.5 60.5q0 42 28 63q-42 9 -94 9q-100 0 -175.5 -36.5t-122 -102t-72 -145.5t-33.5 -179l557 8v-82 l-564 12q-2 -8 -2 -20q0 -13 -1 -39.5t-1 -44.5v-72l568 6v-82l-564 13q0 -144 51.5 -259t141.5 -176q83 -57 211 -57q68 0 100 13q-24 24 -24 59q0 39 24.5 60.5t65.5 21.5t66.5 -21t25.5 -61q0 -143 -330 -143q-476 0 -520 563z" />
<glyph unicode="&#x2122;" horiz-adv-x="1732" d="M51 1243q0 15 2 42.5t2 53.5q0 7 -1 24t-1 23q0 9 -2 29l6 4q65 -12 189 -12h200q138 0 187 12l8 -4q-2 -16 -2 -26q0 -8 -1 -26.5t-1 -27.5q0 -15 1 -38t1 -33q0 -11 2 -21h-27q-5 12 -13 34.5t-13.5 33t-16 24.5t-28 19.5t-42.5 5.5h-91v-510q0 -13 -0.5 -39t0 -35 t1.5 -26.5t4.5 -24.5t9.5 -17.5t16 -16.5t24 -12q23 -9 63 -15v-25q-80 4 -104 4h-161q-25 0 -103 -4v25q54 8 84 25.5t35 60.5q4 31 4 96v514h-90q-38 0 -70 -19q-6 -5 -11.5 -13.5t-11 -21.5t-8 -20.5l-8 -24t-6.5 -18.5h-27zM686 637v25q6 2 22.5 7t22.5 7.5t17.5 8 t16.5 12t10 17t7 24.5q4 27 4 118v379q0 85 -15 113.5t-81 37.5v25q29 -4 74 -4h121q32 0 45 4l225 -567q14 -37 19 -58q2 6 7.5 25.5t10.5 30.5l223 569q15 -4 45 -4h145q24 0 44 4v-25q-56 -8 -76 -28q-8 -9 -13 -19.5t-7.5 -18.5t-3.5 -25.5t-1.5 -26.5t0 -35t0.5 -39 v-381q0 -84 15 -111t82 -40v-25q-33 4 -80 4h-154q-48 0 -84 -4v25q5 2 19 6t19 6t15.5 6.5t15 9t11 11.5t9.5 16t5 21q4 27 4 118v430l-8 -24q-2 -4 -6.5 -19.5t-7.5 -21.5l-229 -582h-70l-77 192.5t-91 228.5t-74 193q-4 11 -10 33v-473q0 -85 14.5 -111.5t81.5 -39.5v-25 q-33 4 -66 4h-126q-34 0 -70 -4z" />
<glyph unicode="&#x25fc;" horiz-adv-x="860" d="M0 0v860h860v-860h-860z" />
<glyph unicode="&#xfb01;" horiz-adv-x="1097" d="M49 -2v27q65 11 100.5 39t43.5 87q8 65 8 242v391h-119v31q34 5 57 18t35.5 26t19.5 46t8.5 52t3.5 70q1 13 1 20q6 235 108 354t332 119q50 0 96 -6t91.5 -21t72.5 -45t27 -72q0 -98 -105 -98q-57 0 -80.5 32t-23.5 93v24q0 35 -90 35q-82 0 -137.5 -28t-84 -83 t-40 -119.5t-11.5 -154.5v-225h314q158 0 242 35l12 -8q-15 -166 -15 -404v-252q0 -104 31.5 -142t130.5 -56v-27q-59 6 -235 6q-116 0 -215 -6v27q35 5 59.5 18.5t38 31.5t20.5 49t9 60t2 76v381q0 78 -17 106.5t-80 33.5q-37 3 -100 3h-197v-505q0 -12 -0.5 -39.5 t-0.5 -39.5t1.5 -35t4 -34t8 -28t13 -26t19.5 -18.5t27 -15.5q32 -12 66 -18v-27q-85 6 -234 6q-128 0 -217 -6z" />
<glyph unicode="&#xfb02;" horiz-adv-x="1105" d="M49 -2v27q65 12 101.5 40.5t44.5 87.5q6 49 6 240v391h-119v31q52 11 82.5 33t35.5 63q3 28 9 137t14 158q26 153 134.5 233.5t293.5 80.5q95 0 170 -23l113 27l10 -11q-18 -262 -18 -874v-440q0 -66 19 -102.5t64 -52.5q35 -13 76 -19v-27q-59 6 -237 6q-110 0 -211 -6 v27q35 5 59.5 18.5t38 31.5t20.5 49t9 60t2 76v1073q0 75 -27 102t-102 27q-69 0 -119 -21t-80 -55t-47 -89t-23 -111.5t-6 -132.5v-205l218 10v-80l-218 6v-505v-35.5v-35.5t0.5 -31.5t3 -31.5t5.5 -26.5t9 -26t13.5 -19.5t18 -18t24.5 -12q32 -12 66 -18v-27q-85 6 -234 6 q-130 0 -219 -6z" />
</font>
</defs>
</svg>
